<?xml version="1.0" encoding="UTF-8"?>
<svg xmlns="http://www.w3.org/2000/svg" xmlns:xlink="http://www.w3.org/1999/xlink" width="64px" height="64px" viewBox="0 0 64 63" version="1.1">
<g id="surface1">
<path style=" stroke:none;fill-rule:nonzero;fill:rgb(98.431373%,82.745099%,1.176471%);fill-opacity:1;" d="M 64 31.5 C 64 14.101562 49.671875 0 32 0 C 14.328125 0 0 14.101562 0 31.5 C 0 48.898438 14.328125 63 32 63 C 49.671875 63 64 48.898438 64 31.5 Z M 64 31.5 "/>
<path style=" stroke:none;fill-rule:nonzero;fill:rgb(98.823529%,98.823529%,99.215686%);fill-opacity:1;" d="M 7.925781 41.902344 L 7.925781 47.144531 C 7.925781 48.066406 8.648438 48.78125 9.585938 48.78125 L 54.414062 48.78125 C 55.351562 48.78125 56.074219 48.066406 56.074219 47.144531 L 56.074219 41.902344 Z M 7.925781 41.902344 "/>
<path style=" stroke:none;fill-rule:nonzero;fill:rgb(39.215687%,41.960785%,47.450981%);fill-opacity:1;" d="M 56.074219 15.980469 C 56.074219 15.058594 55.351562 14.34375 54.414062 14.34375 L 9.585938 14.34375 C 8.648438 14.34375 7.925781 15.058594 7.925781 15.980469 L 7.925781 41.902344 L 56.074219 41.902344 Z M 56.074219 15.980469 "/>
<path style=" stroke:none;fill-rule:nonzero;fill:rgb(43.137255%,69.411767%,88.235295%);fill-opacity:1;" d="M 10.355469 16.527344 L 53.6875 16.527344 L 53.6875 39.722656 L 10.355469 39.722656 Z M 10.355469 16.527344 "/>
<path style=" stroke:none;fill-rule:nonzero;fill:rgb(39.215687%,41.960785%,47.450981%);fill-opacity:1;" d="M 26.84375 48.78125 L 37.199219 48.78125 L 37.199219 54.570312 L 26.84375 54.570312 Z M 26.84375 48.78125 "/>
<path style=" stroke:none;fill-rule:nonzero;fill:rgb(94.509804%,95.294118%,96.862745%);fill-opacity:1;" d="M 38.691406 54.570312 L 25.308594 54.570312 C 23.734375 54.570312 22.496094 55.828125 22.496094 57.335938 L 41.542969 57.335938 C 41.542969 55.785156 40.265625 54.570312 38.691406 54.570312 Z M 38.691406 54.570312 "/>
<path style=" stroke:none;fill-rule:nonzero;fill:rgb(98.823529%,98.823529%,99.215686%);fill-opacity:1;" d="M 17.085938 5.664062 L 46.914062 5.664062 L 46.914062 39.722656 L 17.085938 39.722656 Z M 17.085938 5.664062 "/>
<path style=" stroke:none;fill-rule:nonzero;fill:rgb(44.313726%,83.137256%,33.725491%);fill-opacity:1;" d="M 20.625 9.101562 L 32.128906 9.101562 L 32.128906 10.613281 L 20.625 10.613281 Z M 20.625 9.101562 "/>
<path style=" stroke:none;fill-rule:nonzero;fill:rgb(87.058824%,87.058824%,87.450981%);fill-opacity:1;" d="M 20.625 13.296875 L 43.335938 13.296875 L 43.335938 14.804688 L 20.625 14.804688 Z M 20.625 13.296875 "/>
<path style=" stroke:none;fill-rule:nonzero;fill:rgb(87.058824%,87.058824%,87.450981%);fill-opacity:1;" d="M 20.625 17.53125 L 43.335938 17.53125 L 43.335938 19.042969 L 20.625 19.042969 Z M 20.625 17.53125 "/>
<path style=" stroke:none;fill-rule:nonzero;fill:rgb(87.058824%,87.058824%,87.450981%);fill-opacity:1;" d="M 30.125 21.769531 L 43.375 21.769531 L 43.375 23.277344 L 30.125 23.277344 Z M 30.125 21.769531 "/>
<path style=" stroke:none;fill-rule:nonzero;fill:rgb(87.058824%,87.058824%,87.450981%);fill-opacity:1;" d="M 30.125 26.003906 L 43.375 26.003906 L 43.375 27.515625 L 30.125 27.515625 Z M 30.125 26.003906 "/>
<path style=" stroke:none;fill-rule:nonzero;fill:rgb(87.058824%,87.058824%,87.450981%);fill-opacity:1;" d="M 30.125 30.199219 L 43.375 30.199219 L 43.375 31.710938 L 30.125 31.710938 Z M 30.125 30.199219 "/>
<path style=" stroke:none;fill-rule:nonzero;fill:rgb(87.058824%,87.058824%,87.450981%);fill-opacity:1;" d="M 30.125 34.4375 L 43.375 34.4375 L 43.375 35.945312 L 30.125 35.945312 Z M 30.125 34.4375 "/>
<path style=" stroke:none;fill-rule:nonzero;fill:rgb(98.431373%,82.745099%,1.176471%);fill-opacity:1;" d="M 27.78125 31.207031 C 27.78125 29.402344 26.289062 27.933594 24.457031 27.933594 C 23.691406 27.933594 23.007812 27.304688 23.007812 26.507812 C 23.007812 25.753906 23.648438 25.082031 24.457031 25.082031 C 24.839844 25.082031 25.226562 25.25 25.480469 25.542969 C 25.820312 25.921875 26.460938 25.921875 26.84375 25.585938 C 27.226562 25.25 27.226562 24.621094 26.886719 24.242188 C 26.460938 23.824219 25.949219 23.53125 25.394531 23.363281 L 25.394531 22.691406 C 25.394531 22.1875 24.96875 21.769531 24.457031 21.769531 C 23.945312 21.769531 23.519531 22.1875 23.519531 22.691406 L 23.519531 23.363281 C 22.15625 23.78125 21.132812 25.039062 21.132812 26.507812 C 21.132812 28.3125 22.625 29.78125 24.457031 29.78125 C 25.226562 29.78125 25.90625 30.410156 25.90625 31.207031 C 25.90625 32.003906 25.265625 32.632812 24.457031 32.632812 C 24.074219 32.632812 23.691406 32.464844 23.433594 32.171875 C 23.09375 31.792969 22.457031 31.792969 22.070312 32.128906 C 21.6875 32.464844 21.6875 33.09375 22.027344 33.472656 C 22.457031 33.890625 22.964844 34.183594 23.519531 34.351562 L 23.519531 35.023438 C 23.519531 35.527344 23.945312 35.945312 24.457031 35.945312 C 24.96875 35.945312 25.394531 35.527344 25.394531 35.023438 L 25.394531 34.351562 C 26.757812 33.933594 27.78125 32.675781 27.78125 31.207031 Z M 27.78125 31.207031 "/>
<path style=" stroke:none;fill-rule:nonzero;fill:rgb(87.058824%,87.058824%,87.450981%);fill-opacity:1;" d="M 33.109375 45.257812 C 33.109375 44.65625 32.613281 44.167969 32 44.167969 C 31.386719 44.167969 30.890625 44.65625 30.890625 45.257812 C 30.890625 45.859375 31.386719 46.347656 32 46.347656 C 32.613281 46.347656 33.109375 45.859375 33.109375 45.257812 Z M 33.109375 45.257812 "/>
</g>
</svg>
