<?xml version="1.0" encoding="UTF-8"?>
<svg xmlns="http://www.w3.org/2000/svg" xmlns:xlink="http://www.w3.org/1999/xlink" width="32px" height="800px" viewBox="0 0 32 32" version="1.1">
<g id="surface1">
<path style=" stroke:none;fill-rule:nonzero;fill:rgb(33.725491%,67.450982%,87.843138%);fill-opacity:1;" d="M 4.058594 30.222656 L 27.9375 30.222656 C 27.886719 27.550781 27.503906 24.058594 26.667969 23.230469 C 26.367188 22.933594 25.429688 22.335938 22.492188 21.707031 C 21.917969 21.582031 21.335938 21.480469 20.753906 21.390625 C 20.753906 21.398438 20.753906 21.398438 20.75 21.402344 L 16.742188 27.699219 C 16.582031 27.957031 16.296875 28.109375 15.996094 28.109375 C 15.695312 28.109375 15.410156 27.953125 15.246094 27.699219 L 11.246094 21.40625 C 11.246094 21.402344 11.242188 21.402344 11.242188 21.398438 C 10.65625 21.484375 10.078125 21.589844 9.503906 21.710938 C 6.566406 22.34375 5.628906 22.941406 5.328125 23.234375 C 4.492188 24.058594 4.101562 27.550781 4.058594 30.222656 Z M 4.058594 30.222656 "/>
<path style=" stroke:none;fill-rule:nonzero;fill:rgb(100%,100%,100%);fill-opacity:1;" d="M 18.792969 21.160156 C 16.933594 20.992188 15.058594 20.992188 13.203125 21.160156 L 16 25.566406 Z M 18.792969 21.160156 "/>
<path style=" stroke:none;fill-rule:nonzero;fill:rgb(9.803922%,30.980393%,50.980395%);fill-opacity:1;" d="M 27.921875 21.972656 C 27.136719 21.1875 25.476562 20.53125 22.867188 19.96875 C 18.371094 19 13.625 19 9.132812 19.96875 C 6.519531 20.527344 4.871094 21.1875 4.078125 21.972656 C 2.28125 23.746094 2.261719 29.902344 2.277344 31.125 C 2.28125 31.609375 2.683594 32 3.167969 32 L 28.832031 32 C 29.316406 32 29.714844 31.609375 29.722656 31.125 C 29.730469 29.902344 29.707031 23.746094 27.921875 21.972656 Z M 13.195312 21.160156 C 15.058594 20.992188 16.933594 20.992188 18.789062 21.160156 L 15.996094 25.558594 Z M 11.242188 21.390625 C 11.242188 21.398438 11.246094 21.398438 11.246094 21.402344 L 15.246094 27.699219 C 15.410156 27.957031 15.695312 28.109375 15.996094 28.109375 C 16.296875 28.109375 16.582031 27.953125 16.742188 27.699219 L 20.742188 21.40625 C 20.742188 21.402344 20.75 21.402344 20.75 21.398438 C 21.335938 21.484375 21.914062 21.589844 22.488281 21.710938 C 25.425781 22.34375 26.363281 22.941406 26.664062 23.234375 C 27.496094 24.0625 27.886719 27.558594 27.933594 30.230469 L 4.058594 30.230469 C 4.113281 27.558594 4.492188 24.0625 5.328125 23.234375 C 5.628906 22.941406 6.566406 22.339844 9.503906 21.710938 C 10.082031 21.582031 10.664062 21.480469 11.242188 21.390625 Z M 11.242188 21.390625 "/>
<path style=" stroke:none;fill-rule:nonzero;fill:rgb(100%,75.686276%,5.098039%);fill-opacity:1;" d="M 15.996094 1.777344 C 12.167969 1.777344 9.058594 4.886719 9.058594 8.710938 C 9.058594 12.539062 12.167969 15.648438 15.996094 15.648438 C 19.820312 15.648438 22.929688 12.539062 22.929688 8.710938 C 22.929688 4.886719 19.820312 1.777344 15.996094 1.777344 Z M 15.996094 1.777344 "/>
<path style=" stroke:none;fill-rule:nonzero;fill:rgb(9.803922%,30.980393%,50.980395%);fill-opacity:1;" d="M 15.996094 0 C 11.1875 0 7.285156 3.910156 7.285156 8.710938 C 7.285156 13.519531 11.195312 17.421875 15.996094 17.421875 C 20.800781 17.421875 24.707031 13.511719 24.707031 8.710938 C 24.707031 3.910156 20.800781 0 15.996094 0 Z M 15.996094 15.652344 C 12.167969 15.652344 9.058594 12.542969 9.058594 8.714844 C 9.058594 4.890625 12.167969 1.78125 15.996094 1.78125 C 19.820312 1.78125 22.929688 4.890625 22.929688 8.714844 C 22.929688 12.542969 19.820312 15.652344 15.996094 15.652344 Z M 15.996094 15.652344 "/>
<path style=" stroke:none;fill-rule:nonzero;fill:rgb(9.803922%,30.980393%,50.980395%);fill-opacity:1;" d="M 15.996094 12.070312 C 15.316406 12.070312 14.761719 11.515625 14.761719 10.835938 C 14.761719 10.34375 14.367188 9.945312 13.871094 9.945312 C 13.382812 9.945312 12.980469 10.339844 12.980469 10.835938 C 12.980469 12.191406 13.878906 13.328125 15.105469 13.710938 L 15.105469 14.238281 C 15.105469 14.730469 15.5 15.128906 15.996094 15.128906 C 16.484375 15.128906 16.886719 14.734375 16.886719 14.238281 L 16.886719 13.710938 C 18.113281 13.332031 19.011719 12.191406 19.011719 10.835938 C 19.011719 9.171875 17.550781 7.832031 15.886719 7.832031 C 15.910156 7.824219 15.886719 7.832031 15.878906 7.832031 C 15.257812 7.769531 14.761719 7.246094 14.761719 6.601562 C 14.761719 5.921875 15.316406 5.371094 15.996094 5.371094 C 16.675781 5.371094 17.230469 5.921875 17.230469 6.601562 C 17.230469 7.09375 17.625 7.492188 18.121094 7.492188 C 18.613281 7.492188 19.011719 7.097656 19.011719 6.601562 C 19.011719 5.25 18.113281 4.109375 16.886719 3.726562 L 16.886719 3.1875 C 16.886719 2.699219 16.492188 2.296875 15.996094 2.296875 C 15.5 2.296875 15.105469 2.691406 15.105469 3.1875 L 15.105469 3.71875 C 13.878906 4.101562 12.980469 5.242188 12.980469 6.597656 C 12.980469 8.261719 14.332031 9.605469 15.992188 9.605469 C 15.964844 9.613281 15.992188 9.605469 15.996094 9.605469 C 16.617188 9.671875 17.222656 10.1875 17.222656 10.828125 C 17.230469 11.515625 16.675781 12.070312 15.996094 12.070312 Z M 15.996094 12.070312 "/>
</g>
</svg>
