<?xml version="1.0" encoding="UTF-8"?>
<svg xmlns="http://www.w3.org/2000/svg" xmlns:xlink="http://www.w3.org/1999/xlink" width="80px" height="80px" viewBox="0 0 80 80" version="1.1">
<g id="surface1">
<path style=" stroke:none;fill-rule:nonzero;fill:rgb(100%,16.078432%,43.921569%);fill-opacity:1;" d="M 80 75.097656 C 80 77.804688 77.804688 80 75.097656 80 L 41.546875 80 C 38.839844 80 36.644531 77.804688 36.644531 75.097656 L 36.644531 41.546875 C 36.644531 38.839844 38.839844 36.644531 41.546875 36.644531 L 75.097656 36.644531 C 77.804688 36.644531 80 38.839844 80 41.546875 Z M 80 75.097656 "/>
<path style=" stroke:none;fill-rule:nonzero;fill:rgb(81.960785%,0.784314%,34.117648%);fill-opacity:1;" d="M 75.097656 36.644531 C 77.804688 36.644531 80 38.839844 80 41.546875 L 80 75.097656 C 80 77.804688 77.804688 80 75.097656 80 L 41.546875 80 C 38.839844 80 36.644531 77.804688 36.644531 75.097656 "/>
<path style=" stroke:none;fill-rule:nonzero;fill:rgb(32.549021%,28.627452%,71.764708%);fill-opacity:1;" d="M 61.675781 56.773438 C 61.675781 59.484375 59.484375 61.675781 56.773438 61.675781 L 23.226562 61.675781 C 20.515625 61.675781 18.324219 59.484375 18.324219 56.773438 L 18.324219 23.226562 C 18.324219 20.515625 20.515625 18.324219 23.226562 18.324219 L 56.773438 18.324219 C 59.484375 18.324219 61.675781 20.515625 61.675781 23.226562 Z M 61.675781 56.773438 "/>
<path style=" stroke:none;fill-rule:nonzero;fill:rgb(23.137255%,21.960784%,64.705884%);fill-opacity:1;" d="M 27.613281 18.324219 L 18.324219 27.613281 L 18.324219 47.097656 L 42.195312 47.097656 C 44.902344 47.097656 47.097656 44.902344 47.097656 42.195312 L 47.097656 18.324219 Z M 27.613281 18.324219 "/>
<path style=" stroke:none;fill-rule:nonzero;fill:rgb(23.137255%,21.960784%,64.705884%);fill-opacity:1;" d="M 56.773438 18.324219 C 59.484375 18.324219 61.675781 20.515625 61.675781 23.226562 L 61.675781 56.773438 C 61.675781 59.484375 59.484375 61.675781 56.773438 61.675781 L 23.226562 61.675781 C 20.515625 61.675781 18.324219 59.484375 18.324219 56.773438 "/>
<path style=" stroke:none;fill-rule:nonzero;fill:rgb(81.960785%,0.784314%,34.117648%);fill-opacity:1;" d="M 44.257812 36.644531 L 36.644531 44.257812 L 36.644531 64.644531 L 59.742188 64.644531 C 62.453125 64.644531 64.644531 62.453125 64.644531 59.742188 L 64.644531 36.644531 Z M 44.257812 36.644531 "/>
<path style=" stroke:none;fill-rule:nonzero;fill:rgb(21.568628%,8.627451%,49.803922%);fill-opacity:1;" d="M 41.546875 36.644531 C 38.839844 36.644531 36.644531 38.839844 36.644531 41.546875 L 36.644531 61.675781 L 56.773438 61.675781 C 59.484375 61.675781 61.675781 59.484375 61.675781 56.773438 L 61.675781 36.644531 Z M 41.546875 36.644531 "/>
<path style=" stroke:none;fill-rule:nonzero;fill:rgb(18.039216%,72.549021%,100%);fill-opacity:1;" d="M 43.355469 38.453125 C 43.355469 41.160156 41.160156 43.355469 38.453125 43.355469 L 4.902344 43.355469 C 2.195312 43.355469 0 41.160156 0 38.453125 L 0 4.902344 C 0 2.195312 2.195312 0 4.902344 0 L 38.453125 0 C 41.160156 0 43.355469 2.195312 43.355469 4.902344 Z M 43.355469 38.453125 "/>
<path style=" stroke:none;fill-rule:nonzero;fill:rgb(0%,59.215689%,95.686275%);fill-opacity:1;" d="M 38.453125 0 C 41.160156 0 43.355469 2.195312 43.355469 4.902344 L 43.355469 38.453125 C 43.355469 41.160156 41.160156 43.355469 38.453125 43.355469 L 4.902344 43.355469 C 2.195312 43.355469 0 41.160156 0 38.453125 "/>
</g>
</svg>
