<?xml version="1.0" encoding="UTF-8"?>
<svg xmlns="http://www.w3.org/2000/svg" xmlns:xlink="http://www.w3.org/1999/xlink" width="63px" height="63px" viewBox="0 0 63 63" version="1.1">
<g id="surface1">
<path style=" stroke:none;fill-rule:nonzero;fill:rgb(56.470591%,79.215688%,97.647059%);fill-opacity:1;" d="M 39.375 6.5625 L 23.625 6.5625 C 20.738281 6.5625 18.375 8.925781 18.375 11.8125 L 18.375 51.1875 C 18.375 54.074219 20.738281 56.4375 23.625 56.4375 L 39.375 56.4375 C 42.261719 56.4375 44.625 54.074219 44.625 51.1875 L 44.625 11.8125 C 44.625 8.925781 42.261719 6.5625 39.375 6.5625 Z M 23.625 51.1875 L 23.625 11.8125 L 39.375 11.8125 L 39.375 51.1875 Z M 23.625 51.1875 "/>
<path style=" stroke:none;fill-rule:nonzero;fill:rgb(95.686275%,26.274511%,21.176471%);fill-opacity:1;" d="M 36.75 49.875 C 36.75 57.125 42.625 63 49.875 63 C 57.125 63 63 57.125 63 49.875 C 63 42.625 57.125 36.75 49.875 36.75 C 42.625 36.75 36.75 42.625 36.75 49.875 Z M 36.75 49.875 "/>
<path style=" stroke:none;fill-rule:nonzero;fill:rgb(100%,100%,100%);fill-opacity:1;" d="M 56.84375 54.050781 L 54.0625 56.835938 L 42.925781 45.699219 L 45.710938 42.914062 Z M 56.84375 54.050781 "/>
<path style=" stroke:none;fill-rule:nonzero;fill:rgb(100%,100%,100%);fill-opacity:1;" d="M 45.699219 56.84375 L 42.914062 54.0625 L 54.050781 42.925781 L 56.835938 45.710938 Z M 45.699219 56.84375 "/>
</g>
</svg>
