<?xml version="1.0" encoding="UTF-8"?>
<svg xmlns="http://www.w3.org/2000/svg" xmlns:xlink="http://www.w3.org/1999/xlink" width="63px" height="63px" viewBox="0 0 63 63" version="1.1">
<defs>
<filter id="alpha" filterUnits="objectBoundingBox" x="0%" y="0%" width="100%" height="100%">
  <feColorMatrix type="matrix" in="SourceGraphic" values="0 0 0 0 1 0 0 0 0 1 0 0 0 0 1 0 0 0 1 0"/>
</filter>
<mask id="mask0">
  <g filter="url(#alpha)">
<rect x="0" y="0" width="63" height="63" style="fill:rgb(0%,0%,0%);fill-opacity:0.101961;stroke:none;"/>
  </g>
</mask>
<clipPath id="clip1">
  <rect x="0" y="0" width="63" height="63"/>
</clipPath>
<g id="surface5" clip-path="url(#clip1)">
<path style=" stroke:none;fill-rule:nonzero;fill:rgb(0%,0%,0%);fill-opacity:1;" d="M 48.144531 12.230469 C 46.820312 12.570312 45.605469 13.257812 44.613281 14.25 L 18.828125 40.035156 L 18.242188 58.480469 L 36.6875 57.898438 L 48.144531 46.445312 Z M 48.144531 12.230469 "/>
</g>
<mask id="mask1">
  <g filter="url(#alpha)">
<rect x="0" y="0" width="63" height="63" style="fill:rgb(0%,0%,0%);fill-opacity:0.101961;stroke:none;"/>
  </g>
</mask>
<clipPath id="clip2">
  <rect x="0" y="0" width="63" height="63"/>
</clipPath>
<g id="surface8" clip-path="url(#clip2)">
<path style=" stroke:none;fill-rule:nonzero;fill:rgb(0%,0%,0%);fill-opacity:1;" d="M 59.445312 24.210938 L 54.398438 19.164062 C 55.746094 20.507812 55.746094 22.691406 54.398438 24.039062 L 29.8125 48.625 L 22.832031 48.84375 L 22.667969 54.054688 L 34.859375 53.671875 L 59.445312 29.085938 C 60.792969 27.738281 60.792969 25.554688 59.445312 24.210938 Z M 59.445312 24.210938 "/>
</g>
</defs>
<g id="surface1">
<path style=" stroke:none;fill-rule:nonzero;fill:rgb(86.274511%,89.803922%,98.039216%);fill-opacity:1;" d="M 43.976562 0 L 6.710938 0 C 4.410156 0 2.542969 1.867188 2.542969 4.167969 L 2.542969 58.832031 C 2.542969 61.132812 4.410156 63 6.710938 63 L 43.976562 63 C 46.277344 63 48.144531 61.132812 48.144531 58.832031 L 48.144531 4.167969 C 48.144531 1.867188 46.277344 0 43.976562 0 Z M 43.976562 0 "/>
<use xlink:href="#surface5" mask="url(#mask0)"/>
<path style=" stroke:none;fill-rule:nonzero;fill:rgb(100%,60.000002%,60.392159%);fill-opacity:1;" d="M 59.445312 24.210938 L 52.515625 17.277344 C 51.167969 15.933594 48.984375 15.933594 47.640625 17.277344 L 43.789062 21.128906 L 47.066406 29.65625 L 55.59375 32.9375 L 59.445312 29.085938 C 60.792969 27.738281 60.792969 25.554688 59.445312 24.210938 Z M 59.445312 24.210938 "/>
<path style=" stroke:none;fill-rule:nonzero;fill:rgb(100%,92.156863%,74.901962%);fill-opacity:1;" d="M 22.667969 54.058594 L 23.054688 41.863281 L 26.71875 38.199219 L 38.523438 50.007812 L 34.859375 53.671875 Z M 22.667969 54.058594 "/>
<path style=" stroke:none;fill-rule:nonzero;fill:rgb(100%,84.313726%,50.980395%);fill-opacity:1;" d="M 34.859375 53.671875 L 23.054688 41.863281 L 38.8125 26.105469 L 47.070312 29.65625 L 50.617188 37.914062 Z M 34.859375 53.671875 "/>
<path style=" stroke:none;fill-rule:nonzero;fill:rgb(31.764707%,32.156864%,38.431373%);fill-opacity:1;" d="M 50.617188 37.914062 L 38.8125 26.105469 L 43.789062 21.128906 L 55.59375 32.9375 Z M 50.617188 37.914062 "/>
<use xlink:href="#surface8" mask="url(#mask1)"/>
</g>
</svg>
