<?xml version="1.0" encoding="UTF-8"?>
<svg xmlns="http://www.w3.org/2000/svg" xmlns:xlink="http://www.w3.org/1999/xlink" width="32px" height="32px" viewBox="0 0 32 32" version="1.1">
<g id="surface1">
<path style=" stroke:none;fill-rule:nonzero;fill:rgb(96.862745%,42.352942%,36.862746%);fill-opacity:1;" d="M 23 5 L 23 13 L 25 13 L 25 5 L 26 5 L 24 2 L 22 5 Z M 23 5 "/>
<path style=" stroke:none;fill-rule:nonzero;fill:rgb(73.725492%,42.352942%,14.509805%);fill-opacity:1;" d="M 18 13 L 30 13 L 30 22 L 18 22 Z M 18 13 "/>
<path style=" stroke:none;fill-rule:nonzero;fill:rgb(15.294118%,29.803923%,46.666667%);fill-opacity:1;" d="M 26 13 L 26 17 L 24 15 L 22 17 L 22 13 "/>
<path style=" stroke:none;fill-rule:nonzero;fill:rgb(86.666667%,63.137257%,36.862746%);fill-opacity:1;" d="M 13.289062 19.519531 L 11.789062 20.164062 C 11.285156 20.378906 10.714844 20.378906 10.214844 20.164062 L 8.714844 19.519531 C 7.980469 19.203125 7.503906 18.480469 7.503906 17.679688 L 7.503906 15 C 7.503906 13.34375 8.851562 12 10.503906 12 L 11.503906 12 C 13.160156 12 14.503906 13.34375 14.503906 15 L 14.503906 17.679688 C 14.503906 18.480469 14.03125 19.203125 13.296875 19.519531 Z M 13.289062 19.519531 "/>
<path style=" stroke:none;fill-rule:nonzero;fill:rgb(15.294118%,29.803923%,46.666667%);fill-opacity:1;" d="M 17.570312 22.5 C 16.660156 21.574219 15.394531 21 14 21 L 12.5 21 C 12.5 21.828125 11.828125 22.5 11 22.5 C 10.171875 22.5 9.5 21.828125 9.5 21 L 8 21 C 5.238281 21 3 23.238281 3 26 L 3 29.5 L 14 29.5 L 16 22.5 Z M 17.570312 22.5 "/>
<path style=" stroke:none;fill-rule:nonzero;fill:rgb(86.666667%,63.137257%,36.862746%);fill-opacity:1;" d="M 8.5 27.5 L 9.5 27.5 C 10.050781 27.5 10.5 27.949219 10.5 28.5 L 10.5 29.5 L 8.5 29.5 Z M 8.5 27.5 "/>
<path style=" stroke:none;fill-rule:nonzero;fill:rgb(15.294118%,29.803923%,46.666667%);fill-opacity:1;" d="M 6 15.863281 C 5.855469 15.949219 5.679688 16 5.5 16 C 4.949219 16 4.5 15.550781 4.5 15 C 4.5 14.449219 4.949219 14 5.5 14 C 5.710938 14 5.90625 14.066406 6.070312 14.179688 "/>
<path style=" stroke:none;fill-rule:nonzero;fill:rgb(15.294118%,29.803923%,46.666667%);fill-opacity:1;" d="M 16 15.863281 C 16.144531 15.949219 16.320312 16 16.5 16 C 17.050781 16 17.5 15.550781 17.5 15 C 17.5 14.449219 17.050781 14 16.5 14 C 16.289062 14 16.09375 14.066406 15.929688 14.179688 "/>
<path style=" stroke:none;fill-rule:nonzero;fill:rgb(73.725492%,42.352942%,14.509805%);fill-opacity:1;" d="M 9.5 19.855469 L 10.210938 20.160156 C 10.714844 20.378906 11.285156 20.378906 11.789062 20.160156 L 12.5 19.855469 L 12.5 21 C 12.5 21.828125 11.828125 22.5 11 22.5 C 10.171875 22.5 9.5 21.828125 9.5 21 Z M 9.5 19.855469 "/>
<path style=" stroke:none;fill-rule:nonzero;fill:rgb(54.509807%,54.901963%,53.725493%);fill-opacity:1;" d="M 14 29.5 L 16 22.5 L 27 22.5 L 25 29.5 "/>
<path style=" stroke:none;fill-rule:nonzero;fill:rgb(15.294118%,29.803923%,46.666667%);fill-opacity:1;" d="M 14.199219 13.691406 L 14.195312 13.691406 C 13.910156 13.574219 13.578125 13.5 13.164062 13.5 C 11 13.5 11 15.5 8.828125 15.5 C 8.265625 15.5 7.84375 15.363281 7.5 15.164062 L 7.5 15 C 7.5 13.34375 8.84375 12 10.5 12 L 11.5 12 C 12.683594 12 13.710938 12.691406 14.195312 13.691406 Z M 14.199219 13.691406 "/>
<path style=" stroke:none;fill-rule:nonzero;fill:rgb(90.588236%,92.54902%,93.725491%);fill-opacity:1;" d="M 14.5 17.300781 L 14.5 15 C 14.5 13.34375 13.15625 12 11.5 12 L 10.5 12 C 8.84375 12 7.5 13.34375 7.5 15 L 7.5 17 L 6.5 17 C 6.226562 17 6 16.773438 6 16.5 L 6 15 C 6 12.238281 8.238281 10 11 10 C 12.378906 10 13.628906 10.558594 14.535156 11.464844 C 15.441406 12.371094 16 13.621094 16 15 L 16 16.589844 C 16 16.828125 15.828125 17.035156 15.601562 17.078125 Z M 14.5 17.300781 "/>
<path style=" stroke:none;fill-rule:nonzero;fill:rgb(63.921571%,80.784315%,94.509804%);fill-opacity:1;" d="M 20.5 25.5 C 20.773438 25.5 21 25.726562 21 26 C 21 26.273438 20.773438 26.5 20.5 26.5 Z M 20.5 25.5 "/>
<path style=" stroke:none;fill-rule:nonzero;fill:rgb(37.64706%,58.823532%,72.941178%);fill-opacity:1;" d="M 11 18 C 10.945312 17.730469 11.121094 17.464844 11.390625 17.410156 L 15.5 16.589844 L 15.5 15.160156 C 15.5 12.765625 13.695312 10.671875 11.308594 10.511719 C 8.691406 10.335938 6.5 12.414062 6.5 15 L 6.5 16.5 L 7.5 16.5 L 7.5 17.5 L 6.5 17.5 C 5.949219 17.5 5.5 17.050781 5.5 16.5 L 5.5 15.160156 C 5.5 12.300781 7.621094 9.789062 10.46875 9.523438 C 13.738281 9.214844 16.5 11.789062 16.5 15 L 16.5 16.589844 C 16.5 17.066406 16.164062 17.476562 15.695312 17.570312 L 11.585938 18.390625 C 11.316406 18.445312 11.050781 18.269531 10.996094 18 Z M 11 18 "/>
<path style=" stroke:none;fill-rule:nonzero;fill:rgb(37.64706%,58.823532%,72.941178%);fill-opacity:1;" d="M 11 29.5 L 10 29.5 L 10 28.5 C 10 28.226562 9.773438 28 9.5 28 L 6 28 C 5.726562 28 5.5 27.773438 5.5 27.5 L 5.5 25.5 C 5.5 25.363281 5.554688 25.238281 5.644531 25.144531 L 6.289062 24.5 C 6.484375 24.304688 6.800781 24.304688 6.996094 24.5 C 7.191406 24.695312 7.191406 25.011719 6.996094 25.203125 L 6.496094 25.703125 L 6.496094 27 L 9.496094 27 C 10.324219 27 10.996094 27.671875 10.996094 28.5 L 10.996094 29.5 Z M 11 29.5 "/>
<path style=" stroke:none;fill-rule:nonzero;fill:rgb(63.921571%,80.784315%,94.509804%);fill-opacity:1;" d="M 2 29 L 27 29 L 27 30 L 2 30 Z M 2 29 "/>
<path style=" stroke:none;fill-rule:nonzero;fill:rgb(90.588236%,92.54902%,93.725491%);fill-opacity:1;" d="M 24 7 L 25 7 L 25 8 L 24 8 Z M 24 7 "/>
<path style=" stroke:none;fill-rule:nonzero;fill:rgb(90.588236%,92.54902%,93.725491%);fill-opacity:1;" d="M 24 9 L 25 9 L 25 10 L 24 10 Z M 24 9 "/>
<path style=" stroke:none;fill-rule:nonzero;fill:rgb(90.588236%,92.54902%,93.725491%);fill-opacity:1;" d="M 24 11 L 25 11 L 25 12 L 24 12 Z M 24 11 "/>
</g>
</svg>
