<?xml version="1.0" encoding="UTF-8"?>
<svg xmlns="http://www.w3.org/2000/svg" xmlns:xlink="http://www.w3.org/1999/xlink" width="18px" height="18px" viewBox="0 0 18 18" version="1.1">
<g id="surface1">
<path style=" stroke:none;fill-rule:nonzero;fill:rgb(89.803922%,43.137255%,30.980393%);fill-opacity:1;" d="M 17.46875 8.675781 L 17.46875 9.289062 C 17.46875 9.523438 17.363281 9.757812 17.148438 9.945312 C 14.6875 12.078125 12.222656 14.210938 9.757812 16.347656 C 9.550781 16.527344 9.304688 16.617188 9.011719 16.617188 L 9.011719 16.003906 C 9.304688 16.003906 9.550781 15.910156 9.757812 15.730469 C 12.222656 13.597656 14.6875 11.460938 17.148438 9.328125 C 17.363281 9.144531 17.46875 8.910156 17.46875 8.675781 Z M 17.46875 8.675781 "/>
<path style=" stroke:none;fill-rule:nonzero;fill:rgb(89.803922%,43.137255%,30.980393%);fill-opacity:1;" d="M 0.53125 9.289062 L 0.53125 8.671875 C 0.53125 8.929688 0.648438 9.1875 0.867188 9.375 C 3.300781 11.488281 5.734375 13.59375 8.171875 15.703125 C 8.398438 15.902344 8.675781 15.992188 9.011719 16.003906 L 9.011719 16.617188 C 8.675781 16.609375 8.398438 16.515625 8.171875 16.320312 C 5.734375 14.210938 3.300781 12.101562 0.867188 9.992188 C 0.648438 9.804688 0.53125 9.546875 0.53125 9.289062 Z M 0.53125 9.289062 "/>
<path style=" stroke:none;fill-rule:nonzero;fill:rgb(94.901961%,58.431375%,36.078432%);fill-opacity:1;" d="M 8.980469 1.347656 C 9.265625 1.347656 9.550781 1.441406 9.769531 1.628906 C 12.230469 3.757812 14.6875 5.890625 17.148438 8.019531 C 17.574219 8.390625 17.574219 8.960938 17.148438 9.328125 C 14.6875 11.460938 12.222656 13.597656 9.757812 15.730469 C 9.550781 15.910156 9.304688 16.003906 9.011719 16.003906 C 8.675781 15.992188 8.398438 15.902344 8.171875 15.703125 C 5.734375 13.59375 3.300781 11.488281 0.867188 9.375 C 0.523438 9.078125 0.425781 8.605469 0.65625 8.230469 C 0.726562 8.117188 0.808594 8.019531 0.910156 7.933594 C 3.339844 5.832031 5.765625 3.730469 8.191406 1.628906 C 8.410156 1.441406 8.695312 1.347656 8.980469 1.347656 Z M 8.980469 1.347656 "/>
<path style=" stroke:none;fill-rule:nonzero;fill:rgb(84.705883%,37.254903%,36.470589%);fill-opacity:1;" d="M 6.613281 8.90625 L 6.613281 8.613281 C 6.613281 9.125 6.613281 9.640625 6.617188 10.152344 L 6.617188 10.449219 C 6.613281 9.933594 6.613281 9.421875 6.613281 8.90625 Z M 6.613281 8.90625 "/>
<path style=" stroke:none;fill-rule:nonzero;fill:rgb(84.705883%,37.254903%,36.470589%);fill-opacity:1;" d="M 6.617188 10.152344 L 6.617188 10.449219 C 6.613281 9.933594 6.613281 9.421875 6.613281 8.90625 L 6.613281 8.613281 C 6.613281 9.125 6.613281 9.640625 6.617188 10.152344 "/>
<path style=" stroke:none;fill-rule:nonzero;fill:rgb(91.764706%,34.509805%,33.725491%);fill-opacity:1;" d="M 9.605469 9.859375 L 9.605469 10.15625 C 9.605469 10.273438 9.605469 10.390625 9.601562 10.507812 C 9.601562 10.621094 9.515625 10.707031 9.386719 10.722656 C 9.371094 10.722656 9.359375 10.726562 9.34375 10.726562 C 9.238281 10.726562 9.144531 10.671875 9.109375 10.582031 C 9.097656 10.550781 9.09375 10.515625 9.09375 10.484375 C 9.09375 10.1875 9.09375 9.894531 9.09375 9.597656 L 9.09375 9.304688 C 9.09375 9.597656 9.09375 9.894531 9.09375 10.1875 C 9.09375 10.222656 9.097656 10.257812 9.109375 10.289062 C 9.144531 10.375 9.238281 10.429688 9.34375 10.429688 C 9.359375 10.429688 9.371094 10.429688 9.386719 10.425781 C 9.515625 10.410156 9.601562 10.328125 9.601562 10.210938 C 9.605469 10.09375 9.605469 9.976562 9.605469 9.859375 Z M 9.605469 9.859375 "/>
<path style=" stroke:none;fill-rule:nonzero;fill:rgb(91.764706%,34.509805%,33.725491%);fill-opacity:1;" d="M 9.605469 9.859375 L 9.605469 10.15625 C 9.605469 10.273438 9.605469 10.390625 9.601562 10.507812 C 9.601562 10.511719 9.601562 10.515625 9.601562 10.519531 L 9.601562 10.222656 C 9.601562 10.21875 9.601562 10.214844 9.601562 10.210938 C 9.605469 10.09375 9.605469 9.976562 9.605469 9.859375 M 9.601562 10.222656 L 9.601562 10.519531 C 9.601562 10.5625 9.582031 10.605469 9.554688 10.636719 L 9.554688 10.34375 C 9.582031 10.308594 9.601562 10.269531 9.601562 10.222656 "/>
<path style=" stroke:none;fill-rule:nonzero;fill:rgb(91.764706%,34.509805%,33.725491%);fill-opacity:1;" d="M 9.554688 10.34375 L 9.554688 10.636719 C 9.539062 10.65625 9.523438 10.667969 9.503906 10.679688 L 9.503906 10.386719 C 9.523438 10.375 9.539062 10.359375 9.554688 10.34375 M 9.503906 10.386719 L 9.503906 10.679688 C 9.488281 10.691406 9.472656 10.699219 9.453125 10.707031 L 9.453125 10.410156 C 9.472656 10.402344 9.488281 10.394531 9.503906 10.386719 M 9.453125 10.410156 L 9.453125 10.707031 C 9.433594 10.714844 9.410156 10.71875 9.386719 10.722656 L 9.386719 10.425781 C 9.410156 10.421875 9.433594 10.417969 9.453125 10.410156 "/>
<path style=" stroke:none;fill-rule:nonzero;fill:rgb(91.764706%,34.509805%,33.725491%);fill-opacity:1;" d="M 9.386719 10.425781 L 9.386719 10.722656 C 9.371094 10.722656 9.359375 10.726562 9.34375 10.726562 C 9.238281 10.726562 9.144531 10.671875 9.109375 10.582031 C 9.097656 10.550781 9.09375 10.515625 9.09375 10.484375 C 9.09375 10.1875 9.09375 9.894531 9.09375 9.597656 L 9.09375 9.304688 C 9.09375 9.597656 9.09375 9.894531 9.09375 10.1875 C 9.09375 10.222656 9.097656 10.257812 9.109375 10.289062 C 9.144531 10.375 9.238281 10.429688 9.34375 10.429688 C 9.359375 10.429688 9.371094 10.429688 9.386719 10.425781 "/>
<path style=" stroke:none;fill-rule:nonzero;fill:rgb(98.431373%,85.09804%,72.156864%);fill-opacity:1;" d="M 9.34375 8.390625 C 9.375 8.390625 9.40625 8.394531 9.4375 8.40625 C 9.542969 8.4375 9.601562 8.515625 9.605469 8.621094 C 9.605469 8.886719 9.605469 9.148438 9.605469 9.414062 C 9.605469 9.679688 9.605469 9.945312 9.601562 10.210938 C 9.601562 10.328125 9.515625 10.410156 9.386719 10.425781 C 9.371094 10.429688 9.359375 10.429688 9.34375 10.429688 C 9.238281 10.429688 9.144531 10.375 9.109375 10.289062 C 9.097656 10.257812 9.09375 10.222656 9.09375 10.1875 C 9.09375 9.671875 9.09375 9.152344 9.09375 8.632812 C 9.09375 8.488281 9.203125 8.390625 9.34375 8.390625 Z M 9.34375 8.390625 "/>
<path style=" stroke:none;fill-rule:nonzero;fill:rgb(98.431373%,85.09804%,72.156864%);fill-opacity:1;" d="M 6.871094 6.792969 C 7.003906 6.792969 7.105469 6.871094 7.125 6.984375 C 7.128906 7.011719 7.128906 7.039062 7.128906 7.066406 C 7.128906 7.582031 7.128906 8.101562 7.128906 8.617188 C 7.128906 9.136719 7.128906 9.660156 7.128906 10.183594 C 7.128906 10.332031 7.023438 10.429688 6.878906 10.429688 C 6.859375 10.429688 6.84375 10.429688 6.824219 10.425781 C 6.722656 10.410156 6.644531 10.34375 6.625 10.253906 C 6.617188 10.222656 6.617188 10.1875 6.617188 10.152344 C 6.613281 9.125 6.613281 8.097656 6.617188 7.070312 C 6.617188 7.039062 6.617188 7.011719 6.621094 6.980469 C 6.640625 6.871094 6.742188 6.792969 6.871094 6.792969 Z M 6.871094 6.792969 "/>
<path style=" stroke:none;fill-rule:nonzero;fill:rgb(91.764706%,34.509805%,33.725491%);fill-opacity:1;" d="M 7.128906 9.558594 L 7.128906 9.855469 C 7.128906 10.0625 7.128906 10.273438 7.128906 10.480469 C 7.128906 10.625 7.023438 10.726562 6.878906 10.726562 C 6.859375 10.726562 6.84375 10.722656 6.824219 10.722656 C 6.722656 10.703125 6.644531 10.640625 6.625 10.550781 C 6.617188 10.515625 6.617188 10.484375 6.617188 10.449219 L 6.617188 10.152344 C 6.617188 10.1875 6.617188 10.222656 6.625 10.253906 C 6.644531 10.34375 6.722656 10.410156 6.824219 10.425781 C 6.839844 10.429688 6.859375 10.429688 6.878906 10.429688 C 7.023438 10.429688 7.128906 10.332031 7.128906 10.183594 C 7.128906 9.976562 7.128906 9.769531 7.128906 9.558594 Z M 7.128906 9.558594 "/>
<path style=" stroke:none;fill-rule:nonzero;fill:rgb(91.764706%,34.509805%,33.725491%);fill-opacity:1;" d="M 7.128906 10.203125 L 7.128906 10.496094 C 7.125 10.554688 7.105469 10.601562 7.074219 10.640625 L 7.074219 10.347656 C 7.105469 10.308594 7.125 10.257812 7.128906 10.203125 M 7.074219 10.347656 L 7.074219 10.640625 C 7.058594 10.660156 7.042969 10.671875 7.023438 10.683594 L 7.023438 10.390625 C 7.042969 10.378906 7.058594 10.363281 7.074219 10.347656 M 7.023438 10.390625 L 7.023438 10.683594 C 7.007812 10.695312 6.992188 10.703125 6.976562 10.707031 L 6.976562 10.414062 C 6.992188 10.40625 7.007812 10.398438 7.023438 10.390625 "/>
<path style=" stroke:none;fill-rule:nonzero;fill:rgb(91.764706%,34.509805%,33.725491%);fill-opacity:1;" d="M 6.976562 10.414062 L 6.976562 10.707031 C 6.957031 10.714844 6.9375 10.71875 6.917969 10.722656 L 6.917969 10.425781 C 6.9375 10.425781 6.957031 10.421875 6.976562 10.414062 M 6.917969 10.425781 L 6.917969 10.722656 C 6.90625 10.722656 6.890625 10.726562 6.878906 10.726562 C 6.859375 10.726562 6.84375 10.722656 6.824219 10.722656 C 6.722656 10.703125 6.644531 10.640625 6.625 10.550781 C 6.617188 10.515625 6.617188 10.484375 6.617188 10.449219 L 6.617188 10.152344 C 6.617188 10.1875 6.617188 10.222656 6.625 10.253906 C 6.644531 10.34375 6.722656 10.410156 6.824219 10.425781 C 6.84375 10.429688 6.859375 10.429688 6.878906 10.429688 C 6.890625 10.429688 6.90625 10.429688 6.917969 10.425781 "/>
<path style=" stroke:none;fill-rule:nonzero;fill:rgb(91.764706%,34.509805%,33.725491%);fill-opacity:1;" d="M 12.078125 9.894531 L 12.078125 10.191406 C 12.078125 10.292969 12.078125 10.398438 12.078125 10.503906 C 12.078125 10.636719 11.96875 10.726562 11.828125 10.726562 C 11.808594 10.726562 11.785156 10.722656 11.765625 10.71875 C 11.660156 10.699219 11.585938 10.625 11.570312 10.535156 C 11.570312 10.515625 11.570312 10.492188 11.570312 10.472656 C 11.570312 10.238281 11.570312 10.003906 11.570312 9.769531 L 11.570312 9.472656 C 11.570312 9.707031 11.570312 9.945312 11.570312 10.179688 C 11.570312 10.199219 11.570312 10.21875 11.570312 10.238281 C 11.585938 10.332031 11.660156 10.402344 11.765625 10.425781 C 11.785156 10.429688 11.808594 10.429688 11.828125 10.429688 C 11.96875 10.429688 12.078125 10.339844 12.078125 10.207031 C 12.078125 10.101562 12.078125 10 12.078125 9.894531 Z M 12.078125 9.894531 "/>
<path style=" stroke:none;fill-rule:nonzero;fill:rgb(91.764706%,34.509805%,33.725491%);fill-opacity:1;" d="M 12.078125 9.894531 L 12.078125 10.191406 C 12.078125 10.292969 12.078125 10.398438 12.078125 10.503906 C 12.078125 10.507812 12.078125 10.511719 12.078125 10.515625 L 12.078125 10.21875 C 12.078125 10.214844 12.078125 10.210938 12.078125 10.207031 C 12.078125 10.101562 12.078125 10 12.078125 9.894531 M 12.078125 10.21875 L 12.078125 10.515625 C 12.074219 10.5625 12.054688 10.605469 12.027344 10.640625 L 12.027344 10.34375 C 12.054688 10.3125 12.074219 10.269531 12.078125 10.21875 M 12.027344 10.34375 L 12.027344 10.640625 C 12.011719 10.65625 11.996094 10.671875 11.976562 10.683594 L 11.976562 10.386719 C 11.996094 10.375 12.011719 10.363281 12.027344 10.34375 M 11.976562 10.390625 L 11.976562 10.683594 C 11.960938 10.695312 11.945312 10.703125 11.929688 10.707031 L 11.929688 10.414062 C 11.945312 10.40625 11.960938 10.398438 11.976562 10.390625 "/>
<path style=" stroke:none;fill-rule:nonzero;fill:rgb(91.764706%,34.509805%,33.725491%);fill-opacity:1;" d="M 11.929688 10.414062 L 11.929688 10.707031 C 11.910156 10.714844 11.890625 10.71875 11.871094 10.722656 L 11.871094 10.425781 C 11.890625 10.425781 11.910156 10.417969 11.929688 10.414062 "/>
<path style=" stroke:none;fill-rule:nonzero;fill:rgb(91.764706%,34.509805%,33.725491%);fill-opacity:1;" d="M 11.871094 10.425781 L 11.871094 10.722656 C 11.855469 10.722656 11.84375 10.726562 11.828125 10.726562 C 11.808594 10.726562 11.785156 10.722656 11.765625 10.71875 C 11.660156 10.699219 11.585938 10.625 11.570312 10.535156 C 11.570312 10.515625 11.570312 10.492188 11.570312 10.472656 C 11.570312 10.238281 11.570312 10.003906 11.570312 9.769531 L 11.570312 9.472656 C 11.570312 9.707031 11.570312 9.945312 11.570312 10.179688 C 11.570312 10.199219 11.570312 10.21875 11.570312 10.238281 C 11.585938 10.332031 11.660156 10.402344 11.765625 10.425781 C 11.785156 10.429688 11.808594 10.429688 11.828125 10.429688 C 11.84375 10.429688 11.855469 10.429688 11.871094 10.425781 "/>
<path style=" stroke:none;fill-rule:nonzero;fill:rgb(98.431373%,85.09804%,72.156864%);fill-opacity:1;" d="M 11.816406 8.390625 C 11.84375 8.390625 11.875 8.394531 11.902344 8.402344 C 12.007812 8.429688 12.078125 8.503906 12.078125 8.605469 C 12.082031 8.875 12.078125 9.140625 12.078125 9.410156 C 12.078125 9.675781 12.082031 9.941406 12.078125 10.207031 C 12.078125 10.339844 11.964844 10.429688 11.828125 10.429688 C 11.808594 10.429688 11.785156 10.429688 11.765625 10.425781 C 11.660156 10.402344 11.585938 10.332031 11.570312 10.238281 C 11.570312 10.21875 11.570312 10.199219 11.570312 10.179688 C 11.570312 9.667969 11.566406 9.15625 11.570312 8.644531 C 11.570312 8.585938 11.59375 8.523438 11.628906 8.472656 C 11.667969 8.417969 11.742188 8.390625 11.816406 8.390625 Z M 11.816406 8.390625 "/>
<path style=" stroke:none;fill-rule:nonzero;fill:rgb(91.764706%,34.509805%,33.725491%);fill-opacity:1;" d="M 10.328125 10.46875 L 10.328125 10.175781 C 10.328125 10.195312 10.328125 10.210938 10.332031 10.230469 C 10.347656 10.351562 10.453125 10.429688 10.585938 10.429688 C 10.605469 10.429688 10.625 10.429688 10.648438 10.421875 C 10.773438 10.398438 10.84375 10.308594 10.84375 10.167969 L 10.84375 10.464844 C 10.84375 10.605469 10.773438 10.695312 10.648438 10.71875 C 10.628906 10.722656 10.605469 10.726562 10.585938 10.726562 C 10.453125 10.726562 10.347656 10.644531 10.332031 10.527344 C 10.328125 10.507812 10.328125 10.488281 10.328125 10.46875 Z M 10.328125 10.46875 "/>
<path style=" stroke:none;fill-rule:nonzero;fill:rgb(91.764706%,34.509805%,33.725491%);fill-opacity:1;" d="M 10.84375 10.167969 L 10.84375 10.464844 C 10.84375 10.472656 10.84375 10.480469 10.84375 10.488281 L 10.84375 10.191406 C 10.84375 10.183594 10.84375 10.175781 10.84375 10.167969 M 10.84375 10.191406 L 10.84375 10.488281 C 10.839844 10.550781 10.820312 10.601562 10.789062 10.640625 L 10.789062 10.347656 C 10.820312 10.308594 10.839844 10.257812 10.84375 10.191406 "/>
<path style=" stroke:none;fill-rule:nonzero;fill:rgb(91.764706%,34.509805%,33.725491%);fill-opacity:1;" d="M 10.789062 10.347656 L 10.789062 10.640625 C 10.773438 10.65625 10.757812 10.671875 10.738281 10.683594 L 10.738281 10.386719 C 10.757812 10.375 10.773438 10.363281 10.789062 10.347656 M 10.738281 10.386719 L 10.738281 10.683594 C 10.726562 10.691406 10.710938 10.699219 10.691406 10.707031 L 10.691406 10.410156 C 10.710938 10.40625 10.726562 10.398438 10.738281 10.386719 M 10.691406 10.410156 L 10.691406 10.707031 C 10.679688 10.710938 10.664062 10.714844 10.648438 10.71875 C 10.640625 10.71875 10.636719 10.722656 10.628906 10.722656 L 10.628906 10.425781 C 10.636719 10.425781 10.640625 10.425781 10.648438 10.421875 C 10.664062 10.421875 10.679688 10.417969 10.691406 10.410156 "/>
<path style=" stroke:none;fill-rule:nonzero;fill:rgb(91.764706%,34.509805%,33.725491%);fill-opacity:1;" d="M 10.628906 10.425781 L 10.628906 10.722656 C 10.613281 10.722656 10.597656 10.726562 10.585938 10.726562 C 10.453125 10.726562 10.347656 10.644531 10.332031 10.527344 C 10.328125 10.507812 10.328125 10.488281 10.328125 10.46875 L 10.328125 10.175781 C 10.328125 10.195312 10.328125 10.210938 10.332031 10.230469 C 10.347656 10.351562 10.453125 10.429688 10.585938 10.429688 C 10.597656 10.429688 10.613281 10.429688 10.628906 10.425781 "/>
<path style=" stroke:none;fill-rule:nonzero;fill:rgb(98.431373%,85.09804%,72.156864%);fill-opacity:1;" d="M 10.585938 6.792969 C 10.710938 6.792969 10.8125 6.867188 10.835938 6.972656 C 10.839844 7 10.84375 7.027344 10.84375 7.054688 C 10.84375 8.09375 10.84375 9.132812 10.84375 10.167969 C 10.84375 10.308594 10.773438 10.398438 10.648438 10.421875 C 10.625 10.429688 10.605469 10.429688 10.585938 10.429688 C 10.453125 10.429688 10.347656 10.351562 10.332031 10.230469 C 10.328125 10.195312 10.328125 10.164062 10.328125 10.128906 C 10.328125 9.621094 10.328125 9.113281 10.328125 8.609375 C 10.328125 8.085938 10.328125 7.5625 10.328125 7.042969 C 10.328125 6.890625 10.433594 6.792969 10.585938 6.792969 Z M 10.585938 6.792969 "/>
<path style=" stroke:none;fill-rule:nonzero;fill:rgb(91.764706%,34.509805%,33.725491%);fill-opacity:1;" d="M 7.855469 10.46875 L 7.855469 10.171875 C 7.855469 10.191406 7.855469 10.210938 7.855469 10.230469 C 7.867188 10.34375 7.972656 10.425781 8.101562 10.429688 C 8.105469 10.429688 8.109375 10.429688 8.113281 10.429688 C 8.238281 10.429688 8.34375 10.351562 8.359375 10.246094 C 8.367188 10.214844 8.367188 10.179688 8.367188 10.148438 L 8.367188 10.445312 C 8.367188 10.476562 8.367188 10.507812 8.359375 10.539062 C 8.34375 10.648438 8.238281 10.726562 8.113281 10.726562 C 8.109375 10.726562 8.105469 10.726562 8.101562 10.726562 C 7.972656 10.722656 7.867188 10.636719 7.855469 10.527344 C 7.855469 10.507812 7.855469 10.488281 7.855469 10.46875 Z M 7.855469 10.46875 "/>
<path style=" stroke:none;fill-rule:nonzero;fill:rgb(91.764706%,34.509805%,33.725491%);fill-opacity:1;" d="M 8.367188 10.195312 L 8.367188 10.492188 C 8.367188 10.507812 8.363281 10.523438 8.359375 10.539062 C 8.355469 10.578125 8.339844 10.609375 8.316406 10.636719 L 8.316406 10.34375 C 8.339844 10.316406 8.355469 10.28125 8.359375 10.246094 C 8.363281 10.230469 8.367188 10.210938 8.367188 10.195312 M 8.316406 10.34375 L 8.316406 10.636719 C 8.300781 10.65625 8.28125 10.671875 8.261719 10.683594 L 8.261719 10.390625 C 8.28125 10.375 8.300781 10.359375 8.316406 10.34375 "/>
<path style=" stroke:none;fill-rule:nonzero;fill:rgb(91.764706%,34.509805%,33.725491%);fill-opacity:1;" d="M 8.261719 10.390625 L 8.261719 10.683594 C 8.246094 10.695312 8.230469 10.703125 8.210938 10.707031 L 8.210938 10.414062 C 8.230469 10.40625 8.246094 10.398438 8.261719 10.390625 "/>
<path style=" stroke:none;fill-rule:nonzero;fill:rgb(91.764706%,34.509805%,33.725491%);fill-opacity:1;" d="M 8.210938 10.414062 L 8.210938 10.707031 C 8.191406 10.714844 8.171875 10.722656 8.152344 10.722656 L 8.152344 10.429688 C 8.171875 10.425781 8.191406 10.421875 8.210938 10.414062 M 8.152344 10.429688 L 8.152344 10.722656 C 8.136719 10.726562 8.121094 10.726562 8.101562 10.726562 C 7.972656 10.722656 7.867188 10.636719 7.855469 10.527344 C 7.855469 10.507812 7.855469 10.488281 7.855469 10.46875 L 7.855469 10.171875 C 7.855469 10.191406 7.855469 10.210938 7.855469 10.230469 C 7.867188 10.34375 7.972656 10.425781 8.101562 10.429688 C 8.121094 10.429688 8.136719 10.429688 8.152344 10.429688 "/>
<path style=" stroke:none;fill-rule:nonzero;fill:rgb(98.431373%,85.09804%,72.156864%);fill-opacity:1;" d="M 8.105469 6.792969 C 8.132812 6.792969 8.164062 6.796875 8.195312 6.808594 C 8.289062 6.835938 8.347656 6.894531 8.359375 6.980469 C 8.367188 7.011719 8.367188 7.042969 8.367188 7.074219 C 8.367188 8.101562 8.367188 9.125 8.367188 10.148438 C 8.367188 10.179688 8.367188 10.214844 8.359375 10.246094 C 8.34375 10.351562 8.238281 10.429688 8.113281 10.429688 C 8.109375 10.429688 8.105469 10.429688 8.101562 10.429688 C 7.972656 10.425781 7.867188 10.34375 7.855469 10.230469 C 7.851562 10.191406 7.855469 10.152344 7.855469 10.113281 L 7.855469 8.609375 C 7.855469 8.082031 7.855469 7.558594 7.855469 7.035156 C 7.855469 6.890625 7.96875 6.792969 8.105469 6.792969 Z M 8.105469 6.792969 "/>
<path style=" stroke:none;fill-rule:nonzero;fill:rgb(97.647059%,77.64706%,58.431375%);fill-opacity:1;" d="M 5.628906 5.226562 C 5.769531 5.226562 5.871094 5.3125 5.882812 5.429688 C 5.886719 5.457031 5.886719 5.484375 5.886719 5.511719 C 5.886719 7.332031 5.886719 9.148438 5.886719 10.96875 L 5.886719 11.066406 L 8.101562 11.066406 C 9.503906 11.066406 10.90625 11.066406 12.304688 11.066406 C 12.351562 11.066406 12.402344 11.066406 12.445312 11.078125 C 12.566406 11.105469 12.632812 11.191406 12.628906 11.300781 C 12.621094 11.40625 12.539062 11.488281 12.417969 11.503906 C 12.382812 11.507812 12.347656 11.507812 12.308594 11.507812 C 10.105469 11.507812 7.898438 11.511719 5.695312 11.507812 C 5.460938 11.507812 5.371094 11.429688 5.371094 11.226562 C 5.371094 9.320312 5.371094 7.414062 5.371094 5.507812 C 5.371094 5.476562 5.371094 5.445312 5.375 5.417969 C 5.394531 5.300781 5.496094 5.226562 5.628906 5.226562 Z M 5.628906 5.226562 "/>
<path style=" stroke:none;fill-rule:nonzero;fill:rgb(84.705883%,37.254903%,36.470589%);fill-opacity:1;" d="M 12.628906 11.289062 L 12.628906 11.582031 C 12.628906 11.589844 12.628906 11.59375 12.628906 11.597656 C 12.621094 11.699219 12.539062 11.78125 12.417969 11.796875 C 12.382812 11.804688 12.347656 11.804688 12.308594 11.804688 C 11.019531 11.804688 9.726562 11.804688 8.433594 11.804688 C 7.519531 11.804688 6.609375 11.804688 5.695312 11.804688 C 5.460938 11.804688 5.371094 11.726562 5.371094 11.523438 L 5.371094 11.226562 C 5.371094 11.429688 5.460938 11.507812 5.695312 11.507812 C 7.898438 11.507812 10.105469 11.507812 12.308594 11.507812 C 12.347656 11.507812 12.382812 11.507812 12.417969 11.503906 C 12.539062 11.488281 12.621094 11.40625 12.628906 11.300781 C 12.628906 11.296875 12.628906 11.292969 12.628906 11.289062 Z M 12.628906 11.289062 "/>
<path style=" stroke:none;fill-rule:nonzero;fill:rgb(84.705883%,37.254903%,36.470589%);fill-opacity:1;" d="M 12.628906 11.300781 L 12.628906 11.597656 C 12.625 11.640625 12.609375 11.679688 12.582031 11.714844 L 12.582031 11.417969 C 12.609375 11.386719 12.625 11.347656 12.628906 11.300781 "/>
<path style=" stroke:none;fill-rule:nonzero;fill:rgb(84.705883%,37.254903%,36.470589%);fill-opacity:1;" d="M 12.582031 11.417969 L 12.582031 11.714844 C 12.566406 11.730469 12.550781 11.746094 12.53125 11.757812 L 12.53125 11.464844 C 12.550781 11.453125 12.566406 11.4375 12.582031 11.417969 "/>
<path style=" stroke:none;fill-rule:nonzero;fill:rgb(84.705883%,37.254903%,36.470589%);fill-opacity:1;" d="M 12.53125 11.464844 L 12.53125 11.757812 C 12.515625 11.769531 12.496094 11.777344 12.480469 11.785156 L 12.480469 11.488281 C 12.496094 11.480469 12.515625 11.472656 12.53125 11.464844 M 12.480469 11.488281 L 12.480469 11.785156 C 12.460938 11.789062 12.441406 11.796875 12.417969 11.796875 L 12.417969 11.503906 C 12.441406 11.5 12.460938 11.496094 12.480469 11.488281 M 12.417969 11.503906 L 12.417969 11.796875 C 12.382812 11.804688 12.34375 11.804688 12.308594 11.804688 C 11.019531 11.804688 9.726562 11.804688 8.433594 11.804688 C 7.519531 11.804688 6.609375 11.804688 5.695312 11.804688 C 5.460938 11.804688 5.371094 11.726562 5.371094 11.523438 L 5.371094 11.226562 C 5.371094 11.429688 5.460938 11.507812 5.695312 11.507812 C 7.898438 11.507812 10.105469 11.507812 12.308594 11.507812 C 12.34375 11.507812 12.382812 11.507812 12.417969 11.503906 "/>
</g>
</svg>
