<?xml version="1.0" encoding="UTF-8"?>
<svg xmlns="http://www.w3.org/2000/svg" xmlns:xlink="http://www.w3.org/1999/xlink" width="32px" height="32px" viewBox="0 0 32 32" version="1.1">
<g id="surface1">
<path style=" stroke:none;fill-rule:nonzero;fill:rgb(3.529412%,14.117648%,29.411766%);fill-opacity:1;" d="M 3.875 9 C 7.742188 2.304688 16.304688 0.0078125 23 3.875 C 28.027344 6.777344 30.570312 12.324219 29.894531 17.734375 C 29.820312 18.332031 29.707031 18.929688 29.554688 19.519531 C 29.128906 21.152344 27.140625 21.609375 26.007812 20.511719 L 25.882812 20.378906 L 22.882812 16.929688 C 21.542969 15.394531 22.914062 13.078125 24.851562 13.425781 L 25.03125 13.464844 L 25.71875 13.644531 C 25.097656 11.078125 23.464844 8.761719 21 7.339844 C 16.21875 4.578125 10.101562 6.21875 7.339844 11 C 4.578125 15.78125 6.21875 21.898438 11 24.660156 C 14.980469 26.957031 19.886719 26.210938 23.011719 23.136719 C 23.796875 22.359375 25.066406 22.371094 25.839844 23.15625 C 26.613281 23.945312 26.605469 25.210938 25.816406 25.984375 C 21.441406 30.289062 14.578125 31.34375 9 28.125 C 2.304688 24.257812 0.0078125 15.695312 3.875 9 Z M 16 7.332031 C 17.039062 7.332031 17.894531 8.125 17.992188 9.140625 L 18 9.332031 L 18 15.171875 L 20.746094 17.917969 C 21.527344 18.699219 21.527344 19.964844 20.746094 20.746094 C 20.015625 21.480469 18.855469 21.527344 18.070312 20.882812 L 17.917969 20.746094 L 14.585938 17.414062 C 14.257812 17.085938 14.054688 16.65625 14.011719 16.199219 L 14 16 L 14 9.332031 C 14 8.230469 14.894531 7.332031 16 7.332031 Z M 16 7.332031 "/>
</g>
</svg>
