<?xml version="1.0" encoding="UTF-8"?>
<svg xmlns="http://www.w3.org/2000/svg" xmlns:xlink="http://www.w3.org/1999/xlink" width="32px" height="800px" viewBox="0 0 32 32" version="1.1">
<g id="surface1">
<path style=" stroke:none;fill-rule:nonzero;fill:rgb(95.686275%,62.7451%,14.901961%);fill-opacity:1;" d="M 1.292969 16 L 11.757812 23.960938 L 10.9375 18.378906 L 23.242188 18.378906 L 23.242188 13.457031 L 10.9375 13.457031 L 11.757812 8.039062 Z M 1.292969 16 "/>
<path style=" stroke:none;fill-rule:nonzero;fill:rgb(38.039216%,67.450982%,82.352942%);fill-opacity:1;" d="M 7.570312 27.898438 L 27.425781 27.898438 L 27.425781 4.101562 L 7.570312 4.101562 L 7.570312 0.820312 L 29.070312 0.820312 C 29.976562 0.820312 30.707031 1.554688 30.707031 2.460938 L 30.707031 29.539062 C 30.707031 30.445312 29.976562 31.179688 29.070312 31.179688 L 7.570312 31.179688 Z M 7.570312 27.898438 "/>
<path style=" stroke:none;fill-rule:nonzero;fill:rgb(0%,0%,0%);fill-opacity:1;" d="M 11.757812 24.78125 C 11.902344 24.78125 12.046875 24.742188 12.175781 24.664062 C 12.460938 24.496094 12.617188 24.167969 12.570312 23.839844 L 11.886719 19.199219 L 23.28125 19.199219 C 23.734375 19.199219 24.0625 18.832031 24.0625 18.378906 L 24.0625 13.457031 C 24.0625 13.003906 23.734375 12.636719 23.28125 12.636719 L 11.890625 12.636719 L 12.570312 8.164062 C 12.621094 7.832031 12.464844 7.503906 12.175781 7.335938 C 11.890625 7.164062 11.527344 7.183594 11.261719 7.386719 L 0.796875 15.347656 C 0.589844 15.503906 0.472656 15.742188 0.472656 16 C 0.472656 16.257812 0.589844 16.496094 0.796875 16.652344 L 11.261719 24.613281 C 11.40625 24.722656 11.582031 24.78125 11.757812 24.78125 Z M 10.125 18.5 L 10.652344 22.089844 L 2.648438 16 L 10.644531 9.917969 L 10.125 13.332031 C 10.089844 13.570312 10.160156 13.808594 10.316406 13.992188 C 10.472656 14.171875 10.699219 14.277344 10.9375 14.277344 L 22.421875 14.277344 L 22.421875 17.558594 L 10.9375 17.558594 C 10.699219 17.558594 10.472656 17.664062 10.316406 17.84375 C 10.160156 18.023438 10.089844 18.261719 10.125 18.5 Z M 10.125 18.5 "/>
<path style=" stroke:none;fill-rule:nonzero;fill:rgb(0%,0%,0%);fill-opacity:1;" d="M 29.070312 0 L 7.609375 0 C 7.15625 0 6.75 0.367188 6.75 0.820312 L 6.75 4.101562 C 6.75 4.554688 7.15625 4.921875 7.609375 4.921875 L 26.605469 4.921875 L 26.605469 27.078125 L 7.609375 27.078125 C 7.15625 27.078125 6.75 27.445312 6.75 27.898438 L 6.75 31.179688 C 6.75 31.632812 7.15625 32 7.609375 32 L 29.070312 32 C 30.449219 32 31.527344 30.894531 31.527344 29.539062 L 31.527344 2.460938 C 31.527344 1.105469 30.449219 0 29.070312 0 Z M 29.886719 29.539062 C 29.886719 29.984375 29.535156 30.359375 29.070312 30.359375 L 8.390625 30.359375 L 8.390625 28.71875 L 27.464844 28.71875 C 27.917969 28.71875 28.246094 28.351562 28.246094 27.898438 L 28.246094 4.101562 C 28.246094 3.648438 27.917969 3.28125 27.464844 3.28125 L 8.390625 3.28125 L 8.390625 1.640625 L 29.070312 1.640625 C 29.535156 1.640625 29.886719 2.015625 29.886719 2.460938 Z M 29.886719 29.539062 "/>
</g>
</svg>
