<?xml version="1.0" encoding="UTF-8"?>
<svg xmlns="http://www.w3.org/2000/svg" xmlns:xlink="http://www.w3.org/1999/xlink" width="64px" height="64px" viewBox="0 0 64 64" version="1.1">
<defs>
<filter id="alpha" filterUnits="objectBoundingBox" x="0%" y="0%" width="100%" height="100%">
  <feColorMatrix type="matrix" in="SourceGraphic" values="0 0 0 0 1 0 0 0 0 1 0 0 0 0 1 0 0 0 1 0"/>
</filter>
<mask id="mask0">
  <g filter="url(#alpha)">
<rect x="0" y="0" width="64" height="64" style="fill:rgb(0%,0%,0%);fill-opacity:0.2;stroke:none;"/>
  </g>
</mask>
<clipPath id="clip1">
  <rect x="0" y="0" width="64" height="64"/>
</clipPath>
<g id="surface5" clip-path="url(#clip1)">
<path style=" stroke:none;fill-rule:nonzero;fill:rgb(13.725491%,12.156863%,12.54902%);fill-opacity:1;" d="M 44 48 C 44 50.199219 42.199219 52 40 52 L 24 52 C 21.800781 52 20 50.199219 20 48 L 20 16 C 20 13.800781 21.800781 12 24 12 L 40 12 C 42.199219 12 44 13.800781 44 16 Z M 44 48 "/>
</g>
<mask id="mask1">
  <g filter="url(#alpha)">
<rect x="0" y="0" width="64" height="64" style="fill:rgb(0%,0%,0%);fill-opacity:0.2;stroke:none;"/>
  </g>
</mask>
<clipPath id="clip2">
  <rect x="0" y="0" width="64" height="64"/>
</clipPath>
<g id="surface8" clip-path="url(#clip2)">
<path style=" stroke:none;fill-rule:nonzero;fill:rgb(100%,100%,100%);fill-opacity:1;" d="M 26.199219 11.5 L 42 49.601562 L 42 11.5 Z M 26.199219 11.5 "/>
</g>
</defs>
<g id="surface1">
<path style=" stroke:none;fill-rule:nonzero;fill:rgb(87.843138%,60.000002%,36.862746%);fill-opacity:1;" d="M 64 32 C 64 14.328125 49.671875 0 32 0 C 14.328125 0 0 14.328125 0 32 C 0 49.671875 14.328125 64 32 64 C 49.671875 64 64 49.671875 64 32 Z M 64 32 "/>
<use xlink:href="#surface5" mask="url(#mask0)"/>
<path style=" stroke:none;fill-rule:nonzero;fill:rgb(30.980393%,36.470589%,45.09804%);fill-opacity:1;" d="M 24 48.5 C 22.601562 48.5 21.5 47.398438 21.5 46 L 21.5 14 C 21.5 12.601562 22.601562 11.5 24 11.5 L 40 11.5 C 41.398438 11.5 42.5 12.601562 42.5 14 L 42.5 46 C 42.5 47.398438 41.398438 48.5 40 48.5 Z M 24 48.5 "/>
<path style=" stroke:none;fill-rule:nonzero;fill:rgb(100%,100%,100%);fill-opacity:1;" d="M 40 13 C 40.601562 13 41 13.398438 41 14 L 41 46 C 41 46.601562 40.601562 47 40 47 L 24 47 C 23.398438 47 23 46.601562 23 46 L 23 14 C 23 13.398438 23.398438 13 24 13 L 40 13 M 40 10 L 24 10 C 21.800781 10 20 11.800781 20 14 L 20 46 C 20 48.199219 21.800781 50 24 50 L 40 50 C 42.199219 50 44 48.199219 44 46 L 44 14 C 44 11.800781 42.199219 10 40 10 Z M 40 10 "/>
<use xlink:href="#surface8" mask="url(#mask1)"/>
<path style=" stroke:none;fill-rule:nonzero;fill:rgb(100%,100%,100%);fill-opacity:1;" d="M 40 50 L 24 50 L 20 42 L 44 42 Z M 40 50 "/>
<path style=" stroke:none;fill-rule:nonzero;fill:rgb(87.843138%,87.843138%,81.960785%);fill-opacity:1;" d="M 34 46 C 34 44.894531 33.105469 44 32 44 C 30.894531 44 30 44.894531 30 46 C 30 47.105469 30.894531 48 32 48 C 33.105469 48 34 47.105469 34 46 Z M 34 46 "/>
</g>
</svg>
