<?xml version="1.0" encoding="UTF-8"?>
<svg xmlns="http://www.w3.org/2000/svg" xmlns:xlink="http://www.w3.org/1999/xlink" width="32px" height="32px" viewBox="0 0 32 32" version="1.1">
<g id="surface1">
<path style=" stroke:none;fill-rule:nonzero;fill:rgb(100%,100%,100%);fill-opacity:1;" d="M 22.507812 28.480469 L 22.507812 31.347656 L 16.894531 31.347656 C 16.484375 31.347656 16.152344 31.011719 16.152344 30.601562 L 16.152344 28.480469 Z M 22.507812 28.480469 "/>
<path style=" stroke:none;fill-rule:nonzero;fill:rgb(100%,100%,100%);fill-opacity:1;" d="M 28.867188 28.480469 L 28.867188 30.601562 C 28.867188 31.015625 28.535156 31.347656 28.125 31.347656 L 22.507812 31.347656 L 22.507812 28.480469 Z M 28.867188 28.480469 "/>
<path style=" stroke:none;fill-rule:nonzero;fill:rgb(100%,100%,100%);fill-opacity:1;" d="M 28.867188 11.203125 L 28.867188 13.328125 L 19.164062 13.328125 L 19.164062 10.460938 L 28.125 10.460938 C 28.535156 10.460938 28.867188 10.792969 28.867188 11.203125 Z M 28.867188 11.203125 "/>
<path style=" stroke:none;fill-rule:nonzero;fill:rgb(100%,100%,100%);fill-opacity:1;" d="M 19.164062 3.023438 L 19.164062 4.050781 L 3.132812 4.050781 L 3.132812 3.023438 C 3.132812 1.714844 4.1875 0.652344 5.488281 0.652344 L 16.808594 0.652344 C 18.109375 0.652344 19.164062 1.714844 19.164062 3.023438 Z M 19.164062 3.023438 "/>
<path style=" stroke:none;fill-rule:nonzero;fill:rgb(100%,100%,100%);fill-opacity:1;" d="M 5.574219 23.453125 L 19.164062 23.453125 L 19.164062 24.621094 C 19.164062 25.929688 18.109375 26.992188 16.808594 26.992188 L 5.488281 26.992188 C 4.1875 26.992188 3.132812 25.929688 3.132812 24.621094 L 3.132812 23.453125 Z M 5.574219 23.453125 "/>
<path style=" stroke:none;fill-rule:nonzero;fill:rgb(57.254905%,87.843138%,24.705882%);fill-opacity:1;" d="M 28.515625 13.328125 L 19.164062 13.328125 L 19.164062 24.621094 C 19.164062 25.929688 18.109375 26.992188 16.808594 26.992188 L 16.152344 26.992188 L 16.152344 28.480469 L 28.867188 28.480469 L 28.867188 13.328125 Z M 28.515625 13.328125 "/>
<path style=" stroke:none;fill-rule:nonzero;fill:rgb(6.27451%,72.941178%,98.823529%);fill-opacity:1;" d="M 17.175781 4.050781 L 3.132812 4.050781 L 3.132812 23.453125 L 19.164062 23.453125 L 19.164062 4.050781 Z M 17.175781 4.050781 "/>
<path style=" stroke:none;fill-rule:nonzero;fill:rgb(0%,0%,0%);fill-opacity:1;" d="M 28.125 9.804688 L 19.816406 9.804688 L 19.816406 3.023438 C 19.816406 1.355469 18.46875 0 16.808594 0 L 5.488281 0 C 3.832031 0 2.480469 1.355469 2.480469 3.023438 L 2.480469 24.621094 C 2.480469 26.289062 3.832031 27.644531 5.488281 27.644531 L 15.5 27.644531 L 15.5 30.601562 C 15.5 31.375 16.125 32 16.894531 32 L 28.125 32 C 28.894531 32 29.519531 31.375 29.519531 30.601562 L 29.519531 11.203125 C 29.519531 10.433594 28.894531 9.804688 28.125 9.804688 Z M 28.125 11.113281 C 28.171875 11.113281 28.210938 11.152344 28.210938 11.203125 L 28.210938 12.675781 L 19.816406 12.675781 L 19.816406 11.113281 Z M 3.789062 4.703125 L 18.511719 4.703125 L 18.511719 22.800781 L 3.789062 22.800781 Z M 3.789062 3.023438 C 3.789062 2.078125 4.550781 1.304688 5.488281 1.304688 L 16.808594 1.304688 C 17.746094 1.304688 18.511719 2.078125 18.511719 3.023438 L 18.511719 3.398438 L 3.789062 3.398438 Z M 3.789062 24.621094 L 3.789062 24.105469 L 18.511719 24.105469 L 18.511719 24.621094 C 18.511719 25.570312 17.746094 26.339844 16.808594 26.339844 L 5.488281 26.339844 C 4.550781 26.339844 3.789062 25.570312 3.789062 24.621094 Z M 16.808594 27.644531 C 18.46875 27.644531 19.816406 26.289062 19.816406 24.621094 L 19.816406 13.980469 L 28.210938 13.980469 L 28.210938 27.824219 L 16.808594 27.824219 Z M 16.808594 30.601562 L 16.808594 29.132812 L 21.855469 29.132812 L 21.855469 30.695312 L 16.894531 30.695312 C 16.84375 30.695312 16.808594 30.652344 16.808594 30.601562 Z M 28.210938 30.601562 C 28.210938 30.652344 28.171875 30.695312 28.125 30.695312 L 23.164062 30.695312 L 23.164062 29.132812 L 28.210938 29.132812 Z M 28.210938 30.601562 "/>
<path style=" stroke:none;fill-rule:nonzero;fill:rgb(0%,0%,0%);fill-opacity:1;" d="M 11.148438 24.128906 C 10.546875 24.128906 10.058594 24.621094 10.058594 25.222656 C 10.058594 25.824219 10.546875 26.316406 11.148438 26.316406 C 11.75 26.316406 12.238281 25.824219 12.238281 25.222656 C 12.238281 24.621094 11.75 24.128906 11.148438 24.128906 Z M 11.148438 25.4375 C 11.03125 25.4375 10.933594 25.339844 10.933594 25.222656 C 10.933594 25.105469 11.03125 25.007812 11.148438 25.007812 C 11.269531 25.007812 11.367188 25.105469 11.367188 25.222656 C 11.367188 25.339844 11.269531 25.4375 11.148438 25.4375 Z M 11.148438 25.4375 "/>
<path style=" stroke:none;fill-rule:nonzero;fill:rgb(0%,0%,0%);fill-opacity:1;" d="M 6.660156 10.519531 C 6.300781 10.519531 6.007812 10.8125 6.007812 11.171875 L 6.007812 20.507812 C 6.007812 20.867188 6.300781 21.160156 6.660156 21.160156 C 7.023438 21.160156 7.3125 20.867188 7.3125 20.507812 L 7.3125 11.171875 C 7.3125 10.8125 7.023438 10.519531 6.660156 10.519531 Z M 6.660156 10.519531 "/>
<path style=" stroke:none;fill-rule:nonzero;fill:rgb(0%,0%,0%);fill-opacity:1;" d="M 6.660156 7.066406 C 6.300781 7.066406 6.007812 7.359375 6.007812 7.722656 L 6.007812 9.203125 C 6.007812 9.5625 6.300781 9.855469 6.660156 9.855469 C 7.023438 9.855469 7.3125 9.5625 7.3125 9.203125 L 7.3125 7.722656 C 7.3125 7.359375 7.023438 7.066406 6.660156 7.066406 Z M 6.660156 7.066406 "/>
</g>
</svg>
