<?xml version="1.0" encoding="UTF-8"?>
<svg xmlns="http://www.w3.org/2000/svg" xmlns:xlink="http://www.w3.org/1999/xlink" width="32px" height="32px" viewBox="0 0 32 32" version="1.1">
<g id="surface1">
<path style=" stroke:none;fill-rule:nonzero;fill:rgb(23.529412%,57.254905%,79.215688%);fill-opacity:1;" d="M 1.972656 16 C 1.972656 16.359375 2.257812 16.644531 2.617188 16.644531 C 2.972656 16.644531 3.257812 16.359375 3.257812 16 C 3.257812 9.046875 8.867188 3.378906 15.792969 3.265625 L 14.914062 4.144531 C 14.660156 4.398438 14.660156 4.800781 14.914062 5.054688 C 15.039062 5.179688 15.207031 5.242188 15.367188 5.242188 C 15.53125 5.242188 15.699219 5.179688 15.824219 5.054688 L 17.800781 3.078125 C 18.054688 2.824219 18.054688 2.421875 17.800781 2.167969 L 15.824219 0.191406 C 15.570312 -0.0625 15.167969 -0.0625 14.914062 0.191406 C 14.660156 0.445312 14.660156 0.847656 14.914062 1.101562 L 15.796875 1.984375 C 8.15625 2.082031 1.972656 8.332031 1.972656 16 Z M 1.972656 16 "/>
<path style=" stroke:none;fill-rule:nonzero;fill:rgb(23.529412%,57.254905%,79.215688%);fill-opacity:1;" d="M 29.382812 15.355469 C 29.027344 15.355469 28.742188 15.644531 28.742188 16 C 28.742188 22.953125 23.132812 28.625 16.207031 28.734375 L 17.085938 27.855469 C 17.339844 27.601562 17.339844 27.199219 17.085938 26.945312 C 16.832031 26.691406 16.429688 26.691406 16.175781 26.945312 L 14.199219 28.921875 C 14.074219 29.046875 14.011719 29.210938 14.011719 29.378906 C 14.011719 29.546875 14.074219 29.710938 14.199219 29.835938 L 16.175781 31.8125 C 16.300781 31.933594 16.46875 32 16.632812 32 C 16.792969 32 16.960938 31.933594 17.085938 31.8125 C 17.339844 31.558594 17.339844 31.15625 17.085938 30.902344 L 16.203125 30.015625 C 23.84375 29.917969 30.027344 23.667969 30.027344 16 C 30.027344 15.644531 29.742188 15.355469 29.382812 15.355469 Z M 29.382812 15.355469 "/>
<path style=" stroke:none;fill-rule:nonzero;fill:rgb(17.254902%,18.431373%,20%);fill-opacity:1;" d="M 14.414062 12.171875 C 13.390625 12.59375 12.59375 13.394531 12.167969 14.414062 C 11.746094 15.433594 11.746094 16.566406 12.167969 17.585938 C 12.8125 19.140625 14.316406 20.148438 16 20.148438 C 16.546875 20.148438 17.078125 20.046875 17.585938 19.832031 C 18.609375 19.410156 19.40625 18.609375 19.832031 17.585938 C 20.253906 16.566406 20.253906 15.433594 19.832031 14.414062 C 19.1875 12.859375 17.683594 11.851562 16 11.851562 C 15.453125 11.851562 14.921875 11.960938 14.414062 12.171875 Z M 18.640625 14.90625 C 18.933594 15.617188 18.933594 16.390625 18.640625 17.101562 C 18.347656 17.808594 17.800781 18.355469 17.09375 18.648438 C 16.742188 18.789062 16.378906 18.867188 16 18.867188 C 14.835938 18.867188 13.800781 18.171875 13.359375 17.101562 C 13.066406 16.390625 13.066406 15.617188 13.359375 14.90625 C 13.652344 14.199219 14.199219 13.652344 14.90625 13.359375 C 15.257812 13.21875 15.621094 13.140625 16 13.140625 C 17.15625 13.140625 18.199219 13.835938 18.640625 14.90625 Z M 18.640625 14.90625 "/>
<path style=" stroke:none;fill-rule:nonzero;fill:rgb(17.254902%,18.431373%,20%);fill-opacity:1;" d="M 17.300781 7.421875 L 17.035156 8.066406 C 16.351562 7.976562 15.65625 7.976562 14.972656 8.066406 L 14.707031 7.421875 C 14.484375 6.890625 13.964844 6.542969 13.386719 6.542969 C 13.195312 6.542969 13.015625 6.582031 12.839844 6.65625 L 11.621094 7.15625 C 11.273438 7.296875 11 7.578125 10.847656 7.929688 C 10.707031 8.28125 10.707031 8.671875 10.847656 9.023438 L 11.117188 9.667969 C 10.570312 10.089844 10.074219 10.578125 9.660156 11.121094 L 9.015625 10.855469 C 8.839844 10.785156 8.65625 10.746094 8.46875 10.746094 C 7.890625 10.746094 7.371094 11.089844 7.148438 11.625 L 6.648438 12.839844 C 6.503906 13.191406 6.503906 13.582031 6.648438 13.933594 C 6.789062 14.285156 7.070312 14.558594 7.421875 14.707031 L 8.066406 14.972656 C 7.972656 15.664062 7.972656 16.351562 8.066406 17.035156 L 7.421875 17.300781 C 7.070312 17.445312 6.796875 17.722656 6.648438 18.074219 C 6.503906 18.425781 6.503906 18.816406 6.648438 19.167969 L 7.148438 20.382812 C 7.371094 20.917969 7.890625 21.261719 8.46875 21.261719 C 8.65625 21.261719 8.839844 21.222656 9.015625 21.152344 L 9.660156 20.886719 C 10.082031 21.429688 10.570312 21.925781 11.117188 22.34375 L 10.847656 22.984375 C 10.550781 23.714844 10.894531 24.546875 11.621094 24.847656 L 12.839844 25.347656 C 13.015625 25.417969 13.195312 25.457031 13.386719 25.457031 C 13.964844 25.457031 14.484375 25.113281 14.707031 24.578125 L 14.972656 23.933594 C 15.65625 24.027344 16.351562 24.027344 17.035156 23.933594 L 17.300781 24.578125 C 17.523438 25.113281 18.042969 25.457031 18.621094 25.457031 C 18.808594 25.457031 18.992188 25.417969 19.167969 25.347656 L 20.382812 24.847656 C 20.734375 24.703125 21.007812 24.421875 21.15625 24.070312 C 21.300781 23.722656 21.300781 23.332031 21.15625 22.980469 L 20.890625 22.335938 C 21.4375 21.914062 21.929688 21.425781 22.347656 20.878906 L 22.992188 21.144531 C 23.167969 21.21875 23.347656 21.253906 23.539062 21.253906 C 24.117188 21.253906 24.636719 20.910156 24.859375 20.378906 L 25.359375 19.160156 C 25.5 18.808594 25.5 18.421875 25.359375 18.070312 C 25.214844 17.71875 24.9375 17.445312 24.585938 17.296875 L 23.941406 17.027344 C 24.03125 16.339844 24.03125 15.648438 23.941406 14.964844 L 24.585938 14.699219 C 24.9375 14.558594 25.210938 14.277344 25.359375 13.925781 C 25.5 13.574219 25.5 13.183594 25.359375 12.832031 L 24.859375 11.617188 C 24.636719 11.085938 24.117188 10.738281 23.539062 10.738281 C 23.347656 10.738281 23.167969 10.777344 22.992188 10.851562 L 22.347656 11.117188 C 21.925781 10.570312 21.4375 10.074219 20.890625 9.660156 L 21.15625 9.015625 C 21.300781 8.664062 21.300781 8.273438 21.15625 7.921875 C 21.015625 7.570312 20.734375 7.296875 20.382812 7.148438 L 19.167969 6.648438 C 18.992188 6.578125 18.808594 6.539062 18.621094 6.539062 C 18.042969 6.539062 17.523438 6.882812 17.300781 7.421875 Z M 18.027344 9.027344 L 18.492188 7.910156 C 18.515625 7.84375 18.574219 7.824219 18.621094 7.824219 C 18.640625 7.824219 18.652344 7.832031 18.671875 7.839844 L 19.890625 8.339844 C 19.933594 8.359375 19.953125 8.390625 19.960938 8.410156 C 19.972656 8.4375 19.980469 8.476562 19.960938 8.515625 L 19.5 9.632812 C 19.382812 9.917969 19.480469 10.246094 19.734375 10.414062 C 20.46875 10.910156 21.09375 11.527344 21.582031 12.261719 C 21.75 12.515625 22.082031 12.617188 22.359375 12.5 L 23.480469 12.039062 C 23.5 12.035156 23.511719 12.027344 23.53125 12.027344 C 23.578125 12.027344 23.636719 12.046875 23.660156 12.113281 L 24.164062 13.328125 C 24.1875 13.398438 24.15625 13.476562 24.089844 13.511719 L 22.972656 13.972656 C 22.6875 14.089844 22.53125 14.386719 22.589844 14.695312 C 22.765625 15.558594 22.757812 16.4375 22.589844 17.308594 C 22.53125 17.605469 22.691406 17.914062 22.972656 18.03125 L 24.089844 18.492188 C 24.136719 18.511719 24.15625 18.542969 24.164062 18.5625 C 24.175781 18.589844 24.183594 18.628906 24.164062 18.667969 L 23.660156 19.882812 C 23.636719 19.949219 23.578125 19.96875 23.53125 19.96875 C 23.511719 19.96875 23.5 19.960938 23.480469 19.957031 L 22.359375 19.492188 C 22.074219 19.375 21.75 19.472656 21.582031 19.726562 C 21.085938 20.460938 20.46875 21.085938 19.734375 21.574219 C 19.480469 21.742188 19.375 22.074219 19.492188 22.355469 L 19.953125 23.472656 C 19.972656 23.519531 19.96875 23.558594 19.953125 23.578125 C 19.941406 23.605469 19.921875 23.636719 19.875 23.648438 L 18.660156 24.148438 C 18.640625 24.15625 18.628906 24.164062 18.609375 24.164062 C 18.5625 24.164062 18.503906 24.144531 18.476562 24.078125 L 18.015625 22.960938 C 17.910156 22.710938 17.679688 22.5625 17.425781 22.5625 C 17.386719 22.5625 17.339844 22.570312 17.300781 22.574219 C 16.441406 22.746094 15.550781 22.746094 14.6875 22.574219 C 14.386719 22.515625 14.082031 22.679688 13.964844 22.960938 L 13.503906 24.078125 C 13.476562 24.144531 13.417969 24.164062 13.371094 24.164062 C 13.351562 24.164062 13.339844 24.15625 13.320312 24.148438 L 12.105469 23.648438 C 12.03125 23.625 12 23.539062 12.03125 23.46875 L 12.496094 22.347656 C 12.613281 22.0625 12.515625 21.738281 12.261719 21.566406 C 11.527344 21.074219 10.902344 20.457031 10.414062 19.722656 C 10.246094 19.46875 9.914062 19.363281 9.632812 19.480469 L 8.515625 19.941406 C 8.496094 19.949219 8.480469 19.957031 8.460938 19.957031 C 8.417969 19.957031 8.359375 19.9375 8.332031 19.871094 L 7.832031 18.65625 C 7.8125 18.609375 7.816406 18.570312 7.832031 18.550781 C 7.84375 18.523438 7.863281 18.492188 7.902344 18.480469 L 9.019531 18.015625 C 9.308594 17.898438 9.464844 17.601562 9.40625 17.296875 C 9.230469 16.429688 9.234375 15.550781 9.40625 14.679688 C 9.464844 14.382812 9.300781 14.074219 9.019531 13.957031 L 7.902344 13.496094 C 7.855469 13.476562 7.835938 13.445312 7.832031 13.425781 C 7.816406 13.398438 7.8125 13.359375 7.832031 13.320312 L 8.332031 12.105469 C 8.359375 12.039062 8.417969 12.019531 8.460938 12.019531 C 8.480469 12.019531 8.496094 12.027344 8.515625 12.035156 L 9.632812 12.496094 C 9.917969 12.613281 10.246094 12.515625 10.414062 12.261719 C 10.90625 11.527344 11.527344 10.902344 12.261719 10.414062 C 12.515625 10.246094 12.617188 9.914062 12.5 9.632812 L 12.039062 8.515625 C 12.019531 8.46875 12.027344 8.429688 12.039062 8.410156 C 12.050781 8.386719 12.070312 8.351562 12.117188 8.332031 L 13.332031 7.832031 C 13.351562 7.824219 13.367188 7.820312 13.386719 7.820312 C 13.429688 7.820312 13.488281 7.839844 13.515625 7.902344 L 13.976562 9.023438 C 14.09375 9.308594 14.398438 9.464844 14.699219 9.40625 C 15.558594 9.238281 16.449219 9.238281 17.3125 9.40625 C 17.605469 9.472656 17.910156 9.316406 18.027344 9.027344 Z M 18.027344 9.027344 "/>
</g>
</svg>
