<?xml version="1.0" encoding="UTF-8"?>
<svg xmlns="http://www.w3.org/2000/svg" xmlns:xlink="http://www.w3.org/1999/xlink" width="80px" height="80px" viewBox="0 0 80 80" version="1.1">
<g id="surface1">
<path style=" stroke:none;fill-rule:nonzero;fill:rgb(62.7451%,83.137256%,40.784314%);fill-opacity:1;" d="M 43.535156 56.5 L 40 52.964844 C 39.347656 52.316406 39.347656 51.257812 40 50.605469 C 40.648438 49.957031 41.707031 49.957031 42.355469 50.605469 L 45.890625 54.144531 L 80 20.035156 L 71.75 11.785156 C 71.097656 12.4375 70.042969 12.4375 69.390625 11.785156 C 68.742188 11.136719 68.742188 10.078125 69.390625 9.429688 L 68.214844 8.25 C 67.5625 8.902344 66.507812 8.902344 65.855469 8.25 C 65.207031 7.597656 65.207031 6.542969 65.855469 5.894531 L 59.964844 0 L 0 59.964844 L 5.890625 65.859375 C 6.542969 65.207031 7.597656 65.207031 8.25 65.859375 C 8.898438 66.507812 8.898438 67.5625 8.25 68.214844 L 9.425781 69.394531 C 10.078125 68.742188 11.132812 68.742188 11.785156 69.394531 C 12.433594 70.042969 12.4375 71.097656 11.785156 71.75 L 20.035156 80 Z M 43.535156 56.5 "/>
<path style=" stroke:none;fill-rule:nonzero;fill:rgb(54.901963%,75.686276%,32.549021%);fill-opacity:1;" d="M 40 52.964844 L 16.5 76.464844 L 20.035156 80 L 43.535156 56.5 Z M 40 52.964844 "/>
<path style=" stroke:none;fill-rule:nonzero;fill:rgb(54.901963%,75.686276%,32.549021%);fill-opacity:1;" d="M 42.355469 50.605469 L 45.890625 54.144531 L 80 20.035156 L 76.464844 16.5 Z M 42.355469 50.605469 "/>
<path style=" stroke:none;fill-rule:nonzero;fill:rgb(100%,80.784315%,32.941177%);fill-opacity:1;" d="M 75.355469 22.324219 C 74.703125 22.972656 74.703125 24.03125 75.355469 24.679688 L 77.710938 22.324219 C 77.0625 21.671875 76.007812 21.671875 75.355469 22.324219 Z M 75.355469 22.324219 "/>
<path style=" stroke:none;fill-rule:nonzero;fill:rgb(100%,80.784315%,32.941177%);fill-opacity:1;" d="M 71.820312 25.859375 C 71.167969 26.507812 71.167969 27.566406 71.820312 28.214844 L 74.175781 25.859375 C 73.523438 25.207031 72.46875 25.207031 71.820312 25.859375 Z M 71.820312 25.859375 "/>
<path style=" stroke:none;fill-rule:nonzero;fill:rgb(100%,80.784315%,32.941177%);fill-opacity:1;" d="M 68.285156 29.394531 C 67.632812 30.046875 67.632812 31.101562 68.285156 31.75 L 70.640625 29.394531 C 69.992188 28.742188 68.9375 28.742188 68.285156 29.394531 Z M 68.285156 29.394531 "/>
<path style=" stroke:none;fill-rule:nonzero;fill:rgb(100%,80.784315%,32.941177%);fill-opacity:1;" d="M 64.75 32.929688 C 64.097656 33.582031 64.097656 34.636719 64.75 35.285156 L 67.105469 32.929688 C 66.453125 32.277344 65.398438 32.277344 64.75 32.929688 Z M 64.75 32.929688 "/>
<path style=" stroke:none;fill-rule:nonzero;fill:rgb(100%,80.784315%,32.941177%);fill-opacity:1;" d="M 61.214844 36.464844 C 60.5625 37.117188 60.5625 38.171875 61.214844 38.820312 L 63.570312 36.464844 C 62.921875 35.8125 61.863281 35.8125 61.214844 36.464844 Z M 61.214844 36.464844 "/>
<path style=" stroke:none;fill-rule:nonzero;fill:rgb(100%,80.784315%,32.941177%);fill-opacity:1;" d="M 57.675781 40 C 57.027344 40.652344 57.027344 41.707031 57.675781 42.355469 L 60.035156 40 C 59.382812 39.347656 58.328125 39.347656 57.675781 40 Z M 57.675781 40 "/>
<path style=" stroke:none;fill-rule:nonzero;fill:rgb(100%,80.784315%,32.941177%);fill-opacity:1;" d="M 54.140625 43.535156 C 53.492188 44.1875 53.492188 45.246094 54.140625 45.894531 L 56.5 43.535156 C 55.847656 42.886719 54.792969 42.886719 54.140625 43.535156 Z M 54.140625 43.535156 "/>
<path style=" stroke:none;fill-rule:nonzero;fill:rgb(100%,80.784315%,32.941177%);fill-opacity:1;" d="M 50.605469 47.070312 C 49.957031 47.722656 49.957031 48.78125 50.605469 49.429688 L 52.964844 47.070312 C 52.3125 46.421875 51.257812 46.421875 50.605469 47.070312 Z M 50.605469 47.070312 "/>
<path style=" stroke:none;fill-rule:nonzero;fill:rgb(100%,80.784315%,32.941177%);fill-opacity:1;" d="M 47.070312 50.605469 C 46.421875 51.261719 46.417969 52.316406 47.070312 52.964844 L 49.429688 50.605469 C 48.777344 49.957031 47.722656 49.957031 47.070312 50.605469 Z M 47.070312 50.605469 "/>
<path style=" stroke:none;fill-rule:nonzero;fill:rgb(100%,80.784315%,32.941177%);fill-opacity:1;" d="M 40 57.679688 C 39.347656 58.332031 39.347656 59.386719 40 60.035156 L 42.355469 57.679688 C 41.707031 57.027344 40.648438 57.027344 40 57.679688 Z M 40 57.679688 "/>
<path style=" stroke:none;fill-rule:nonzero;fill:rgb(100%,80.784315%,32.941177%);fill-opacity:1;" d="M 36.464844 61.214844 C 35.8125 61.867188 35.8125 62.921875 36.464844 63.570312 L 38.820312 61.214844 C 38.167969 60.5625 37.113281 60.5625 36.464844 61.214844 Z M 36.464844 61.214844 "/>
<path style=" stroke:none;fill-rule:nonzero;fill:rgb(100%,80.784315%,32.941177%);fill-opacity:1;" d="M 32.925781 64.75 C 32.277344 65.398438 32.277344 66.453125 32.925781 67.105469 L 35.285156 64.75 C 34.632812 64.097656 33.578125 64.097656 32.925781 64.75 Z M 32.925781 64.75 "/>
<path style=" stroke:none;fill-rule:nonzero;fill:rgb(100%,80.784315%,32.941177%);fill-opacity:1;" d="M 29.390625 68.285156 C 28.742188 68.933594 28.742188 69.988281 29.390625 70.640625 L 31.75 68.285156 C 31.097656 67.632812 30.042969 67.632812 29.390625 68.285156 Z M 29.390625 68.285156 "/>
<path style=" stroke:none;fill-rule:nonzero;fill:rgb(100%,80.784315%,32.941177%);fill-opacity:1;" d="M 25.855469 71.820312 C 25.207031 72.46875 25.207031 73.523438 25.855469 74.175781 L 28.214844 71.820312 C 27.5625 71.167969 26.507812 71.167969 25.855469 71.820312 Z M 25.855469 71.820312 "/>
<path style=" stroke:none;fill-rule:nonzero;fill:rgb(100%,80.784315%,32.941177%);fill-opacity:1;" d="M 22.320312 75.355469 C 21.667969 76.003906 21.667969 77.058594 22.320312 77.710938 L 24.675781 75.355469 C 24.027344 74.703125 22.972656 74.703125 22.320312 75.355469 Z M 22.320312 75.355469 "/>
<path style=" stroke:none;fill-rule:nonzero;fill:rgb(39.607844%,42.745098%,47.058824%);fill-opacity:1;" d="M 16.5 55.25 L 21.214844 59.964844 L 16.5 64.679688 L 11.785156 59.964844 Z M 16.5 55.25 "/>
<path style=" stroke:none;fill-rule:nonzero;fill:rgb(39.607844%,42.745098%,47.058824%);fill-opacity:1;" d="M 25.929688 55.25 L 21.214844 50.539062 L 25.929688 45.824219 L 30.640625 50.539062 Z M 25.929688 55.25 "/>
<path style=" stroke:none;fill-rule:nonzero;fill:rgb(39.607844%,42.745098%,47.058824%);fill-opacity:1;" d="M 40.070312 41.109375 L 35.355469 36.394531 L 40.070312 31.683594 L 44.78125 36.394531 Z M 40.070312 41.109375 "/>
<path style=" stroke:none;fill-rule:nonzero;fill:rgb(39.607844%,42.745098%,47.058824%);fill-opacity:1;" d="M 49.496094 22.253906 L 54.210938 26.96875 L 49.496094 31.679688 L 44.78125 26.96875 Z M 49.496094 22.253906 "/>
<path style=" stroke:none;fill-rule:nonzero;fill:rgb(26.274511%,29.019609%,32.941177%);fill-opacity:1;" d="M 9.425781 59.964844 L 16.5 67.035156 L 23.570312 59.964844 L 16.5 52.894531 Z M 16.5 62.324219 L 14.140625 59.964844 L 16.5 57.605469 L 18.855469 59.964844 Z M 16.5 62.324219 "/>
<path style=" stroke:none;fill-rule:nonzero;fill:rgb(26.274511%,29.019609%,32.941177%);fill-opacity:1;" d="M 18.855469 50.539062 L 25.929688 57.609375 L 33 50.539062 L 25.929688 43.46875 Z M 25.929688 52.894531 L 23.570312 50.535156 L 25.929688 48.179688 L 28.285156 50.535156 Z M 25.929688 52.894531 "/>
<path style=" stroke:none;fill-rule:nonzero;fill:rgb(26.274511%,29.019609%,32.941177%);fill-opacity:1;" d="M 33 36.394531 L 40.070312 43.46875 L 47.140625 36.394531 L 40.070312 29.324219 Z M 40.070312 38.753906 L 37.710938 36.394531 L 40.070312 34.039062 L 42.425781 36.394531 Z M 40.070312 38.753906 "/>
<path style=" stroke:none;fill-rule:nonzero;fill:rgb(26.274511%,29.019609%,32.941177%);fill-opacity:1;" d="M 49.496094 19.894531 L 42.425781 26.96875 L 49.496094 34.039062 L 56.566406 26.96875 Z M 47.140625 26.96875 L 49.496094 24.609375 L 51.851562 26.96875 L 49.496094 29.324219 Z M 47.140625 26.96875 "/>
<path style=" stroke:none;fill-rule:nonzero;fill:rgb(39.607844%,42.745098%,47.058824%);fill-opacity:1;" d="M 58.925781 22.253906 L 54.210938 17.539062 L 58.925781 12.824219 L 63.636719 17.539062 Z M 58.925781 22.253906 "/>
<path style=" stroke:none;fill-rule:nonzero;fill:rgb(26.274511%,29.019609%,32.941177%);fill-opacity:1;" d="M 58.925781 10.46875 L 51.851562 17.539062 L 58.925781 24.609375 L 65.996094 17.539062 Z M 58.925781 19.894531 L 56.566406 17.539062 L 58.925781 15.183594 L 61.28125 17.539062 Z M 58.925781 19.894531 "/>
</g>
</svg>
