<?xml version="1.0" encoding="UTF-8"?>
<svg xmlns="http://www.w3.org/2000/svg" xmlns:xlink="http://www.w3.org/1999/xlink" width="32px" height="32px" viewBox="0 0 32 32" version="1.1">
<g id="surface1">
<path style=" stroke:none;fill-rule:nonzero;fill:rgb(10.980392%,15.294118%,29.803923%);fill-opacity:1;" d="M 16.105469 3 C 9.714844 3 4.460938 7.882812 3.949219 14.109375 L 2.667969 14.109375 C 2.261719 14.109375 1.894531 14.355469 1.742188 14.730469 C 1.585938 15.105469 1.675781 15.535156 1.960938 15.820312 L 4.203125 18.042969 C 4.59375 18.429688 5.222656 18.429688 5.609375 18.042969 L 7.851562 15.820312 C 8.136719 15.535156 8.226562 15.105469 8.070312 14.730469 C 7.917969 14.355469 7.550781 14.109375 7.144531 14.109375 L 5.957031 14.109375 C 6.460938 9.003906 10.804688 5 16.105469 5 C 19.796875 5 23.03125 6.945312 24.820312 9.855469 C 25.109375 10.328125 25.726562 10.472656 26.195312 10.183594 C 26.667969 9.894531 26.8125 9.28125 26.523438 8.808594 C 24.382812 5.324219 20.515625 3 16.105469 3 Z M 16.105469 3 "/>
<path style=" stroke:none;fill-rule:nonzero;fill:rgb(10.980392%,15.294118%,29.803923%);fill-opacity:1;" d="M 27.789062 13.957031 C 27.398438 13.570312 26.773438 13.570312 26.382812 13.957031 L 24.132812 16.175781 C 23.84375 16.460938 23.757812 16.894531 23.910156 17.269531 C 24.066406 17.644531 24.429688 17.890625 24.835938 17.890625 L 26.035156 17.890625 C 25.527344 22.996094 21.167969 27 15.84375 27 C 12.132812 27 8.886719 25.054688 7.089844 22.140625 C 6.800781 21.671875 6.183594 21.527344 5.714844 21.816406 C 5.246094 22.105469 5.097656 22.722656 5.386719 23.191406 C 7.539062 26.675781 11.417969 29 15.84375 29 C 22.253906 29 27.53125 24.117188 28.042969 17.890625 L 29.332031 17.890625 C 29.738281 17.890625 30.105469 17.644531 30.257812 17.269531 C 30.414062 16.894531 30.324219 16.460938 30.035156 16.175781 Z M 27.789062 13.957031 "/>
</g>
</svg>
