<?xml version="1.0" encoding="UTF-8"?>
<svg xmlns="http://www.w3.org/2000/svg" xmlns:xlink="http://www.w3.org/1999/xlink" width="64px" height="64px" viewBox="0 0 64 63" version="1.1">
<g id="surface1">
<path style=" stroke:none;fill-rule:nonzero;fill:rgb(43.137255%,69.411767%,88.235295%);fill-opacity:1;" d="M 64 31.5 C 64 14.101562 49.671875 0 32 0 C 14.328125 0 0 14.101562 0 31.5 C 0 48.898438 14.328125 63 32 63 C 49.671875 63 64 48.898438 64 31.5 Z M 64 31.5 "/>
<path style=" stroke:none;fill-rule:nonzero;fill:rgb(39.215687%,41.960785%,47.450981%);fill-opacity:1;" d="M 3.585938 10.617188 L 53.226562 10.617188 L 53.226562 15.441406 L 3.585938 15.441406 Z M 3.585938 10.617188 "/>
<path style=" stroke:none;fill-rule:nonzero;fill:rgb(98.431373%,82.745099%,1.176471%);fill-opacity:1;" d="M 4.730469 10.617188 L 5.792969 10.617188 L 5.792969 15.441406 L 4.730469 15.441406 Z M 4.730469 10.617188 "/>
<path style=" stroke:none;fill-rule:nonzero;fill:rgb(98.431373%,82.745099%,1.176471%);fill-opacity:1;" d="M 51.007812 10.617188 L 52.066406 10.617188 L 52.066406 15.441406 L 51.007812 15.441406 Z M 51.007812 10.617188 "/>
<path style=" stroke:none;fill-rule:nonzero;fill:rgb(98.823529%,98.823529%,99.215686%);fill-opacity:1;" d="M 6.90625 15.441406 L 6.90625 41.941406 C 6.90625 42.988281 7.757812 43.824219 8.863281 43.824219 L 47.9375 43.824219 C 49 43.824219 49.890625 42.988281 49.890625 41.941406 L 49.890625 15.441406 Z M 6.90625 15.441406 "/>
<path style=" stroke:none;fill-rule:nonzero;fill:rgb(94.117647%,72.941178%,47.843137%);fill-opacity:1;" d="M 43.847656 38.164062 L 49.429688 38.164062 L 49.429688 42.191406 L 43.847656 42.191406 Z M 43.847656 38.164062 "/>
<path style=" stroke:none;fill-rule:nonzero;fill:rgb(30.980393%,33.333334%,39.607844%);fill-opacity:1;" d="M 52.917969 31.964844 C 52.917969 28.535156 50.097656 25.757812 46.613281 25.757812 C 43.128906 25.757812 40.304688 28.535156 40.304688 31.964844 C 40.304688 35.394531 43.128906 38.175781 46.613281 38.175781 C 50.097656 38.175781 52.917969 35.394531 52.917969 31.964844 Z M 52.917969 31.964844 "/>
<path style=" stroke:none;fill-rule:nonzero;fill:rgb(87.058824%,87.058824%,87.450981%);fill-opacity:1;" d="M 42.996094 40.773438 L 46.613281 40.980469 L 50.238281 40.773438 L 49.429688 52.382812 L 43.847656 52.382812 Z M 42.996094 40.773438 "/>
<path style=" stroke:none;fill-rule:nonzero;fill:rgb(94.117647%,34.509805%,18.431373%);fill-opacity:1;" d="M 45.804688 43.453125 L 44.742188 50.074219 L 46.613281 52.382812 L 48.535156 50.074219 L 47.464844 43.453125 Z M 45.804688 43.453125 "/>
<path style=" stroke:none;fill-rule:nonzero;fill:rgb(30.980393%,33.333334%,39.607844%);fill-opacity:1;" d="M 42.996094 40.773438 C 42.742188 40.855469 34.773438 44.382812 34.773438 44.382812 L 32.863281 52.394531 L 46.664062 52.394531 Z M 42.996094 40.773438 "/>
<path style=" stroke:none;fill-rule:nonzero;fill:rgb(39.215687%,41.960785%,47.450981%);fill-opacity:1;" d="M 42.996094 40.773438 L 41.378906 41.484375 L 38.949219 45.171875 L 41.242188 45.882812 L 39.199219 48.234375 L 43.847656 52.382812 L 46.613281 52.382812 Z M 42.996094 40.773438 "/>
<path style=" stroke:none;fill-rule:nonzero;fill:rgb(30.980393%,33.333334%,39.607844%);fill-opacity:1;" d="M 50.28125 40.773438 C 50.535156 40.855469 58.503906 44.382812 58.503906 44.382812 L 60.414062 52.394531 L 46.613281 52.394531 Z M 50.28125 40.773438 "/>
<path style=" stroke:none;fill-rule:nonzero;fill:rgb(39.215687%,41.960785%,47.450981%);fill-opacity:1;" d="M 50.28125 40.773438 L 51.859375 41.484375 L 54.328125 45.171875 L 52.027344 45.882812 L 54.066406 48.234375 L 49.429688 52.382812 L 46.613281 52.382812 Z M 50.28125 40.773438 "/>
<path style=" stroke:none;fill-rule:nonzero;fill:rgb(83.529413%,25.882354%,19.607843%);fill-opacity:1;" d="M 47.042969 40.980469 L 46.191406 40.980469 L 44.742188 42.40625 L 45.804688 43.453125 L 47.464844 43.453125 L 48.535156 42.40625 Z M 47.042969 40.980469 "/>
<path style=" stroke:none;fill-rule:nonzero;fill:rgb(94.509804%,95.294118%,96.862745%);fill-opacity:1;" d="M 42.996094 40.773438 L 43.761719 39.425781 L 46.613281 40.980469 L 44.53125 43.699219 Z M 42.996094 40.773438 "/>
<path style=" stroke:none;fill-rule:nonzero;fill:rgb(94.509804%,95.294118%,96.862745%);fill-opacity:1;" d="M 50.238281 40.773438 L 49.472656 39.425781 L 46.613281 40.980469 L 48.703125 43.699219 Z M 50.238281 40.773438 "/>
<path style=" stroke:none;fill-rule:nonzero;fill:rgb(96.862745%,81.176472%,63.529414%);fill-opacity:1;" d="M 50.703125 33.726562 L 50.703125 31.542969 C 49.167969 30.910156 48.609375 29.359375 48.609375 29.359375 C 46.738281 32.039062 42.300781 31.789062 42.300781 31.789062 L 42.300781 33.714844 L 41.746094 33.714844 C 41.996094 36.941406 44.046875 39.417969 46.601562 39.417969 C 49.113281 39.417969 51.207031 36.902344 51.457031 33.714844 Z M 50.703125 33.726562 "/>
<path style=" stroke:none;fill-rule:nonzero;fill:rgb(94.117647%,34.509805%,18.431373%);fill-opacity:1;" d="M 33.703125 20.304688 L 33.703125 21.855469 L 37.109375 21.855469 L 30.71875 28.148438 L 28.078125 25.539062 L 21.8125 31.707031 L 16.703125 26.679688 L 9.292969 33.933594 L 10.4375 35.019531 L 16.703125 28.859375 L 21.8125 33.890625 L 28.078125 27.722656 L 30.71875 30.332031 L 38.222656 22.941406 L 38.222656 26.292969 L 39.800781 26.292969 L 39.800781 20.304688 Z M 33.703125 20.304688 "/>
</g>
</svg>
