<?xml version="1.0" encoding="UTF-8"?>
<svg xmlns="http://www.w3.org/2000/svg" xmlns:xlink="http://www.w3.org/1999/xlink" width="16px" height="16px" viewBox="0 0 16 16" version="1.1">
<g id="surface1">
<path style=" stroke:none;fill-rule:nonzero;fill:rgb(81.176472%,63.921571%,77.64706%);fill-opacity:1;" d="M 15.527344 7.710938 L 15.527344 8.257812 C 15.527344 8.464844 15.433594 8.675781 15.246094 8.839844 C 13.054688 10.734375 10.863281 12.632812 8.675781 14.53125 C 8.488281 14.691406 8.269531 14.773438 8.011719 14.773438 L 8.011719 14.226562 C 8.269531 14.226562 8.488281 14.144531 8.675781 13.984375 C 10.863281 12.085938 13.054688 10.1875 15.246094 8.292969 C 15.433594 8.128906 15.527344 7.917969 15.527344 7.710938 Z M 15.527344 7.710938 "/>
<path style=" stroke:none;fill-rule:nonzero;fill:rgb(81.176472%,63.921571%,77.64706%);fill-opacity:1;" d="M 0.472656 8.253906 L 0.472656 7.707031 C 0.472656 7.9375 0.578125 8.167969 0.769531 8.335938 C 2.933594 10.210938 5.097656 12.085938 7.261719 13.960938 C 7.464844 14.136719 7.710938 14.214844 8.011719 14.226562 L 8.011719 14.773438 C 7.710938 14.761719 7.464844 14.683594 7.261719 14.507812 C 5.097656 12.632812 2.933594 10.757812 0.769531 8.882812 C 0.578125 8.714844 0.472656 8.484375 0.472656 8.253906 Z M 0.472656 8.253906 "/>
<path style=" stroke:none;fill-rule:nonzero;fill:rgb(96.862745%,88.235295%,92.941177%);fill-opacity:1;" d="M 7.980469 1.195312 C 8.234375 1.195312 8.488281 1.28125 8.683594 1.449219 C 10.871094 3.34375 13.058594 5.234375 15.242188 7.128906 C 15.621094 7.457031 15.621094 7.964844 15.246094 8.292969 C 13.054688 10.1875 10.863281 12.085938 8.675781 13.984375 C 8.488281 14.144531 8.269531 14.226562 8.011719 14.226562 C 7.710938 14.214844 7.464844 14.136719 7.261719 13.960938 C 5.097656 12.085938 2.933594 10.210938 0.769531 8.335938 C 0.464844 8.070312 0.378906 7.648438 0.585938 7.316406 C 0.644531 7.214844 0.71875 7.128906 0.808594 7.050781 C 2.96875 5.183594 5.125 3.316406 7.28125 1.445312 C 7.476562 1.28125 7.726562 1.195312 7.980469 1.195312 Z M 7.980469 1.195312 "/>
<path style=" stroke:none;fill-rule:nonzero;fill:rgb(91.764706%,78.823531%,86.666667%);fill-opacity:1;" d="M 10.46875 6.425781 C 10.777344 6.429688 11.0625 6.628906 11.078125 6.941406 C 11.078125 6.949219 11.078125 6.957031 11.078125 6.964844 C 11.082031 7.226562 10.851562 7.484375 10.480469 7.496094 C 10.472656 7.496094 10.464844 7.496094 10.457031 7.496094 C 10.453125 7.496094 10.449219 7.496094 10.445312 7.496094 C 10.140625 7.492188 9.863281 7.28125 9.847656 6.988281 C 9.847656 6.976562 9.847656 6.96875 9.847656 6.957031 C 9.84375 6.699219 10.074219 6.441406 10.445312 6.425781 L 10.453125 6.425781 C 10.457031 6.425781 10.460938 6.425781 10.46875 6.425781 Z M 10.46875 6.425781 "/>
<path style=" stroke:none;fill-rule:nonzero;fill:rgb(50.980395%,25.098041%,54.509807%);fill-opacity:1;" d="M 11.480469 6.964844 L 11.480469 7.226562 C 11.476562 7.6875 11.171875 7.96875 10.664062 8.097656 L 10.664062 7.835938 C 11.171875 7.707031 11.476562 7.425781 11.480469 6.964844 Z M 11.480469 6.964844 "/>
<path style=" stroke:none;fill-rule:nonzero;fill:rgb(50.980395%,25.098041%,54.509807%);fill-opacity:1;" d="M 11.480469 6.964844 L 11.480469 7.226562 C 11.480469 7.246094 11.480469 7.265625 11.476562 7.28125 L 11.476562 7.019531 C 11.480469 7 11.480469 6.984375 11.480469 6.964844 M 11.476562 7.019531 L 11.476562 7.28125 C 11.464844 7.46875 11.402344 7.621094 11.296875 7.746094 L 11.296875 7.484375 C 11.402344 7.359375 11.464844 7.203125 11.476562 7.019531 M 11.296875 7.484375 L 11.296875 7.746094 C 11.242188 7.8125 11.175781 7.871094 11.09375 7.917969 L 11.09375 7.65625 C 11.175781 7.605469 11.242188 7.546875 11.296875 7.484375 M 11.09375 7.65625 L 11.09375 7.917969 C 11.019531 7.96875 10.9375 8.007812 10.84375 8.042969 L 10.84375 7.78125 C 10.9375 7.746094 11.019531 7.703125 11.09375 7.65625 M 10.84375 7.78125 L 10.84375 8.042969 C 10.785156 8.0625 10.722656 8.082031 10.664062 8.097656 L 10.664062 7.835938 C 10.726562 7.820312 10.785156 7.800781 10.84375 7.78125 "/>
<path style=" stroke:none;fill-rule:nonzero;fill:rgb(50.980395%,25.098041%,54.509807%);fill-opacity:1;" d="M 10.257812 7.835938 L 10.257812 8.101562 C 9.746094 7.964844 9.449219 7.679688 9.445312 7.207031 L 9.445312 6.945312 C 9.449219 7.417969 9.746094 7.699219 10.257812 7.835938 Z M 10.257812 7.835938 "/>
<path style=" stroke:none;fill-rule:nonzero;fill:rgb(50.980395%,25.098041%,54.509807%);fill-opacity:1;" d="M 10.257812 7.835938 L 10.257812 8.101562 C 9.746094 7.964844 9.449219 7.679688 9.445312 7.207031 L 9.445312 6.945312 C 9.449219 7.417969 9.746094 7.699219 10.257812 7.835938 "/>
<path style=" stroke:none;fill-rule:nonzero;fill:rgb(58.039218%,33.725491%,55.686277%);fill-opacity:1;" d="M 11.480469 6.964844 C 11.476562 7.425781 11.171875 7.707031 10.664062 7.835938 L 10.664062 7.90625 C 10.664062 8.777344 10.664062 9.648438 10.664062 10.519531 C 10.664062 10.546875 10.664062 10.574219 10.65625 10.601562 C 10.636719 10.683594 10.554688 10.738281 10.460938 10.738281 C 10.363281 10.738281 10.285156 10.679688 10.265625 10.597656 C 10.261719 10.570312 10.261719 10.539062 10.261719 10.507812 C 10.257812 9.640625 10.257812 8.773438 10.257812 7.90625 L 10.257812 7.835938 C 9.746094 7.699219 9.449219 7.417969 9.445312 6.945312 C 9.441406 6.535156 9.703125 6.269531 10.257812 6.089844 L 10.257812 6.019531 C 10.257812 5.597656 10.261719 5.179688 10.257812 4.757812 C 10.257812 4.652344 10.296875 4.574219 10.410156 4.53125 L 10.507812 4.53125 C 10.625 4.570312 10.667969 4.640625 10.664062 4.75 C 10.660156 5.171875 10.664062 5.597656 10.664062 6.019531 L 10.664062 6.085938 C 11.171875 6.214844 11.480469 6.5 11.480469 6.964844 Z M 10.480469 7.496094 C 10.851562 7.484375 11.082031 7.226562 11.078125 6.964844 C 11.078125 6.957031 11.078125 6.949219 11.078125 6.941406 C 11.0625 6.628906 10.777344 6.429688 10.472656 6.425781 C 10.460938 6.425781 10.457031 6.425781 10.453125 6.425781 C 10.449219 6.425781 10.449219 6.425781 10.445312 6.425781 C 10.074219 6.441406 9.84375 6.699219 9.847656 6.957031 C 9.847656 6.96875 9.847656 6.976562 9.847656 6.988281 C 9.863281 7.28125 10.140625 7.492188 10.445312 7.496094 C 10.457031 7.496094 10.46875 7.496094 10.480469 7.496094 "/>
<path style=" stroke:none;fill-rule:nonzero;fill:rgb(50.980395%,25.098041%,54.509807%);fill-opacity:1;" d="M 10.664062 10.542969 L 10.664062 10.804688 C 10.664062 10.824219 10.664062 10.847656 10.65625 10.867188 C 10.636719 10.945312 10.554688 11 10.460938 11 C 10.363281 11 10.285156 10.945312 10.265625 10.859375 C 10.261719 10.832031 10.261719 10.800781 10.261719 10.769531 L 10.261719 10.507812 C 10.261719 10.539062 10.261719 10.570312 10.265625 10.597656 C 10.285156 10.679688 10.363281 10.738281 10.460938 10.738281 C 10.554688 10.738281 10.636719 10.683594 10.65625 10.601562 C 10.664062 10.582031 10.664062 10.5625 10.664062 10.542969 Z M 10.664062 10.542969 "/>
<path style=" stroke:none;fill-rule:nonzero;fill:rgb(50.980395%,25.098041%,54.509807%);fill-opacity:1;" d="M 10.664062 10.542969 L 10.664062 10.804688 C 10.664062 10.8125 10.664062 10.820312 10.664062 10.832031 L 10.664062 10.570312 C 10.664062 10.558594 10.664062 10.550781 10.664062 10.542969 M 10.664062 10.570312 L 10.664062 10.832031 C 10.664062 10.84375 10.660156 10.855469 10.65625 10.867188 C 10.652344 10.890625 10.640625 10.910156 10.625 10.929688 L 10.625 10.667969 C 10.640625 10.648438 10.652344 10.628906 10.65625 10.601562 C 10.660156 10.59375 10.660156 10.582031 10.664062 10.570312 M 10.625 10.667969 L 10.625 10.929688 C 10.613281 10.945312 10.597656 10.957031 10.582031 10.96875 L 10.582031 10.703125 C 10.597656 10.695312 10.613281 10.683594 10.625 10.667969 "/>
<path style=" stroke:none;fill-rule:nonzero;fill:rgb(50.980395%,25.098041%,54.509807%);fill-opacity:1;" d="M 10.582031 10.703125 L 10.582031 10.96875 C 10.570312 10.976562 10.554688 10.980469 10.542969 10.988281 L 10.542969 10.722656 C 10.554688 10.71875 10.570312 10.710938 10.582031 10.703125 M 10.542969 10.722656 L 10.542969 10.988281 C 10.527344 10.992188 10.511719 10.996094 10.496094 11 L 10.496094 10.734375 C 10.511719 10.734375 10.527344 10.730469 10.542969 10.722656 M 10.496094 10.734375 L 10.496094 11 C 10.484375 11 10.472656 11 10.460938 11 C 10.363281 11 10.285156 10.945312 10.265625 10.859375 C 10.261719 10.832031 10.261719 10.800781 10.261719 10.769531 L 10.261719 10.507812 C 10.261719 10.539062 10.261719 10.570312 10.265625 10.597656 C 10.285156 10.679688 10.363281 10.738281 10.460938 10.738281 C 10.472656 10.738281 10.484375 10.738281 10.496094 10.734375 "/>
<path style=" stroke:none;fill-rule:nonzero;fill:rgb(50.980395%,25.098041%,54.509807%);fill-opacity:1;" d="M 5.53125 6.691406 C 5.527344 6.691406 5.519531 6.691406 5.515625 6.691406 C 5.515625 6.601562 5.515625 6.515625 5.515625 6.425781 C 5.519531 6.425781 5.527344 6.425781 5.53125 6.425781 C 5.535156 6.425781 5.535156 6.425781 5.539062 6.425781 C 5.550781 6.425781 5.558594 6.425781 5.566406 6.425781 C 5.929688 6.441406 6.160156 6.699219 6.160156 6.957031 L 6.160156 7.21875 C 6.160156 6.960938 5.929688 6.703125 5.566406 6.691406 C 5.5625 6.691406 5.558594 6.691406 5.554688 6.691406 C 5.546875 6.691406 5.542969 6.691406 5.539062 6.691406 C 5.535156 6.691406 5.535156 6.691406 5.53125 6.691406 Z M 5.53125 6.691406 "/>
<path style=" stroke:none;fill-rule:nonzero;fill:rgb(50.980395%,25.098041%,54.509807%);fill-opacity:1;" d="M 6.160156 6.957031 L 6.160156 7.21875 C 6.160156 6.960938 5.929688 6.703125 5.566406 6.691406 C 5.5625 6.691406 5.558594 6.691406 5.554688 6.691406 C 5.546875 6.691406 5.542969 6.691406 5.539062 6.691406 L 5.53125 6.691406 C 5.503906 6.691406 5.472656 6.691406 5.445312 6.695312 L 5.445312 6.433594 C 5.472656 6.429688 5.503906 6.425781 5.53125 6.425781 L 5.539062 6.425781 C 5.550781 6.425781 5.558594 6.425781 5.566406 6.425781 C 5.929688 6.441406 6.160156 6.699219 6.160156 6.957031 "/>
<path style=" stroke:none;fill-rule:nonzero;fill:rgb(50.980395%,25.098041%,54.509807%);fill-opacity:1;" d="M 4.925781 7.199219 C 4.925781 7.207031 4.925781 7.21875 4.925781 7.226562 L 4.925781 6.964844 C 4.925781 6.957031 4.925781 6.945312 4.925781 6.933594 C 4.949219 6.628906 5.226562 6.4375 5.515625 6.425781 C 5.515625 6.515625 5.515625 6.601562 5.515625 6.691406 C 5.226562 6.699219 4.949219 6.894531 4.925781 7.199219 Z M 4.925781 7.199219 "/>
<path style=" stroke:none;fill-rule:nonzero;fill:rgb(50.980395%,25.098041%,54.509807%);fill-opacity:1;" d="M 6.160156 6.957031 L 6.160156 7.21875 C 6.160156 6.960938 5.929688 6.703125 5.566406 6.691406 C 5.5625 6.691406 5.558594 6.691406 5.554688 6.691406 C 5.546875 6.691406 5.542969 6.691406 5.539062 6.691406 L 5.53125 6.691406 C 5.503906 6.691406 5.472656 6.691406 5.445312 6.695312 L 5.445312 6.433594 C 5.472656 6.429688 5.503906 6.425781 5.53125 6.425781 L 5.539062 6.425781 C 5.550781 6.425781 5.558594 6.425781 5.566406 6.425781 C 5.929688 6.441406 6.160156 6.699219 6.160156 6.957031 M 5.445312 6.433594 L 5.445312 6.695312 C 5.394531 6.703125 5.347656 6.714844 5.300781 6.730469 L 5.300781 6.46875 C 5.347656 6.453125 5.394531 6.441406 5.445312 6.433594 "/>
<path style=" stroke:none;fill-rule:nonzero;fill:rgb(50.980395%,25.098041%,54.509807%);fill-opacity:1;" d="M 5.300781 6.46875 L 5.300781 6.730469 C 5.257812 6.75 5.214844 6.769531 5.175781 6.792969 L 5.175781 6.53125 C 5.214844 6.507812 5.257812 6.484375 5.300781 6.46875 M 5.175781 6.53125 L 5.175781 6.792969 C 5.125 6.824219 5.082031 6.863281 5.046875 6.90625 L 5.046875 6.644531 C 5.082031 6.601562 5.125 6.5625 5.175781 6.53125 M 5.046875 6.644531 L 5.046875 6.90625 C 4.976562 6.984375 4.933594 7.085938 4.925781 7.199219 L 4.925781 7.203125 L 4.925781 6.941406 C 4.925781 6.9375 4.925781 6.9375 4.925781 6.933594 C 4.933594 6.820312 4.976562 6.722656 5.046875 6.644531 M 4.925781 6.941406 L 4.925781 7.203125 C 4.925781 7.210938 4.925781 7.21875 4.925781 7.226562 L 4.925781 6.964844 C 4.925781 6.957031 4.925781 6.949219 4.925781 6.941406 "/>
<path style=" stroke:none;fill-rule:nonzero;fill:rgb(50.980395%,25.098041%,54.509807%);fill-opacity:1;" d="M 5.519531 7.496094 L 5.519531 7.757812 C 5.148438 7.742188 4.925781 7.484375 4.925781 7.230469 L 4.925781 6.964844 C 4.925781 7.222656 5.148438 7.480469 5.519531 7.496094 Z M 5.519531 7.496094 "/>
<path style=" stroke:none;fill-rule:nonzero;fill:rgb(50.980395%,25.098041%,54.509807%);fill-opacity:1;" d="M 5.519531 7.496094 L 5.519531 7.757812 C 5.148438 7.742188 4.925781 7.484375 4.925781 7.230469 L 4.925781 6.964844 C 4.925781 7.222656 5.148438 7.480469 5.519531 7.496094 "/>
<path style=" stroke:none;fill-rule:nonzero;fill:rgb(50.980395%,25.098041%,54.509807%);fill-opacity:1;" d="M 6.15625 6.992188 L 6.15625 7.257812 C 6.140625 7.550781 5.859375 7.753906 5.554688 7.757812 L 5.550781 7.757812 L 5.550781 7.496094 L 5.554688 7.496094 C 5.859375 7.492188 6.140625 7.285156 6.15625 6.992188 Z M 6.15625 6.992188 "/>
<path style=" stroke:none;fill-rule:nonzero;fill:rgb(50.980395%,25.098041%,54.509807%);fill-opacity:1;" d="M 6.15625 6.992188 L 6.15625 7.257812 C 6.152344 7.363281 6.109375 7.460938 6.042969 7.539062 L 6.042969 7.277344 C 6.109375 7.199219 6.152344 7.101562 6.15625 6.992188 M 6.042969 7.277344 L 6.042969 7.539062 C 6.003906 7.585938 5.960938 7.621094 5.910156 7.65625 L 5.910156 7.390625 C 5.960938 7.359375 6.003906 7.320312 6.042969 7.277344 M 5.910156 7.390625 L 5.910156 7.65625 C 5.871094 7.679688 5.828125 7.699219 5.78125 7.71875 L 5.78125 7.453125 C 5.828125 7.4375 5.871094 7.417969 5.910156 7.390625 M 5.78125 7.453125 L 5.78125 7.71875 C 5.738281 7.734375 5.6875 7.746094 5.640625 7.753906 L 5.640625 7.492188 C 5.6875 7.484375 5.738281 7.472656 5.78125 7.453125 M 5.640625 7.492188 L 5.640625 7.753906 C 5.613281 7.757812 5.585938 7.757812 5.554688 7.757812 L 5.550781 7.757812 L 5.550781 7.496094 L 5.554688 7.496094 C 5.585938 7.496094 5.613281 7.496094 5.640625 7.492188 "/>
<path style=" stroke:none;fill-rule:nonzero;fill:rgb(50.980395%,25.098041%,54.509807%);fill-opacity:1;" d="M 5.550781 7.496094 L 5.550781 7.757812 C 5.539062 7.757812 5.53125 7.757812 5.519531 7.757812 L 5.519531 7.496094 C 5.53125 7.496094 5.539062 7.496094 5.550781 7.496094 Z M 5.550781 7.496094 "/>
<path style=" stroke:none;fill-rule:nonzero;fill:rgb(50.980395%,25.098041%,54.509807%);fill-opacity:1;" d="M 5.550781 7.496094 L 5.550781 7.757812 C 5.539062 7.757812 5.53125 7.757812 5.519531 7.757812 L 5.519531 7.496094 C 5.53125 7.496094 5.539062 7.496094 5.550781 7.496094 "/>
<path style=" stroke:none;fill-rule:nonzero;fill:rgb(91.764706%,78.823531%,86.666667%);fill-opacity:1;" d="M 5.539062 6.425781 C 5.542969 6.425781 5.546875 6.425781 5.550781 6.425781 C 5.558594 6.425781 5.5625 6.425781 5.566406 6.425781 C 5.929688 6.441406 6.160156 6.699219 6.160156 6.957031 C 6.160156 6.96875 6.160156 6.980469 6.15625 6.992188 C 6.140625 7.285156 5.859375 7.492188 5.554688 7.496094 L 5.550781 7.496094 C 5.539062 7.496094 5.53125 7.496094 5.519531 7.496094 C 5.148438 7.480469 4.925781 7.222656 4.925781 6.964844 C 4.925781 6.957031 4.925781 6.945312 4.925781 6.933594 C 4.949219 6.625 5.234375 6.429688 5.53125 6.425781 C 5.535156 6.425781 5.535156 6.425781 5.539062 6.425781 Z M 5.539062 6.425781 "/>
<path style=" stroke:none;fill-rule:nonzero;fill:rgb(50.980395%,25.098041%,54.509807%);fill-opacity:1;" d="M 5.34375 7.835938 L 5.34375 8.097656 C 4.773438 7.976562 4.515625 7.570312 4.519531 7.21875 L 4.519531 6.957031 C 4.515625 7.308594 4.773438 7.714844 5.34375 7.835938 Z M 5.34375 7.835938 "/>
<path style=" stroke:none;fill-rule:nonzero;fill:rgb(50.980395%,25.098041%,54.509807%);fill-opacity:1;" d="M 5.34375 7.835938 L 5.34375 8.097656 C 4.773438 7.976562 4.515625 7.570312 4.519531 7.21875 L 4.519531 6.957031 C 4.515625 7.308594 4.773438 7.714844 5.34375 7.835938 "/>
<path style=" stroke:none;fill-rule:nonzero;fill:rgb(50.980395%,25.098041%,54.509807%);fill-opacity:1;" d="M 6.5625 6.9375 L 6.5625 7.199219 C 6.5625 7.246094 6.558594 7.296875 6.550781 7.34375 C 6.488281 7.722656 6.226562 7.96875 5.800781 8.078125 C 5.746094 8.089844 5.746094 8.113281 5.746094 8.152344 L 5.746094 7.886719 C 5.746094 7.851562 5.746094 7.828125 5.800781 7.816406 C 6.226562 7.707031 6.488281 7.460938 6.550781 7.082031 C 6.558594 7.03125 6.5625 6.984375 6.5625 6.9375 Z M 6.5625 6.9375 "/>
<path style=" stroke:none;fill-rule:nonzero;fill:rgb(50.980395%,25.098041%,54.509807%);fill-opacity:1;" d="M 6.5625 6.988281 L 6.5625 7.25 C 6.5625 7.28125 6.558594 7.3125 6.550781 7.34375 C 6.523438 7.503906 6.464844 7.640625 6.367188 7.753906 L 6.367188 7.492188 C 6.464844 7.378906 6.523438 7.242188 6.550781 7.082031 C 6.558594 7.050781 6.5625 7.019531 6.5625 6.988281 M 6.367188 7.492188 L 6.367188 7.753906 C 6.3125 7.816406 6.25 7.875 6.171875 7.921875 L 6.171875 7.660156 C 6.25 7.613281 6.3125 7.554688 6.367188 7.492188 M 6.171875 7.660156 L 6.171875 7.921875 C 6.105469 7.964844 6.03125 8 5.949219 8.03125 L 5.949219 7.769531 C 6.03125 7.738281 6.105469 7.703125 6.171875 7.660156 M 5.949219 7.769531 L 5.949219 8.03125 C 5.898438 8.050781 5.851562 8.066406 5.800781 8.078125 C 5.796875 8.078125 5.789062 8.082031 5.785156 8.082031 L 5.785156 7.820312 C 5.789062 7.816406 5.792969 7.816406 5.800781 7.816406 C 5.851562 7.800781 5.898438 7.789062 5.949219 7.769531 M 5.785156 7.820312 L 5.785156 8.082031 C 5.777344 8.085938 5.773438 8.085938 5.769531 8.089844 L 5.769531 7.828125 C 5.773438 7.824219 5.777344 7.820312 5.785156 7.820312 "/>
<path style=" stroke:none;fill-rule:nonzero;fill:rgb(50.980395%,25.098041%,54.509807%);fill-opacity:1;" d="M 5.769531 7.828125 L 5.769531 8.089844 C 5.765625 8.09375 5.761719 8.097656 5.757812 8.101562 L 5.757812 7.835938 C 5.761719 7.835938 5.765625 7.832031 5.769531 7.828125 M 5.757812 7.835938 L 5.757812 8.101562 C 5.75 8.109375 5.746094 8.121094 5.746094 8.132812 L 5.746094 7.871094 C 5.746094 7.859375 5.75 7.847656 5.757812 7.835938 "/>
<path style=" stroke:none;fill-rule:nonzero;fill:rgb(50.980395%,25.098041%,54.509807%);fill-opacity:1;" d="M 5.34375 10.804688 L 5.34375 10.539062 C 5.34375 10.554688 5.34375 10.566406 5.34375 10.578125 C 5.351562 10.664062 5.433594 10.730469 5.542969 10.738281 L 5.542969 11 C 5.433594 10.992188 5.351562 10.925781 5.34375 10.839844 C 5.34375 10.828125 5.34375 10.816406 5.34375 10.804688 Z M 5.34375 10.804688 "/>
<path style=" stroke:none;fill-rule:nonzero;fill:rgb(50.980395%,25.098041%,54.509807%);fill-opacity:1;" d="M 5.542969 10.738281 L 5.542969 11 C 5.433594 10.992188 5.351562 10.925781 5.34375 10.839844 C 5.34375 10.828125 5.34375 10.816406 5.34375 10.804688 L 5.34375 10.539062 C 5.34375 10.554688 5.34375 10.566406 5.34375 10.578125 C 5.351562 10.664062 5.433594 10.730469 5.542969 10.738281 "/>
<path style=" stroke:none;fill-rule:nonzero;fill:rgb(58.039218%,33.725491%,55.686277%);fill-opacity:1;" d="M 6.101562 6.222656 C 6.453125 6.429688 6.613281 6.722656 6.550781 7.082031 C 6.488281 7.460938 6.226562 7.707031 5.800781 7.816406 C 5.746094 7.828125 5.746094 7.851562 5.746094 7.886719 C 5.746094 8.761719 5.746094 9.632812 5.746094 10.507812 C 5.746094 10.539062 5.746094 10.570312 5.738281 10.601562 C 5.71875 10.683594 5.636719 10.738281 5.542969 10.738281 C 5.433594 10.730469 5.351562 10.664062 5.34375 10.578125 C 5.339844 10.554688 5.34375 10.53125 5.34375 10.503906 L 5.34375 7.835938 C 4.773438 7.714844 4.515625 7.308594 4.519531 6.957031 C 4.523438 6.5625 4.828125 6.191406 5.34375 6.089844 L 5.34375 6.027344 C 5.34375 5.601562 5.34375 5.175781 5.339844 4.75 C 5.339844 4.640625 5.382812 4.570312 5.496094 4.53125 L 5.59375 4.53125 C 5.710938 4.574219 5.75 4.652344 5.746094 4.757812 C 5.742188 5.175781 5.746094 5.597656 5.746094 6.019531 L 5.746094 6.074219 C 5.871094 6.128906 5.996094 6.164062 6.101562 6.222656 Z M 6.15625 6.992188 C 6.160156 6.980469 6.160156 6.96875 6.160156 6.957031 C 6.160156 6.699219 5.929688 6.441406 5.566406 6.425781 C 5.558594 6.425781 5.550781 6.425781 5.539062 6.425781 L 5.53125 6.425781 C 5.234375 6.429688 4.949219 6.625 4.925781 6.933594 C 4.925781 6.945312 4.925781 6.957031 4.925781 6.964844 C 4.925781 7.222656 5.148438 7.480469 5.519531 7.496094 C 5.53125 7.496094 5.539062 7.496094 5.546875 7.496094 L 5.554688 7.496094 C 5.859375 7.492188 6.140625 7.285156 6.15625 6.992188 "/>
<path style=" stroke:none;fill-rule:nonzero;fill:rgb(50.980395%,25.098041%,54.509807%);fill-opacity:1;" d="M 5.746094 10.507812 L 5.746094 10.769531 C 5.746094 10.800781 5.746094 10.835938 5.738281 10.867188 C 5.71875 10.945312 5.636719 11 5.542969 11 L 5.542969 10.738281 C 5.636719 10.738281 5.71875 10.683594 5.738281 10.601562 C 5.746094 10.570312 5.746094 10.539062 5.746094 10.507812 Z M 5.746094 10.507812 "/>
<path style=" stroke:none;fill-rule:nonzero;fill:rgb(50.980395%,25.098041%,54.509807%);fill-opacity:1;" d="M 5.746094 10.507812 L 5.746094 10.769531 C 5.746094 10.785156 5.746094 10.796875 5.746094 10.8125 L 5.746094 10.550781 C 5.746094 10.535156 5.746094 10.519531 5.746094 10.507812 M 5.746094 10.550781 L 5.746094 10.8125 C 5.742188 10.832031 5.742188 10.847656 5.738281 10.867188 C 5.730469 10.890625 5.71875 10.910156 5.703125 10.929688 L 5.703125 10.667969 C 5.71875 10.648438 5.730469 10.625 5.738281 10.601562 C 5.742188 10.585938 5.742188 10.566406 5.746094 10.550781 M 5.703125 10.667969 L 5.703125 10.929688 C 5.691406 10.945312 5.675781 10.957031 5.660156 10.964844 L 5.660156 10.703125 C 5.675781 10.695312 5.691406 10.679688 5.703125 10.667969 M 5.660156 10.703125 L 5.660156 10.964844 C 5.648438 10.972656 5.636719 10.980469 5.621094 10.988281 L 5.621094 10.722656 C 5.632812 10.71875 5.648438 10.710938 5.660156 10.703125 M 5.621094 10.722656 L 5.621094 10.988281 C 5.605469 10.992188 5.589844 10.996094 5.574219 10.996094 L 5.574219 10.734375 C 5.589844 10.734375 5.605469 10.730469 5.621094 10.722656 "/>
<path style=" stroke:none;fill-rule:nonzero;fill:rgb(50.980395%,25.098041%,54.509807%);fill-opacity:1;" d="M 5.574219 10.734375 L 5.574219 10.996094 C 5.566406 11 5.554688 11 5.542969 11 L 5.542969 10.738281 C 5.554688 10.738281 5.566406 10.738281 5.574219 10.734375 "/>
<path style=" stroke:none;fill-rule:nonzero;fill:rgb(50.980395%,25.098041%,54.509807%);fill-opacity:1;" d="M 8.628906 8.425781 L 8.628906 8.6875 C 8.625 8.390625 8.367188 8.160156 8.015625 8.152344 C 8.015625 8.152344 8.011719 8.152344 8.007812 8.152344 C 8.007812 8.152344 8.003906 8.152344 8 8.152344 C 8 8.152344 7.996094 8.152344 7.992188 8.152344 C 7.671875 8.15625 7.398438 8.386719 7.394531 8.675781 C 7.394531 8.675781 7.390625 8.679688 7.390625 8.683594 C 7.390625 8.683594 7.390625 8.683594 7.390625 8.6875 L 7.390625 8.425781 C 7.390625 8.421875 7.390625 8.421875 7.390625 8.417969 C 7.390625 8.417969 7.394531 8.414062 7.394531 8.414062 C 7.398438 8.125 7.671875 7.894531 7.992188 7.890625 C 7.996094 7.890625 8 7.890625 8 7.890625 C 8.003906 7.890625 8.007812 7.890625 8.007812 7.890625 C 8.011719 7.890625 8.015625 7.890625 8.015625 7.890625 C 8.367188 7.898438 8.625 8.128906 8.628906 8.425781 Z M 8.628906 8.425781 "/>
<path style=" stroke:none;fill-rule:nonzero;fill:rgb(50.980395%,25.098041%,54.509807%);fill-opacity:1;" d="M 8.628906 8.425781 L 8.628906 8.6875 C 8.625 8.390625 8.367188 8.160156 8.015625 8.152344 C 8.015625 8.152344 8.011719 8.152344 8.007812 8.152344 C 8.007812 8.152344 8.003906 8.152344 8 8.152344 C 8 8.152344 7.996094 8.152344 7.992188 8.152344 C 7.964844 8.152344 7.9375 8.15625 7.910156 8.160156 L 7.910156 7.894531 C 7.9375 7.890625 7.964844 7.890625 7.992188 7.890625 C 7.996094 7.890625 8 7.890625 8 7.890625 C 8.003906 7.890625 8.007812 7.890625 8.007812 7.890625 C 8.011719 7.890625 8.015625 7.890625 8.015625 7.890625 C 8.367188 7.898438 8.625 8.128906 8.628906 8.425781 M 7.910156 7.894531 L 7.910156 8.160156 C 7.859375 8.164062 7.8125 8.175781 7.769531 8.191406 L 7.769531 7.929688 C 7.8125 7.914062 7.859375 7.902344 7.910156 7.894531 M 7.769531 7.929688 L 7.769531 8.191406 C 7.726562 8.210938 7.683594 8.230469 7.644531 8.253906 L 7.644531 7.992188 C 7.683594 7.96875 7.726562 7.945312 7.769531 7.929688 M 7.644531 7.992188 L 7.644531 8.253906 C 7.59375 8.285156 7.550781 8.324219 7.511719 8.367188 L 7.511719 8.105469 C 7.550781 8.0625 7.59375 8.023438 7.644531 7.992188 "/>
<path style=" stroke:none;fill-rule:nonzero;fill:rgb(50.980395%,25.098041%,54.509807%);fill-opacity:1;" d="M 7.511719 8.105469 L 7.511719 8.367188 C 7.445312 8.449219 7.398438 8.550781 7.394531 8.65625 L 7.394531 8.394531 C 7.398438 8.285156 7.445312 8.1875 7.511719 8.105469 M 7.394531 8.394531 L 7.394531 8.65625 C 7.394531 8.664062 7.394531 8.667969 7.394531 8.675781 L 7.390625 8.683594 L 7.390625 8.6875 L 7.390625 8.417969 L 7.394531 8.414062 C 7.394531 8.40625 7.394531 8.402344 7.394531 8.394531 "/>
<path style=" stroke:none;fill-rule:nonzero;fill:rgb(50.980395%,25.098041%,54.509807%);fill-opacity:1;" d="M 8.628906 8.425781 L 8.628906 8.6875 C 8.628906 8.691406 8.628906 8.691406 8.628906 8.691406 C 8.625 8.984375 8.351562 9.214844 8.027344 9.222656 C 8.023438 9.222656 8.019531 9.222656 8.015625 9.222656 L 8.015625 8.960938 C 8.019531 8.960938 8.023438 8.960938 8.027344 8.960938 C 8.351562 8.953125 8.625 8.722656 8.628906 8.429688 C 8.628906 8.429688 8.628906 8.429688 8.628906 8.425781 Z M 8.628906 8.425781 "/>
<path style=" stroke:none;fill-rule:nonzero;fill:rgb(50.980395%,25.098041%,54.509807%);fill-opacity:1;" d="M 8.628906 8.457031 L 8.628906 8.71875 C 8.621094 8.824219 8.578125 8.921875 8.507812 9.003906 L 8.507812 8.742188 C 8.578125 8.660156 8.621094 8.5625 8.628906 8.457031 M 8.507812 8.742188 L 8.507812 9.003906 C 8.472656 9.046875 8.425781 9.085938 8.378906 9.117188 L 8.378906 8.855469 C 8.425781 8.824219 8.472656 8.785156 8.507812 8.742188 M 8.378906 8.855469 L 8.378906 9.117188 C 8.339844 9.144531 8.296875 9.164062 8.253906 9.179688 L 8.253906 8.917969 C 8.296875 8.902344 8.339844 8.882812 8.378906 8.855469 M 8.253906 8.917969 L 8.253906 9.179688 C 8.207031 9.195312 8.160156 9.210938 8.109375 9.214844 L 8.109375 8.953125 C 8.160156 8.945312 8.207031 8.933594 8.253906 8.917969 M 8.109375 8.953125 L 8.109375 9.214844 C 8.078125 9.21875 8.046875 9.222656 8.015625 9.222656 L 8.015625 8.960938 C 8.046875 8.960938 8.078125 8.957031 8.109375 8.953125 "/>
<path style=" stroke:none;fill-rule:nonzero;fill:rgb(50.980395%,25.098041%,54.509807%);fill-opacity:1;" d="M 8.015625 8.960938 L 8.015625 9.222656 C 8.011719 9.222656 8.007812 9.222656 8.003906 9.222656 C 7.660156 9.214844 7.394531 8.984375 7.390625 8.6875 L 7.390625 8.425781 C 7.394531 8.722656 7.660156 8.953125 8.003906 8.960938 C 8.007812 8.960938 8.011719 8.960938 8.015625 8.960938 Z M 8.015625 8.960938 "/>
<path style=" stroke:none;fill-rule:nonzero;fill:rgb(50.980395%,25.098041%,54.509807%);fill-opacity:1;" d="M 8.015625 8.960938 L 8.015625 9.222656 C 8.011719 9.222656 8.007812 9.222656 8.003906 9.222656 C 7.660156 9.214844 7.394531 8.984375 7.390625 8.6875 L 7.390625 8.425781 C 7.394531 8.722656 7.660156 8.953125 8.003906 8.960938 C 8.007812 8.960938 8.011719 8.960938 8.015625 8.960938 "/>
<path style=" stroke:none;fill-rule:nonzero;fill:rgb(50.980395%,25.098041%,54.509807%);fill-opacity:1;" d="M 9.03125 8.453125 L 9.03125 8.714844 C 9.03125 9.0625 8.753906 9.445312 8.210938 9.558594 L 8.210938 9.296875 C 8.753906 9.183594 9.03125 8.800781 9.03125 8.453125 Z M 9.03125 8.453125 "/>
<path style=" stroke:none;fill-rule:nonzero;fill:rgb(50.980395%,25.098041%,54.509807%);fill-opacity:1;" d="M 9.03125 8.453125 L 9.03125 8.714844 C 9.03125 8.726562 9.03125 8.742188 9.027344 8.753906 L 9.027344 8.492188 C 9.03125 8.480469 9.03125 8.464844 9.03125 8.453125 M 9.027344 8.492188 L 9.027344 8.753906 C 9.019531 8.910156 8.957031 9.070312 8.839844 9.207031 L 8.839844 8.945312 C 8.957031 8.804688 9.019531 8.648438 9.027344 8.492188 M 8.839844 8.945312 L 8.839844 9.207031 C 8.78125 9.277344 8.707031 9.339844 8.621094 9.398438 L 8.621094 9.132812 C 8.707031 9.078125 8.78125 9.015625 8.839844 8.945312 "/>
<path style=" stroke:none;fill-rule:nonzero;fill:rgb(50.980395%,25.098041%,54.509807%);fill-opacity:1;" d="M 8.621094 9.132812 L 8.621094 9.398438 C 8.554688 9.4375 8.480469 9.476562 8.394531 9.507812 L 8.394531 9.246094 C 8.480469 9.214844 8.554688 9.175781 8.621094 9.132812 M 8.394531 9.246094 L 8.394531 9.507812 C 8.335938 9.527344 8.273438 9.546875 8.210938 9.558594 L 8.210938 9.296875 C 8.273438 9.285156 8.335938 9.265625 8.394531 9.246094 "/>
<path style=" stroke:none;fill-rule:nonzero;fill:rgb(50.980395%,25.098041%,54.509807%);fill-opacity:1;" d="M 7.808594 9.347656 L 7.808594 9.609375 C 7.808594 9.574219 7.804688 9.554688 7.753906 9.542969 C 7.300781 9.441406 6.988281 9.085938 6.988281 8.683594 L 6.988281 8.421875 C 6.988281 8.824219 7.300781 9.179688 7.753906 9.28125 C 7.804688 9.292969 7.808594 9.3125 7.808594 9.347656 Z M 7.808594 9.347656 "/>
<path style=" stroke:none;fill-rule:nonzero;fill:rgb(50.980395%,25.098041%,54.509807%);fill-opacity:1;" d="M 7.808594 9.347656 L 7.808594 9.609375 C 7.808594 9.574219 7.804688 9.554688 7.753906 9.542969 C 7.300781 9.441406 6.988281 9.085938 6.988281 8.683594 L 6.988281 8.421875 C 6.988281 8.824219 7.300781 9.179688 7.753906 9.28125 C 7.804688 9.292969 7.808594 9.3125 7.808594 9.347656 "/>
<path style=" stroke:none;fill-rule:nonzero;fill:rgb(58.039218%,33.725491%,55.686277%);fill-opacity:1;" d="M 8.210938 9.296875 L 8.210938 9.359375 C 8.210938 9.75 8.210938 10.144531 8.210938 10.535156 C 8.214844 10.621094 8.179688 10.6875 8.089844 10.722656 C 8.0625 10.734375 8.035156 10.738281 8.007812 10.738281 C 7.902344 10.738281 7.8125 10.664062 7.808594 10.5625 C 7.804688 10.488281 7.808594 10.410156 7.808594 10.335938 C 7.808594 10.007812 7.808594 9.679688 7.808594 9.347656 C 7.808594 9.3125 7.804688 9.292969 7.753906 9.28125 C 7.300781 9.179688 6.988281 8.824219 6.988281 8.421875 C 6.992188 8.019531 7.300781 7.675781 7.753906 7.566406 C 7.769531 7.566406 7.785156 7.5625 7.808594 7.554688 L 7.808594 7.476562 C 7.808594 6.570312 7.808594 5.664062 7.808594 4.757812 C 7.804688 4.648438 7.84375 4.570312 7.960938 4.53125 L 8.058594 4.53125 C 8.175781 4.570312 8.214844 4.648438 8.214844 4.753906 C 8.210938 5.664062 8.210938 6.570312 8.210938 7.476562 L 8.210938 7.550781 C 8.726562 7.683594 9.019531 7.96875 9.03125 8.4375 C 9.039062 8.789062 8.761719 9.179688 8.210938 9.296875 Z M 8.027344 8.960938 C 8.351562 8.953125 8.625 8.722656 8.628906 8.429688 C 8.628906 8.429688 8.628906 8.425781 8.628906 8.425781 C 8.625 8.128906 8.367188 7.898438 8.015625 7.890625 L 8.007812 7.890625 C 8.007812 7.890625 8.003906 7.890625 8 7.890625 C 8 7.890625 7.996094 7.890625 7.992188 7.890625 C 7.671875 7.894531 7.398438 8.125 7.394531 8.414062 C 7.394531 8.414062 7.390625 8.417969 7.390625 8.417969 L 7.390625 8.425781 C 7.394531 8.722656 7.660156 8.953125 8.003906 8.960938 C 8.011719 8.960938 8.019531 8.960938 8.027344 8.960938 "/>
<path style=" stroke:none;fill-rule:nonzero;fill:rgb(91.764706%,78.823531%,86.666667%);fill-opacity:1;" d="M 8 7.890625 C 8.003906 7.890625 8.007812 7.890625 8.007812 7.890625 C 8.011719 7.890625 8.015625 7.890625 8.015625 7.890625 C 8.367188 7.898438 8.625 8.128906 8.628906 8.425781 C 8.628906 8.425781 8.628906 8.429688 8.628906 8.429688 C 8.625 8.722656 8.351562 8.953125 8.027344 8.960938 C 8.019531 8.960938 8.011719 8.960938 8.003906 8.960938 C 7.660156 8.953125 7.394531 8.722656 7.390625 8.425781 C 7.390625 8.425781 7.390625 8.421875 7.390625 8.417969 C 7.390625 8.417969 7.394531 8.414062 7.394531 8.414062 C 7.398438 8.125 7.671875 7.894531 7.992188 7.890625 C 7.996094 7.890625 8 7.890625 8 7.890625 Z M 8 7.890625 "/>
<path style=" stroke:none;fill-rule:nonzero;fill:rgb(50.980395%,25.098041%,54.509807%);fill-opacity:1;" d="M 7.808594 10.734375 L 7.808594 10.472656 C 7.808594 10.503906 7.808594 10.53125 7.808594 10.5625 C 7.8125 10.664062 7.902344 10.738281 8.007812 10.738281 C 8.035156 10.738281 8.0625 10.734375 8.089844 10.722656 C 8.179688 10.6875 8.214844 10.621094 8.210938 10.535156 L 8.210938 10.796875 C 8.214844 10.882812 8.179688 10.949219 8.089844 10.984375 C 8.0625 10.996094 8.035156 11 8.007812 11 C 7.902344 11 7.8125 10.925781 7.808594 10.824219 C 7.808594 10.792969 7.808594 10.765625 7.808594 10.734375 Z M 7.808594 10.734375 "/>
<path style=" stroke:none;fill-rule:nonzero;fill:rgb(50.980395%,25.098041%,54.509807%);fill-opacity:1;" d="M 8.210938 10.535156 L 8.210938 10.796875 C 8.210938 10.804688 8.210938 10.8125 8.210938 10.816406 L 8.210938 10.554688 C 8.210938 10.550781 8.210938 10.542969 8.210938 10.535156 M 8.210938 10.554688 L 8.210938 10.816406 C 8.210938 10.859375 8.199219 10.898438 8.171875 10.929688 L 8.171875 10.667969 C 8.199219 10.636719 8.210938 10.597656 8.210938 10.554688 M 8.171875 10.667969 L 8.171875 10.929688 C 8.160156 10.941406 8.148438 10.953125 8.132812 10.964844 L 8.132812 10.699219 C 8.148438 10.691406 8.160156 10.679688 8.171875 10.667969 M 8.132812 10.699219 L 8.132812 10.964844 C 8.121094 10.972656 8.105469 10.980469 8.089844 10.984375 C 8.089844 10.984375 8.085938 10.984375 8.085938 10.984375 L 8.085938 10.722656 L 8.089844 10.722656 C 8.105469 10.71875 8.117188 10.710938 8.132812 10.699219 M 8.085938 10.722656 L 8.085938 10.984375 C 8.070312 10.992188 8.054688 10.996094 8.039062 11 L 8.039062 10.734375 C 8.054688 10.734375 8.070312 10.730469 8.085938 10.722656 "/>
<path style=" stroke:none;fill-rule:nonzero;fill:rgb(50.980395%,25.098041%,54.509807%);fill-opacity:1;" d="M 8.039062 10.734375 L 8.039062 11 C 8.027344 11 8.019531 11 8.007812 11 C 7.902344 11 7.8125 10.925781 7.808594 10.824219 C 7.808594 10.792969 7.808594 10.765625 7.808594 10.734375 L 7.808594 10.472656 C 7.808594 10.503906 7.808594 10.53125 7.808594 10.5625 C 7.8125 10.664062 7.902344 10.738281 8.007812 10.738281 C 8.019531 10.738281 8.027344 10.738281 8.039062 10.734375 "/>
</g>
</svg>
