<?xml version="1.0" encoding="UTF-8"?>
<svg xmlns="http://www.w3.org/2000/svg" xmlns:xlink="http://www.w3.org/1999/xlink" width="64px" height="64px" viewBox="0 0 64 64" version="1.1">
<g id="surface1">
<path style=" stroke:none;fill-rule:nonzero;fill:rgb(95.686275%,83.92157%,69.01961%);fill-opacity:1;" d="M 64 32 C 64 14.328125 49.671875 0 32 0 C 14.328125 0 0 14.328125 0 32 C 0 49.671875 14.328125 64 32 64 C 49.671875 64 64 49.671875 64 32 Z M 64 32 "/>
<path style=" stroke:none;fill-rule:nonzero;fill:rgb(97.254902%,67.843139%,53.725493%);fill-opacity:1;" d="M 8 32 C 8 45.253906 18.746094 56 32 56 L 32 8 C 18.746094 8 8 18.746094 8 32 Z M 8 32 "/>
<path style=" stroke:none;fill-rule:nonzero;fill:rgb(0.392157%,64.705884%,61.176473%);fill-opacity:1;" d="M 32 0 L 32 8 C 45.253906 8 56 18.746094 56 32 C 56 45.253906 45.253906 56 32 56 L 32 64 C 49.675781 64 64 49.675781 64 32 C 64 14.324219 49.675781 0 32 0 Z M 32 0 "/>
<path style=" stroke:none;fill-rule:nonzero;fill:rgb(0.392157%,64.705884%,61.176473%);fill-opacity:1;" d="M 32 0 L 32 8 C 45.253906 8 56 18.746094 56 32 C 56 45.253906 45.253906 56 32 56 L 32 64 C 49.675781 64 64 49.675781 64 32 C 64 14.324219 49.675781 0 32 0 Z M 32 0 "/>
<path style=" stroke:none;fill-rule:nonzero;fill:rgb(4.705882%,40.000001%,40.392157%);fill-opacity:1;" d="M 32 56 L 32 64 C 14.324219 64 0 49.675781 0 32 C 0 14.324219 14.324219 0 32 0 L 32 8 C 18.746094 8 8 18.746094 8 32 C 8 45.253906 18.746094 56 32 56 Z M 44 28 L 35 28 L 35 19 C 35 17.34375 33.65625 16 32 16 C 30.34375 16 29 17.34375 29 19 L 29 28 L 20 28 C 18.34375 28 17 29.34375 17 31 C 17 32.65625 18.34375 34 20 34 L 29 34 L 29 43 C 29 44.65625 30.34375 46 32 46 C 33.65625 46 35 44.65625 35 43 L 35 34 L 44 34 C 45.65625 34 47 32.65625 47 31 C 47 29.34375 45.65625 28 44 28 Z M 44 28 "/>
</g>
</svg>
