<?xml version="1.0" encoding="UTF-8"?>
<svg xmlns="http://www.w3.org/2000/svg" xmlns:xlink="http://www.w3.org/1999/xlink" width="16px" height="16px" viewBox="0 0 16 16" version="1.1">
<g id="surface1">
<path style=" stroke:none;fill-rule:nonzero;fill:rgb(92.156863%,38.039216%,23.529412%);fill-opacity:1;" d="M 15.527344 7.710938 L 15.527344 8.257812 C 15.527344 8.464844 15.433594 8.675781 15.246094 8.839844 C 13.054688 10.734375 10.863281 12.632812 8.675781 14.53125 C 8.488281 14.691406 8.269531 14.773438 8.011719 14.773438 L 8.011719 14.226562 C 8.269531 14.226562 8.488281 14.144531 8.675781 13.984375 C 10.863281 12.085938 13.054688 10.1875 15.246094 8.292969 C 15.433594 8.128906 15.527344 7.917969 15.527344 7.710938 Z M 15.527344 7.710938 "/>
<path style=" stroke:none;fill-rule:nonzero;fill:rgb(92.156863%,38.039216%,23.529412%);fill-opacity:1;" d="M 0.472656 8.253906 L 0.472656 7.707031 C 0.472656 7.9375 0.578125 8.167969 0.769531 8.335938 C 2.933594 10.210938 5.097656 12.085938 7.261719 13.960938 C 7.464844 14.136719 7.710938 14.214844 8.011719 14.226562 L 8.011719 14.773438 C 7.710938 14.761719 7.464844 14.683594 7.261719 14.507812 C 5.097656 12.632812 2.933594 10.757812 0.769531 8.882812 C 0.578125 8.714844 0.472656 8.484375 0.472656 8.253906 Z M 0.472656 8.253906 "/>
<path style=" stroke:none;fill-rule:nonzero;fill:rgb(92.941177%,46.666667%,39.215687%);fill-opacity:1;" d="M 7.980469 1.195312 C 8.234375 1.195312 8.488281 1.28125 8.683594 1.449219 C 10.871094 3.34375 13.058594 5.234375 15.242188 7.128906 C 15.621094 7.457031 15.621094 7.964844 15.246094 8.292969 C 13.054688 10.1875 10.863281 12.085938 8.675781 13.984375 C 8.488281 14.144531 8.269531 14.226562 8.011719 14.226562 C 7.710938 14.214844 7.464844 14.136719 7.261719 13.960938 C 5.097656 12.085938 2.933594 10.210938 0.769531 8.335938 C 0.464844 8.070312 0.378906 7.648438 0.585938 7.316406 C 0.644531 7.214844 0.71875 7.128906 0.808594 7.050781 C 2.96875 5.183594 5.125 3.316406 7.28125 1.445312 C 7.476562 1.28125 7.726562 1.195312 7.980469 1.195312 Z M 7.980469 1.195312 "/>
<path style=" stroke:none;fill-rule:nonzero;fill:rgb(74.901962%,24.705882%,12.156863%);fill-opacity:1;" d="M 9.101562 5.238281 L 9.101562 5.5 C 9.101562 5.476562 9.101562 5.453125 9.097656 5.429688 C 9.09375 5.210938 8.9375 5.074219 8.6875 5.070312 C 8.574219 5.070312 8.464844 5.070312 8.355469 5.070312 C 8.253906 5.070312 8.152344 5.070312 8.050781 5.070312 L 8.035156 5.070312 C 7.917969 5.070312 7.804688 5.070312 7.691406 5.070312 C 7.566406 5.070312 7.4375 5.070312 7.3125 5.070312 C 7.125 5.070312 6.96875 5.15625 6.929688 5.292969 L 6.929688 5.03125 C 6.96875 4.890625 7.125 4.808594 7.3125 4.808594 C 7.4375 4.808594 7.566406 4.808594 7.691406 4.808594 C 7.804688 4.808594 7.917969 4.808594 8.035156 4.808594 L 8.050781 4.808594 C 8.152344 4.808594 8.253906 4.808594 8.355469 4.808594 C 8.464844 4.808594 8.574219 4.808594 8.6875 4.808594 C 8.9375 4.808594 9.09375 4.949219 9.097656 5.167969 C 9.101562 5.191406 9.101562 5.214844 9.101562 5.238281 Z M 9.101562 5.238281 "/>
<path style=" stroke:none;fill-rule:nonzero;fill:rgb(74.901962%,24.705882%,12.156863%);fill-opacity:1;" d="M 9.101562 5.238281 L 9.101562 5.5 C 9.101562 5.476562 9.101562 5.453125 9.097656 5.429688 C 9.09375 5.210938 8.9375 5.074219 8.6875 5.070312 C 8.574219 5.070312 8.464844 5.070312 8.355469 5.070312 C 8.253906 5.070312 8.152344 5.070312 8.050781 5.070312 L 8.035156 5.070312 C 7.917969 5.070312 7.804688 5.070312 7.691406 5.070312 C 7.566406 5.070312 7.4375 5.070312 7.3125 5.070312 C 7.285156 5.070312 7.261719 5.074219 7.234375 5.078125 L 7.234375 4.8125 C 7.261719 4.8125 7.285156 4.808594 7.3125 4.808594 C 7.4375 4.808594 7.566406 4.808594 7.691406 4.808594 C 7.804688 4.808594 7.917969 4.808594 8.035156 4.808594 L 8.050781 4.808594 C 8.152344 4.808594 8.253906 4.808594 8.355469 4.808594 C 8.464844 4.808594 8.574219 4.808594 8.6875 4.808594 C 8.9375 4.8125 9.09375 4.949219 9.097656 5.167969 C 9.101562 5.191406 9.101562 5.214844 9.101562 5.238281 "/>
<path style=" stroke:none;fill-rule:nonzero;fill:rgb(74.901962%,24.705882%,12.156863%);fill-opacity:1;" d="M 7.234375 4.8125 L 7.234375 5.078125 C 7.195312 5.082031 7.160156 5.089844 7.125 5.101562 L 7.125 4.839844 C 7.160156 4.828125 7.195312 4.820312 7.234375 4.8125 "/>
<path style=" stroke:none;fill-rule:nonzero;fill:rgb(74.901962%,24.705882%,12.156863%);fill-opacity:1;" d="M 7.125 4.839844 L 7.125 5.101562 C 7.097656 5.113281 7.074219 5.125 7.050781 5.140625 L 7.050781 4.878906 C 7.074219 4.863281 7.097656 4.851562 7.125 4.839844 M 7.050781 4.878906 L 7.050781 5.140625 C 7.023438 5.15625 7 5.179688 6.980469 5.199219 L 6.980469 4.9375 C 7 4.914062 7.023438 4.894531 7.050781 4.878906 M 6.980469 4.9375 L 6.980469 5.199219 C 6.957031 5.226562 6.9375 5.257812 6.929688 5.292969 L 6.929688 5.03125 C 6.9375 4.996094 6.957031 4.964844 6.980469 4.9375 "/>
<path style=" stroke:none;fill-rule:nonzero;fill:rgb(92.156863%,37.64706%,21.176471%);fill-opacity:1;" d="M 8.042969 4.808594 L 8.050781 4.808594 C 8.152344 4.808594 8.253906 4.808594 8.355469 4.808594 C 8.464844 4.808594 8.574219 4.808594 8.6875 4.808594 C 8.9375 4.8125 9.09375 4.949219 9.097656 5.167969 C 9.101562 5.191406 9.101562 5.214844 9.101562 5.238281 C 9.101562 5.277344 9.101562 5.316406 9.101562 5.355469 L 6.890625 5.355469 C 6.902344 5.246094 6.898438 5.132812 6.929688 5.03125 C 6.96875 4.890625 7.125 4.808594 7.3125 4.808594 C 7.4375 4.808594 7.566406 4.808594 7.691406 4.808594 C 7.804688 4.808594 7.917969 4.808594 8.035156 4.808594 Z M 8.042969 4.808594 "/>
<path style=" stroke:none;fill-rule:nonzero;fill:rgb(74.901962%,24.705882%,12.156863%);fill-opacity:1;" d="M 11.1875 5.53125 L 11.1875 5.792969 C 11.1875 5.882812 11.105469 5.960938 10.988281 5.964844 C 10.964844 5.964844 10.941406 5.964844 10.917969 5.964844 C 10.882812 5.964844 10.847656 5.964844 10.8125 5.964844 C 10.792969 5.964844 10.773438 5.964844 10.753906 5.964844 C 10.714844 5.964844 10.675781 5.964844 10.628906 5.964844 L 10.628906 5.703125 C 10.675781 5.703125 10.714844 5.703125 10.753906 5.703125 C 10.773438 5.703125 10.792969 5.703125 10.8125 5.703125 C 10.847656 5.703125 10.882812 5.703125 10.917969 5.703125 C 10.941406 5.703125 10.964844 5.703125 10.988281 5.703125 C 11.105469 5.699219 11.1875 5.621094 11.1875 5.53125 Z M 11.1875 5.53125 "/>
<path style=" stroke:none;fill-rule:nonzero;fill:rgb(74.901962%,24.705882%,12.156863%);fill-opacity:1;" d="M 11.1875 5.539062 L 11.1875 5.804688 C 11.183594 5.835938 11.171875 5.867188 11.148438 5.890625 L 11.148438 5.628906 C 11.171875 5.605469 11.183594 5.574219 11.1875 5.539062 "/>
<path style=" stroke:none;fill-rule:nonzero;fill:rgb(74.901962%,24.705882%,12.156863%);fill-opacity:1;" d="M 11.148438 5.628906 L 11.148438 5.890625 C 11.136719 5.90625 11.125 5.917969 11.109375 5.929688 L 11.109375 5.667969 C 11.125 5.65625 11.136719 5.644531 11.148438 5.628906 M 11.109375 5.667969 L 11.109375 5.929688 C 11.097656 5.9375 11.082031 5.945312 11.066406 5.949219 L 11.066406 5.6875 C 11.082031 5.679688 11.097656 5.675781 11.109375 5.667969 "/>
<path style=" stroke:none;fill-rule:nonzero;fill:rgb(74.901962%,24.705882%,12.156863%);fill-opacity:1;" d="M 11.066406 5.6875 L 11.066406 5.949219 C 11.050781 5.953125 11.035156 5.960938 11.015625 5.960938 L 11.015625 5.699219 C 11.035156 5.695312 11.050781 5.691406 11.066406 5.6875 M 11.015625 5.699219 L 11.015625 5.960938 C 11.007812 5.960938 11 5.964844 10.988281 5.964844 C 10.964844 5.964844 10.941406 5.964844 10.917969 5.964844 C 10.882812 5.964844 10.847656 5.964844 10.8125 5.964844 C 10.792969 5.964844 10.773438 5.964844 10.753906 5.964844 C 10.714844 5.964844 10.675781 5.964844 10.628906 5.964844 L 10.628906 5.703125 C 10.675781 5.703125 10.714844 5.703125 10.753906 5.703125 C 10.773438 5.703125 10.792969 5.703125 10.8125 5.703125 C 10.847656 5.703125 10.882812 5.703125 10.917969 5.703125 C 10.941406 5.703125 10.964844 5.703125 10.988281 5.703125 C 11 5.699219 11.007812 5.699219 11.015625 5.699219 "/>
<path style=" stroke:none;fill-rule:nonzero;fill:rgb(74.901962%,24.705882%,12.156863%);fill-opacity:1;" d="M 4.8125 5.792969 L 4.8125 5.53125 C 4.8125 5.625 4.894531 5.699219 5.011719 5.699219 C 5.058594 5.703125 5.101562 5.703125 5.148438 5.703125 C 5.222656 5.703125 5.292969 5.703125 5.371094 5.703125 L 5.371094 5.964844 C 5.292969 5.964844 5.222656 5.964844 5.148438 5.964844 C 5.101562 5.964844 5.058594 5.964844 5.011719 5.964844 C 4.894531 5.960938 4.8125 5.886719 4.8125 5.792969 Z M 4.8125 5.792969 "/>
<path style=" stroke:none;fill-rule:nonzero;fill:rgb(74.901962%,24.705882%,12.156863%);fill-opacity:1;" d="M 5.371094 5.703125 L 5.371094 5.964844 C 5.292969 5.964844 5.222656 5.964844 5.148438 5.964844 C 5.101562 5.964844 5.058594 5.964844 5.011719 5.964844 C 4.894531 5.960938 4.8125 5.886719 4.8125 5.792969 L 4.8125 5.53125 C 4.8125 5.625 4.894531 5.699219 5.011719 5.699219 C 5.058594 5.703125 5.101562 5.703125 5.148438 5.703125 C 5.222656 5.703125 5.292969 5.703125 5.371094 5.703125 "/>
<path style=" stroke:none;fill-rule:nonzero;fill:rgb(74.901962%,24.705882%,12.156863%);fill-opacity:1;" d="M 7.945312 6.589844 C 7.90625 6.601562 7.875 6.617188 7.851562 6.636719 C 7.851562 6.523438 7.851562 6.507812 7.847656 6.382812 C 7.871094 6.355469 7.902344 6.339844 7.945312 6.328125 C 7.949219 6.328125 7.953125 6.328125 7.957031 6.324219 C 7.96875 6.324219 7.984375 6.320312 8 6.320312 C 8.003906 6.320312 8.007812 6.320312 8.011719 6.320312 C 8.089844 6.324219 8.160156 6.371094 8.1875 6.4375 C 8.191406 6.449219 8.195312 6.460938 8.195312 6.472656 C 8.199219 6.484375 8.199219 6.5 8.199219 6.511719 L 8.199219 6.777344 C 8.199219 6.761719 8.199219 6.75 8.195312 6.734375 C 8.195312 6.722656 8.191406 6.710938 8.1875 6.699219 C 8.160156 6.632812 8.089844 6.585938 8.011719 6.582031 C 8.007812 6.582031 8.003906 6.582031 8 6.582031 C 7.984375 6.582031 7.96875 6.585938 7.957031 6.589844 C 7.953125 6.589844 7.949219 6.589844 7.945312 6.589844 Z M 7.945312 6.589844 "/>
<path style=" stroke:none;fill-rule:nonzero;fill:rgb(74.901962%,24.705882%,12.156863%);fill-opacity:1;" d="M 8.199219 6.511719 L 8.199219 6.777344 C 8.199219 6.761719 8.199219 6.75 8.195312 6.734375 C 8.195312 6.722656 8.191406 6.710938 8.1875 6.699219 C 8.160156 6.632812 8.089844 6.585938 8.011719 6.582031 C 8.007812 6.582031 8.003906 6.582031 8 6.582031 C 7.992188 6.582031 7.980469 6.585938 7.96875 6.585938 L 7.96875 6.324219 C 7.980469 6.320312 7.988281 6.320312 8 6.320312 C 8.003906 6.320312 8.007812 6.320312 8.011719 6.320312 C 8.089844 6.324219 8.160156 6.371094 8.1875 6.4375 C 8.191406 6.449219 8.195312 6.460938 8.195312 6.472656 C 8.199219 6.484375 8.199219 6.5 8.199219 6.511719 "/>
<path style=" stroke:none;fill-rule:nonzero;fill:rgb(74.901962%,24.705882%,12.156863%);fill-opacity:1;" d="M 7.96875 6.324219 L 7.96875 6.585938 C 7.964844 6.585938 7.960938 6.585938 7.957031 6.589844 C 7.941406 6.589844 7.929688 6.59375 7.917969 6.597656 L 7.917969 6.335938 C 7.929688 6.332031 7.941406 6.328125 7.957031 6.324219 C 7.960938 6.324219 7.964844 6.324219 7.96875 6.324219 "/>
<path style=" stroke:none;fill-rule:nonzero;fill:rgb(74.901962%,24.705882%,12.156863%);fill-opacity:1;" d="M 7.917969 6.335938 L 7.917969 6.597656 C 7.902344 6.605469 7.890625 6.609375 7.878906 6.617188 L 7.878906 6.355469 C 7.890625 6.347656 7.90625 6.339844 7.917969 6.335938 "/>
<path style=" stroke:none;fill-rule:nonzero;fill:rgb(74.901962%,24.705882%,12.156863%);fill-opacity:1;" d="M 7.878906 6.355469 L 7.878906 6.617188 C 7.863281 6.628906 7.851562 6.636719 7.839844 6.648438 L 7.839844 6.386719 C 7.851562 6.375 7.863281 6.363281 7.878906 6.355469 "/>
<path style=" stroke:none;fill-rule:nonzero;fill:rgb(74.901962%,24.705882%,12.156863%);fill-opacity:1;" d="M 6.6875 6.773438 C 6.675781 6.773438 6.664062 6.777344 6.652344 6.777344 C 6.652344 6.691406 6.652344 6.601562 6.652344 6.515625 C 6.667969 6.511719 6.683594 6.511719 6.703125 6.511719 C 6.703125 6.511719 6.703125 6.511719 6.707031 6.511719 L 6.707031 6.773438 C 6.703125 6.773438 6.703125 6.773438 6.703125 6.773438 C 6.695312 6.773438 6.691406 6.773438 6.6875 6.773438 Z M 6.6875 6.773438 "/>
<path style=" stroke:none;fill-rule:nonzero;fill:rgb(74.901962%,24.705882%,12.156863%);fill-opacity:1;" d="M 6.898438 6.738281 L 6.898438 7 C 6.898438 6.972656 6.898438 6.945312 6.894531 6.917969 C 6.882812 6.839844 6.8125 6.78125 6.722656 6.773438 C 6.710938 6.773438 6.699219 6.773438 6.6875 6.773438 C 6.679688 6.773438 6.671875 6.773438 6.664062 6.777344 L 6.664062 6.511719 C 6.675781 6.511719 6.6875 6.511719 6.703125 6.511719 C 6.707031 6.511719 6.714844 6.511719 6.722656 6.511719 C 6.8125 6.519531 6.882812 6.574219 6.894531 6.652344 C 6.898438 6.679688 6.898438 6.710938 6.898438 6.738281 M 6.664062 6.511719 L 6.664062 6.777344 C 6.648438 6.777344 6.632812 6.78125 6.621094 6.785156 L 6.621094 6.523438 C 6.632812 6.519531 6.648438 6.515625 6.664062 6.511719 "/>
<path style=" stroke:none;fill-rule:nonzero;fill:rgb(74.901962%,24.705882%,12.156863%);fill-opacity:1;" d="M 9.101562 6.925781 L 9.101562 6.664062 C 9.113281 6.574219 9.191406 6.511719 9.300781 6.511719 L 9.300781 6.773438 C 9.191406 6.773438 9.113281 6.835938 9.101562 6.925781 Z M 9.101562 6.925781 "/>
<path style=" stroke:none;fill-rule:nonzero;fill:rgb(74.901962%,24.705882%,12.156863%);fill-opacity:1;" d="M 9.304688 6.511719 L 9.304688 6.773438 C 9.289062 6.773438 9.277344 6.773438 9.265625 6.777344 L 9.265625 6.511719 C 9.277344 6.511719 9.289062 6.511719 9.304688 6.511719 M 9.265625 6.511719 L 9.265625 6.777344 C 9.25 6.777344 9.234375 6.78125 9.21875 6.789062 L 9.21875 6.523438 C 9.234375 6.519531 9.25 6.515625 9.265625 6.511719 M 9.21875 6.523438 L 9.21875 6.789062 C 9.203125 6.792969 9.191406 6.800781 9.179688 6.808594 L 9.179688 6.542969 C 9.191406 6.535156 9.203125 6.53125 9.21875 6.523438 M 9.179688 6.542969 L 9.179688 6.808594 C 9.164062 6.816406 9.152344 6.828125 9.140625 6.839844 L 9.140625 6.578125 C 9.152344 6.566406 9.164062 6.554688 9.179688 6.542969 M 9.140625 6.578125 L 9.140625 6.839844 C 9.121094 6.863281 9.105469 6.894531 9.101562 6.929688 C 9.101562 6.9375 9.101562 6.941406 9.101562 6.949219 L 9.101562 6.683594 C 9.101562 6.679688 9.101562 6.671875 9.101562 6.667969 C 9.105469 6.632812 9.121094 6.601562 9.140625 6.578125 "/>
<path style=" stroke:none;fill-rule:nonzero;fill:rgb(74.901962%,24.705882%,12.156863%);fill-opacity:1;" d="M 9.496094 6.925781 C 9.484375 6.835938 9.402344 6.773438 9.304688 6.773438 L 9.304688 6.511719 C 9.402344 6.511719 9.484375 6.574219 9.496094 6.664062 Z M 9.496094 6.925781 "/>
<path style=" stroke:none;fill-rule:nonzero;fill:rgb(74.901962%,24.705882%,12.156863%);fill-opacity:1;" d="M 9.496094 6.703125 L 9.496094 6.964844 C 9.496094 6.953125 9.496094 6.941406 9.496094 6.929688 C 9.484375 6.839844 9.402344 6.773438 9.304688 6.773438 L 9.304688 6.511719 C 9.402344 6.511719 9.484375 6.574219 9.496094 6.664062 C 9.496094 6.675781 9.496094 6.691406 9.496094 6.703125 "/>
<path style=" stroke:none;fill-rule:nonzero;fill:rgb(74.901962%,24.705882%,12.156863%);fill-opacity:1;" d="M 6.652344 6.777344 C 6.558594 6.796875 6.503906 6.867188 6.503906 6.972656 L 6.503906 6.710938 C 6.503906 6.605469 6.558594 6.535156 6.652344 6.515625 C 6.652344 6.554688 6.652344 6.738281 6.652344 6.777344 Z M 6.652344 6.777344 "/>
<path style=" stroke:none;fill-rule:nonzero;fill:rgb(74.901962%,24.705882%,12.156863%);fill-opacity:1;" d="M 6.664062 6.511719 L 6.664062 6.777344 C 6.648438 6.777344 6.632812 6.78125 6.621094 6.785156 L 6.621094 6.523438 C 6.632812 6.519531 6.648438 6.515625 6.664062 6.511719 M 6.621094 6.523438 L 6.621094 6.785156 C 6.605469 6.792969 6.59375 6.796875 6.585938 6.804688 L 6.585938 6.542969 C 6.59375 6.535156 6.605469 6.527344 6.621094 6.523438 "/>
<path style=" stroke:none;fill-rule:nonzero;fill:rgb(74.901962%,24.705882%,12.156863%);fill-opacity:1;" d="M 6.585938 6.542969 L 6.585938 6.804688 C 6.570312 6.8125 6.558594 6.824219 6.546875 6.835938 L 6.546875 6.574219 C 6.558594 6.5625 6.570312 6.550781 6.585938 6.542969 M 6.546875 6.574219 L 6.546875 6.835938 C 6.519531 6.867188 6.503906 6.90625 6.503906 6.953125 L 6.503906 6.691406 C 6.503906 6.644531 6.519531 6.605469 6.546875 6.574219 M 6.503906 6.691406 L 6.503906 6.953125 C 6.503906 6.960938 6.503906 6.964844 6.503906 6.972656 L 6.503906 6.710938 C 6.503906 6.703125 6.503906 6.699219 6.503906 6.691406 "/>
<path style=" stroke:none;fill-rule:nonzero;fill:rgb(74.901962%,24.705882%,12.156863%);fill-opacity:1;" d="M 6.710938 6.773438 L 6.707031 6.773438 L 6.707031 6.511719 C 6.707031 6.511719 6.710938 6.511719 6.710938 6.511719 C 6.714844 6.511719 6.71875 6.511719 6.722656 6.511719 C 6.8125 6.519531 6.882812 6.574219 6.894531 6.652344 C 6.898438 6.679688 6.898438 6.710938 6.898438 6.738281 L 6.898438 7 C 6.898438 6.972656 6.898438 6.945312 6.894531 6.917969 C 6.882812 6.839844 6.8125 6.78125 6.722656 6.773438 C 6.71875 6.773438 6.714844 6.773438 6.710938 6.773438 Z M 6.710938 6.765625 L 6.710938 6.773438 L 6.710938 6.765625 "/>
<path style=" stroke:none;fill-rule:nonzero;fill:rgb(74.901962%,24.705882%,12.156863%);fill-opacity:1;" d="M 6.898438 6.738281 L 6.898438 7 C 6.898438 6.972656 6.898438 6.945312 6.894531 6.917969 C 6.882812 6.839844 6.8125 6.78125 6.722656 6.773438 C 6.710938 6.773438 6.699219 6.773438 6.6875 6.773438 C 6.679688 6.773438 6.671875 6.773438 6.664062 6.777344 L 6.664062 6.511719 C 6.675781 6.511719 6.6875 6.511719 6.703125 6.511719 C 6.707031 6.511719 6.714844 6.511719 6.722656 6.511719 C 6.8125 6.519531 6.882812 6.574219 6.894531 6.652344 C 6.898438 6.679688 6.898438 6.710938 6.898438 6.738281 "/>
<path style=" stroke:none;fill-rule:nonzero;fill:rgb(85.882354%,26.666668%,8.627451%);fill-opacity:1;" d="M 6.699219 6.511719 C 6.707031 6.511719 6.714844 6.511719 6.722656 6.511719 C 6.8125 6.519531 6.882812 6.574219 6.894531 6.652344 C 6.898438 6.679688 6.898438 6.710938 6.898438 6.738281 C 6.898438 6.953125 6.898438 7.164062 6.898438 7.378906 L 6.898438 8.015625 C 6.898438 8.234375 6.898438 8.449219 6.898438 8.664062 C 6.898438 8.882812 6.898438 9.097656 6.902344 9.3125 C 6.902344 9.398438 6.875 9.464844 6.78125 9.503906 C 6.753906 9.515625 6.730469 9.519531 6.703125 9.519531 C 6.605469 9.519531 6.523438 9.460938 6.503906 9.375 C 6.503906 9.355469 6.503906 9.34375 6.503906 9.332031 L 6.503906 9.320312 C 6.503906 8.886719 6.503906 8.449219 6.503906 8.015625 C 6.503906 7.578125 6.503906 7.144531 6.503906 6.710938 C 6.503906 6.589844 6.574219 6.515625 6.6875 6.511719 C 6.691406 6.511719 6.695312 6.511719 6.699219 6.511719 Z M 6.699219 6.511719 "/>
<path style=" stroke:none;fill-rule:nonzero;fill:rgb(92.156863%,37.64706%,21.176471%);fill-opacity:1;" d="M 10.230469 7.738281 C 10.230469 8.390625 10.230469 9.042969 10.234375 9.695312 C 10.234375 9.953125 10.125 10.15625 9.851562 10.265625 C 9.753906 10.304688 9.636719 10.324219 9.527344 10.328125 C 9.246094 10.328125 8.964844 10.328125 8.683594 10.328125 C 8.402344 10.328125 8.125 10.328125 7.847656 10.328125 C 7.550781 10.328125 7.269531 10.328125 6.988281 10.328125 L 6.476562 10.328125 C 6.132812 10.328125 5.878906 10.167969 5.792969 9.894531 C 5.773438 9.835938 5.769531 9.773438 5.769531 9.714844 C 5.769531 8.890625 5.769531 8.070312 5.769531 7.246094 L 5.769531 5.703125 L 10.230469 5.703125 L 10.230469 5.777344 C 10.230469 6.433594 10.230469 7.085938 10.230469 7.738281 Z M 8.199219 9.519531 C 8.199219 9.269531 8.199219 9.019531 8.199219 8.769531 C 8.199219 8.519531 8.199219 8.269531 8.199219 8.019531 C 8.199219 7.527344 8.199219 7.035156 8.199219 6.542969 C 8.199219 6.535156 8.199219 6.523438 8.199219 6.511719 C 8.199219 6.5 8.199219 6.484375 8.195312 6.472656 C 8.195312 6.460938 8.191406 6.449219 8.1875 6.4375 C 8.160156 6.371094 8.089844 6.324219 8.011719 6.320312 C 8.007812 6.320312 8.003906 6.320312 8 6.320312 C 7.984375 6.320312 7.96875 6.324219 7.957031 6.324219 C 7.953125 6.328125 7.949219 6.328125 7.945312 6.328125 C 7.851562 6.351562 7.800781 6.414062 7.800781 6.511719 C 7.800781 7.011719 7.800781 7.515625 7.800781 8.015625 C 7.800781 8.515625 7.800781 9.015625 7.800781 9.519531 C 7.800781 9.53125 7.800781 9.542969 7.804688 9.554688 C 7.8125 9.628906 7.875 9.691406 7.960938 9.703125 C 7.96875 9.707031 7.980469 9.707031 7.988281 9.707031 C 7.996094 9.710938 8.007812 9.710938 8.015625 9.707031 C 8.121094 9.703125 8.195312 9.628906 8.199219 9.519531 M 6.78125 9.503906 C 6.875 9.464844 6.902344 9.398438 6.902344 9.3125 C 6.898438 9.097656 6.898438 8.882812 6.898438 8.664062 C 6.898438 8.449219 6.898438 8.234375 6.898438 8.015625 L 6.898438 7.378906 C 6.898438 7.164062 6.898438 6.953125 6.898438 6.738281 C 6.898438 6.710938 6.898438 6.679688 6.894531 6.652344 C 6.882812 6.574219 6.8125 6.519531 6.722656 6.511719 C 6.710938 6.511719 6.699219 6.511719 6.6875 6.511719 C 6.574219 6.515625 6.503906 6.589844 6.503906 6.710938 C 6.503906 7.144531 6.503906 7.578125 6.503906 8.015625 L 6.503906 9.332031 C 6.503906 9.34375 6.503906 9.355469 6.503906 9.371094 C 6.523438 9.460938 6.605469 9.519531 6.695312 9.519531 C 6.730469 9.519531 6.753906 9.515625 6.78125 9.503906 M 9.496094 8.664062 C 9.496094 8.445312 9.496094 8.230469 9.496094 8.015625 L 9.496094 6.730469 C 9.496094 6.722656 9.496094 6.710938 9.496094 6.703125 C 9.496094 6.691406 9.496094 6.675781 9.496094 6.664062 C 9.484375 6.574219 9.402344 6.511719 9.304688 6.511719 C 9.191406 6.511719 9.113281 6.574219 9.101562 6.667969 C 9.101562 6.6875 9.101562 6.710938 9.101562 6.734375 C 9.097656 7.589844 9.097656 8.441406 9.101562 9.296875 C 9.101562 9.320312 9.101562 9.347656 9.101562 9.371094 C 9.113281 9.449219 9.183594 9.511719 9.277344 9.519531 C 9.28125 9.519531 9.289062 9.519531 9.292969 9.519531 C 9.304688 9.519531 9.308594 9.519531 9.3125 9.519531 C 9.390625 9.515625 9.460938 9.46875 9.484375 9.402344 C 9.496094 9.371094 9.496094 9.339844 9.496094 9.308594 C 9.496094 9.09375 9.496094 8.878906 9.496094 8.664062 "/>
<path style=" stroke:none;fill-rule:nonzero;fill:rgb(85.882354%,26.666668%,8.627451%);fill-opacity:1;" d="M 7.996094 6.320312 C 8.003906 6.320312 8.007812 6.320312 8.011719 6.320312 C 8.089844 6.324219 8.160156 6.371094 8.1875 6.4375 C 8.191406 6.449219 8.195312 6.460938 8.195312 6.472656 C 8.199219 6.484375 8.199219 6.5 8.199219 6.511719 C 8.199219 6.523438 8.199219 6.535156 8.199219 6.542969 C 8.199219 7.035156 8.199219 7.527344 8.199219 8.019531 C 8.199219 8.269531 8.199219 8.519531 8.199219 8.769531 C 8.199219 9.019531 8.199219 9.269531 8.199219 9.519531 C 8.195312 9.628906 8.121094 9.703125 8.015625 9.707031 C 8.011719 9.707031 8.007812 9.707031 8.003906 9.707031 C 8 9.707031 7.992188 9.707031 7.988281 9.707031 C 7.980469 9.707031 7.96875 9.707031 7.960938 9.707031 C 7.875 9.691406 7.8125 9.628906 7.804688 9.554688 C 7.800781 9.542969 7.800781 9.53125 7.800781 9.519531 C 7.800781 9.015625 7.800781 8.515625 7.800781 8.015625 C 7.800781 7.515625 7.800781 7.011719 7.800781 6.511719 C 7.800781 6.414062 7.851562 6.351562 7.945312 6.328125 C 7.949219 6.328125 7.953125 6.328125 7.957031 6.324219 C 7.96875 6.324219 7.984375 6.320312 7.996094 6.320312 Z M 7.996094 6.320312 "/>
<path style=" stroke:none;fill-rule:nonzero;fill:rgb(74.901962%,24.705882%,12.156863%);fill-opacity:1;" d="M 10.234375 9.695312 L 10.234375 9.957031 C 10.234375 10.214844 10.125 10.417969 9.851562 10.527344 C 9.753906 10.570312 9.636719 10.589844 9.527344 10.589844 C 9.246094 10.589844 8.964844 10.589844 8.683594 10.589844 C 8.402344 10.589844 8.125 10.59375 7.847656 10.59375 C 7.550781 10.59375 7.269531 10.589844 6.988281 10.589844 C 6.816406 10.589844 6.644531 10.589844 6.476562 10.589844 C 6.132812 10.589844 5.878906 10.429688 5.792969 10.15625 C 5.773438 10.097656 5.769531 10.035156 5.769531 9.976562 L 5.769531 9.714844 C 5.769531 9.773438 5.773438 9.835938 5.792969 9.894531 C 5.878906 10.167969 6.132812 10.328125 6.476562 10.328125 C 6.644531 10.328125 6.816406 10.328125 6.988281 10.328125 C 7.269531 10.328125 7.550781 10.328125 7.847656 10.328125 C 8.125 10.328125 8.402344 10.328125 8.683594 10.328125 C 8.964844 10.328125 9.246094 10.328125 9.527344 10.328125 C 9.636719 10.324219 9.753906 10.304688 9.851562 10.265625 C 10.125 10.15625 10.234375 9.953125 10.234375 9.695312 Z M 10.234375 9.695312 "/>
<path style=" stroke:none;fill-rule:nonzero;fill:rgb(74.901962%,24.705882%,12.156863%);fill-opacity:1;" d="M 10.234375 9.695312 L 10.234375 9.957031 C 10.234375 9.976562 10.230469 9.992188 10.230469 10.007812 L 10.230469 9.746094 C 10.230469 9.730469 10.234375 9.710938 10.234375 9.695312 M 10.230469 9.746094 L 10.230469 10.007812 C 10.222656 10.140625 10.183594 10.257812 10.101562 10.355469 L 10.101562 10.09375 C 10.183594 9.996094 10.222656 9.878906 10.230469 9.746094 M 10.101562 10.09375 L 10.101562 10.355469 C 10.066406 10.394531 10.023438 10.433594 9.972656 10.464844 L 9.972656 10.203125 C 10.023438 10.171875 10.066406 10.132812 10.101562 10.09375 M 9.972656 10.203125 L 9.972656 10.464844 C 9.9375 10.488281 9.894531 10.511719 9.851562 10.527344 C 9.84375 10.53125 9.835938 10.535156 9.828125 10.539062 L 9.828125 10.273438 C 9.835938 10.273438 9.84375 10.269531 9.851562 10.265625 C 9.894531 10.246094 9.9375 10.226562 9.972656 10.203125 M 9.828125 10.273438 L 9.828125 10.539062 C 9.773438 10.558594 9.714844 10.570312 9.652344 10.578125 L 9.652344 10.316406 C 9.714844 10.308594 9.773438 10.292969 9.828125 10.273438 M 9.652344 10.316406 L 9.652344 10.578125 C 9.609375 10.585938 9.570312 10.589844 9.527344 10.589844 C 9.246094 10.589844 8.964844 10.589844 8.683594 10.589844 C 8.402344 10.589844 8.125 10.59375 7.847656 10.59375 C 7.550781 10.59375 7.269531 10.589844 6.988281 10.589844 C 6.816406 10.589844 6.644531 10.589844 6.476562 10.589844 C 6.132812 10.589844 5.878906 10.429688 5.792969 10.15625 C 5.773438 10.097656 5.769531 10.035156 5.769531 9.976562 L 5.769531 9.714844 C 5.769531 9.773438 5.773438 9.835938 5.792969 9.894531 C 5.878906 10.167969 6.132812 10.328125 6.476562 10.328125 C 6.644531 10.328125 6.816406 10.328125 6.988281 10.328125 C 7.269531 10.328125 7.550781 10.328125 7.847656 10.328125 C 8.125 10.328125 8.402344 10.328125 8.683594 10.328125 C 8.964844 10.328125 9.246094 10.328125 9.527344 10.328125 C 9.570312 10.324219 9.609375 10.324219 9.652344 10.316406 "/>
<path style=" stroke:none;fill-rule:nonzero;fill:rgb(85.882354%,26.666668%,8.627451%);fill-opacity:1;" d="M 11.171875 5.46875 C 11.222656 5.582031 11.132812 5.695312 10.988281 5.703125 C 10.964844 5.703125 10.941406 5.703125 10.917969 5.703125 C 10.882812 5.703125 10.847656 5.703125 10.8125 5.703125 C 10.792969 5.703125 10.773438 5.703125 10.753906 5.703125 C 10.714844 5.703125 10.675781 5.703125 10.628906 5.703125 L 10.628906 5.78125 C 10.628906 7.09375 10.632812 8.40625 10.628906 9.71875 C 10.628906 10.117188 10.417969 10.414062 10 10.589844 C 9.863281 10.648438 9.714844 10.671875 9.5625 10.671875 C 8.945312 10.671875 8.328125 10.671875 7.710938 10.671875 C 7.289062 10.671875 6.863281 10.671875 6.4375 10.671875 C 5.828125 10.667969 5.371094 10.261719 5.371094 9.722656 C 5.367188 8.675781 5.371094 7.628906 5.371094 6.582031 C 5.371094 6.3125 5.371094 6.046875 5.371094 5.777344 L 5.371094 5.703125 C 5.292969 5.703125 5.222656 5.703125 5.148438 5.703125 C 5.101562 5.703125 5.058594 5.703125 5.011719 5.699219 C 4.871094 5.699219 4.78125 5.59375 4.820312 5.480469 C 4.84375 5.414062 4.910156 5.367188 4.988281 5.359375 C 5.011719 5.359375 5.03125 5.359375 5.050781 5.359375 L 5.074219 5.359375 C 5.519531 5.359375 5.964844 5.359375 6.410156 5.359375 L 6.503906 5.359375 C 6.503906 5.296875 6.503906 5.242188 6.5 5.1875 C 6.488281 4.773438 6.839844 4.507812 7.171875 4.472656 C 7.730469 4.464844 8.269531 4.464844 8.8125 4.464844 C 8.871094 4.480469 8.933594 4.492188 8.992188 4.511719 C 9.285156 4.609375 9.488281 4.851562 9.496094 5.125 C 9.5 5.199219 9.496094 5.273438 9.496094 5.359375 L 9.582031 5.359375 C 9.753906 5.359375 9.925781 5.359375 10.097656 5.359375 C 10.386719 5.359375 10.671875 5.359375 10.960938 5.359375 C 11.074219 5.359375 11.140625 5.394531 11.171875 5.46875 Z M 9.851562 10.265625 C 10.125 10.15625 10.234375 9.953125 10.234375 9.695312 C 10.230469 9.042969 10.230469 8.390625 10.230469 7.738281 C 10.230469 7.085938 10.230469 6.433594 10.230469 5.777344 L 10.230469 5.703125 L 5.769531 5.703125 L 5.769531 7.25 C 5.769531 8.070312 5.769531 8.890625 5.769531 9.714844 C 5.769531 9.773438 5.773438 9.835938 5.792969 9.894531 C 5.878906 10.167969 6.132812 10.328125 6.476562 10.328125 C 6.644531 10.328125 6.816406 10.328125 6.988281 10.328125 C 7.269531 10.328125 7.550781 10.328125 7.832031 10.328125 C 8.125 10.328125 8.402344 10.328125 8.683594 10.328125 C 8.964844 10.328125 9.246094 10.328125 9.527344 10.328125 C 9.636719 10.324219 9.753906 10.304688 9.851562 10.265625 M 6.929688 5.03125 C 6.898438 5.132812 6.902344 5.246094 6.890625 5.355469 L 9.097656 5.355469 C 9.097656 5.316406 9.101562 5.277344 9.101562 5.238281 C 9.101562 5.214844 9.101562 5.191406 9.097656 5.167969 C 9.09375 4.949219 8.9375 4.808594 8.6875 4.808594 C 8.574219 4.808594 8.464844 4.808594 8.355469 4.808594 C 8.253906 4.808594 8.152344 4.808594 8.050781 4.808594 L 8.035156 4.808594 C 7.917969 4.808594 7.804688 4.808594 7.691406 4.808594 C 7.566406 4.808594 7.4375 4.808594 7.3125 4.808594 C 7.125 4.808594 6.96875 4.890625 6.929688 5.03125 "/>
<path style=" stroke:none;fill-rule:nonzero;fill:rgb(85.882354%,26.666668%,8.627451%);fill-opacity:1;" d="M 9.296875 6.511719 C 9.40625 6.511719 9.484375 6.574219 9.496094 6.664062 C 9.496094 6.675781 9.496094 6.691406 9.496094 6.703125 C 9.496094 6.710938 9.496094 6.722656 9.496094 6.730469 L 9.496094 8.015625 C 9.496094 8.230469 9.496094 8.445312 9.496094 8.664062 C 9.496094 8.878906 9.496094 9.09375 9.496094 9.308594 C 9.496094 9.339844 9.496094 9.371094 9.484375 9.402344 C 9.460938 9.46875 9.390625 9.515625 9.3125 9.519531 C 9.308594 9.519531 9.304688 9.519531 9.300781 9.519531 C 9.289062 9.519531 9.28125 9.519531 9.277344 9.519531 C 9.183594 9.511719 9.113281 9.449219 9.101562 9.371094 C 9.101562 9.347656 9.101562 9.320312 9.101562 9.296875 C 9.097656 8.441406 9.097656 7.589844 9.101562 6.734375 C 9.101562 6.710938 9.101562 6.6875 9.101562 6.667969 C 9.113281 6.574219 9.191406 6.511719 9.296875 6.511719 Z M 9.296875 6.511719 "/>
<path style=" stroke:none;fill-rule:nonzero;fill:rgb(74.901962%,24.705882%,12.156863%);fill-opacity:1;" d="M 10.628906 7.992188 L 10.628906 8.253906 C 10.628906 8.828125 10.628906 9.402344 10.628906 9.980469 C 10.628906 10.378906 10.417969 10.675781 10 10.851562 C 9.863281 10.910156 9.714844 10.933594 9.5625 10.933594 C 8.945312 10.933594 8.328125 10.9375 7.710938 10.9375 C 7.289062 10.9375 6.863281 10.933594 6.4375 10.933594 C 5.828125 10.933594 5.371094 10.523438 5.371094 9.984375 C 5.371094 9.5625 5.371094 9.140625 5.371094 8.71875 L 5.371094 8.457031 C 5.371094 8.878906 5.371094 9.300781 5.371094 9.722656 C 5.371094 10.261719 5.828125 10.667969 6.4375 10.671875 C 6.863281 10.671875 7.289062 10.671875 7.710938 10.671875 C 8.328125 10.671875 8.945312 10.671875 9.5625 10.671875 C 9.714844 10.671875 9.863281 10.648438 10 10.589844 C 10.417969 10.414062 10.628906 10.117188 10.628906 9.71875 C 10.628906 9.140625 10.628906 8.566406 10.628906 7.992188 Z M 10.628906 7.992188 "/>
<path style=" stroke:none;fill-rule:nonzero;fill:rgb(74.901962%,24.705882%,12.156863%);fill-opacity:1;" d="M 10.628906 7.992188 L 10.628906 8.253906 C 10.628906 8.828125 10.628906 9.402344 10.628906 9.980469 C 10.628906 10 10.628906 10.023438 10.628906 10.042969 L 10.628906 9.78125 C 10.628906 9.761719 10.628906 9.738281 10.628906 9.71875 C 10.628906 9.140625 10.628906 8.566406 10.628906 7.992188 M 10.628906 9.78125 L 10.628906 10.042969 C 10.617188 10.242188 10.550781 10.410156 10.429688 10.554688 L 10.429688 10.289062 C 10.550781 10.148438 10.617188 9.980469 10.628906 9.78125 M 10.429688 10.289062 L 10.429688 10.554688 C 10.371094 10.625 10.296875 10.6875 10.207031 10.746094 L 10.207031 10.484375 C 10.296875 10.425781 10.371094 10.363281 10.429688 10.289062 M 10.207031 10.484375 L 10.207031 10.746094 C 10.144531 10.785156 10.078125 10.820312 10 10.851562 C 9.988281 10.859375 9.972656 10.863281 9.957031 10.867188 L 9.957031 10.605469 C 9.972656 10.601562 9.988281 10.59375 10 10.589844 C 10.078125 10.558594 10.144531 10.523438 10.207031 10.484375 M 9.957031 10.605469 L 9.957031 10.867188 C 9.886719 10.894531 9.8125 10.914062 9.738281 10.921875 L 9.738281 10.660156 C 9.8125 10.648438 9.886719 10.632812 9.957031 10.605469 M 9.738281 10.660156 L 9.738281 10.921875 C 9.679688 10.929688 9.621094 10.933594 9.5625 10.933594 C 8.945312 10.933594 8.328125 10.9375 7.710938 10.9375 C 7.289062 10.9375 6.863281 10.933594 6.4375 10.933594 C 5.828125 10.933594 5.371094 10.523438 5.371094 9.984375 C 5.371094 9.5625 5.371094 9.140625 5.371094 8.71875 L 5.371094 8.457031 C 5.371094 8.878906 5.371094 9.300781 5.371094 9.722656 C 5.371094 10.261719 5.828125 10.667969 6.4375 10.671875 C 6.863281 10.671875 7.289062 10.671875 7.710938 10.671875 C 8.328125 10.671875 8.945312 10.671875 9.5625 10.671875 C 9.621094 10.671875 9.679688 10.667969 9.738281 10.660156 "/>
</g>
</svg>
