<?xml version="1.0" encoding="UTF-8"?>
<svg xmlns="http://www.w3.org/2000/svg" xmlns:xlink="http://www.w3.org/1999/xlink" width="16px" height="16px" viewBox="0 0 16 16" version="1.1">
<g id="surface1">
<path style=" stroke:none;fill-rule:nonzero;fill:rgb(37.64706%,76.47059%,85.490197%);fill-opacity:1;" d="M 15.527344 7.710938 L 15.527344 8.257812 C 15.527344 8.464844 15.433594 8.675781 15.246094 8.839844 C 13.054688 10.734375 10.863281 12.632812 8.675781 14.53125 C 8.488281 14.691406 8.269531 14.773438 8.011719 14.773438 L 8.011719 14.226562 C 8.269531 14.226562 8.488281 14.144531 8.675781 13.984375 C 10.863281 12.085938 13.054688 10.1875 15.246094 8.292969 C 15.433594 8.128906 15.527344 7.917969 15.527344 7.710938 Z M 15.527344 7.710938 "/>
<path style=" stroke:none;fill-rule:nonzero;fill:rgb(37.64706%,76.47059%,85.490197%);fill-opacity:1;" d="M 0.472656 8.253906 L 0.472656 7.707031 C 0.472656 7.9375 0.578125 8.167969 0.769531 8.335938 C 2.933594 10.210938 5.097656 12.085938 7.261719 13.960938 C 7.464844 14.136719 7.710938 14.214844 8.011719 14.226562 L 8.011719 14.773438 C 7.710938 14.761719 7.464844 14.683594 7.261719 14.507812 C 5.097656 12.632812 2.933594 10.757812 0.769531 8.882812 C 0.578125 8.714844 0.472656 8.484375 0.472656 8.253906 Z M 0.472656 8.253906 "/>
<path style=" stroke:none;fill-rule:nonzero;fill:rgb(59.215689%,83.137256%,88.235295%);fill-opacity:1;" d="M 7.980469 1.195312 C 8.234375 1.195312 8.488281 1.28125 8.683594 1.449219 C 10.871094 3.34375 13.058594 5.234375 15.242188 7.128906 C 15.621094 7.457031 15.621094 7.964844 15.246094 8.292969 C 13.054688 10.1875 10.863281 12.085938 8.675781 13.984375 C 8.488281 14.144531 8.269531 14.226562 8.011719 14.226562 C 7.710938 14.214844 7.464844 14.136719 7.261719 13.960938 C 5.097656 12.085938 2.933594 10.210938 0.769531 8.335938 C 0.464844 8.070312 0.378906 7.648438 0.585938 7.316406 C 0.644531 7.214844 0.71875 7.128906 0.808594 7.050781 C 2.96875 5.183594 5.125 3.316406 7.28125 1.445312 C 7.476562 1.28125 7.726562 1.195312 7.980469 1.195312 Z M 7.980469 1.195312 "/>
<path style=" stroke:none;fill-rule:nonzero;fill:rgb(74.117649%,89.019608%,95.294118%);fill-opacity:1;" d="M 7.960938 6.535156 C 8.640625 6.535156 9.117188 6.992188 9.140625 7.550781 C 9.121094 8.117188 8.625 8.558594 7.972656 8.566406 C 7.96875 8.566406 7.964844 8.566406 7.960938 8.566406 C 7.3125 8.5625 6.789062 8.132812 6.789062 7.550781 L 6.789062 7.542969 C 6.789062 6.972656 7.300781 6.539062 7.953125 6.535156 Z M 7.960938 6.535156 "/>
<path style=" stroke:none;fill-rule:nonzero;fill:rgb(53.333336%,72.941178%,76.47059%);fill-opacity:1;" d="M 9.140625 7.550781 L 9.140625 7.8125 C 9.121094 8.382812 8.625 8.824219 7.972656 8.828125 L 7.960938 8.828125 L 7.960938 8.566406 L 7.972656 8.566406 C 8.625 8.558594 9.121094 8.117188 9.140625 7.550781 Z M 9.140625 7.550781 "/>
<path style=" stroke:none;fill-rule:nonzero;fill:rgb(53.333336%,72.941178%,76.47059%);fill-opacity:1;" d="M 9.140625 7.550781 L 9.140625 7.8125 C 9.140625 7.820312 9.140625 7.828125 9.136719 7.839844 L 9.136719 7.574219 C 9.140625 7.566406 9.140625 7.558594 9.140625 7.550781 M 9.136719 7.574219 L 9.136719 7.839844 C 9.125 8.058594 9.039062 8.257812 8.902344 8.417969 L 8.902344 8.15625 C 9.039062 7.996094 9.125 7.796875 9.136719 7.574219 M 8.902344 8.15625 L 8.902344 8.417969 C 8.835938 8.5 8.75 8.574219 8.65625 8.632812 L 8.65625 8.371094 C 8.75 8.308594 8.835938 8.238281 8.902344 8.15625 M 8.65625 8.371094 L 8.65625 8.632812 C 8.585938 8.679688 8.507812 8.71875 8.425781 8.746094 L 8.425781 8.484375 C 8.507812 8.453125 8.585938 8.414062 8.65625 8.371094 M 8.425781 8.484375 L 8.425781 8.746094 C 8.339844 8.777344 8.25 8.800781 8.152344 8.816406 L 8.152344 8.550781 C 8.25 8.539062 8.339844 8.515625 8.425781 8.484375 "/>
<path style=" stroke:none;fill-rule:nonzero;fill:rgb(53.333336%,72.941178%,76.47059%);fill-opacity:1;" d="M 8.152344 8.550781 L 8.152344 8.816406 C 8.09375 8.824219 8.03125 8.828125 7.972656 8.828125 C 7.96875 8.828125 7.964844 8.828125 7.960938 8.828125 L 7.960938 8.566406 C 7.964844 8.566406 7.96875 8.566406 7.972656 8.566406 C 8.03125 8.566406 8.09375 8.558594 8.152344 8.550781 "/>
<path style=" stroke:none;fill-rule:nonzero;fill:rgb(38.82353%,77.254903%,90.980393%);fill-opacity:1;" d="M 9.546875 7.546875 C 9.546875 7.5625 9.546875 7.578125 9.546875 7.589844 C 9.542969 8.320312 8.800781 8.925781 7.964844 8.925781 C 7.960938 8.925781 7.957031 8.925781 7.953125 8.925781 C 7.085938 8.921875 6.378906 8.285156 6.371094 7.5625 L 6.371094 7.550781 C 6.371094 6.800781 7.105469 6.175781 7.960938 6.175781 C 8.804688 6.179688 9.546875 6.78125 9.546875 7.511719 C 9.546875 7.523438 9.546875 7.535156 9.546875 7.546875 Z M 7.972656 8.566406 C 8.625 8.5625 9.121094 8.117188 9.140625 7.550781 C 9.117188 6.992188 8.640625 6.535156 7.964844 6.535156 L 7.953125 6.535156 C 7.300781 6.539062 6.789062 6.972656 6.789062 7.542969 L 6.789062 7.550781 C 6.789062 8.132812 7.3125 8.5625 7.957031 8.566406 L 7.972656 8.566406 "/>
<path style=" stroke:none;fill-rule:nonzero;fill:rgb(53.333336%,72.941178%,76.47059%);fill-opacity:1;" d="M 9.546875 7.589844 L 9.546875 7.855469 C 9.542969 8.582031 8.800781 9.1875 7.964844 9.1875 L 7.953125 9.1875 C 7.085938 9.183594 6.378906 8.550781 6.371094 7.824219 L 6.371094 7.5625 C 6.378906 8.285156 7.085938 8.921875 7.953125 8.925781 C 7.957031 8.925781 7.960938 8.925781 7.964844 8.925781 C 8.800781 8.925781 9.542969 8.320312 9.546875 7.589844 Z M 9.546875 7.589844 "/>
<path style=" stroke:none;fill-rule:nonzero;fill:rgb(53.333336%,72.941178%,76.47059%);fill-opacity:1;" d="M 9.546875 7.589844 L 9.546875 7.855469 C 9.546875 7.875 9.546875 7.898438 9.542969 7.917969 L 9.542969 7.65625 C 9.546875 7.636719 9.546875 7.613281 9.546875 7.589844 M 9.542969 7.65625 L 9.542969 7.917969 C 9.527344 8.175781 9.421875 8.414062 9.253906 8.613281 L 9.253906 8.351562 C 9.421875 8.148438 9.527344 7.910156 9.542969 7.65625 M 9.253906 8.351562 L 9.253906 8.613281 C 9.15625 8.726562 9.035156 8.828125 8.902344 8.914062 L 8.902344 8.652344 C 9.035156 8.566406 9.15625 8.464844 9.253906 8.351562 M 8.902344 8.652344 L 8.902344 8.914062 C 8.796875 8.980469 8.6875 9.035156 8.570312 9.078125 L 8.570312 8.816406 C 8.6875 8.773438 8.796875 8.71875 8.902344 8.652344 M 8.570312 8.816406 L 8.570312 9.078125 C 8.449219 9.125 8.324219 9.15625 8.199219 9.171875 L 8.199219 8.910156 C 8.324219 8.890625 8.449219 8.859375 8.570312 8.816406 "/>
<path style=" stroke:none;fill-rule:nonzero;fill:rgb(53.333336%,72.941178%,76.47059%);fill-opacity:1;" d="M 8.199219 8.910156 L 8.199219 9.171875 C 8.121094 9.183594 8.042969 9.1875 7.964844 9.1875 C 7.960938 9.1875 7.957031 9.1875 7.953125 9.1875 C 7.085938 9.183594 6.378906 8.550781 6.371094 7.824219 L 6.371094 7.5625 C 6.378906 8.285156 7.085938 8.921875 7.953125 8.925781 L 7.964844 8.925781 C 8.042969 8.925781 8.121094 8.917969 8.199219 8.910156 "/>
<path style=" stroke:none;fill-rule:nonzero;fill:rgb(53.333336%,72.941178%,76.47059%);fill-opacity:1;" d="M 10.984375 7.539062 L 10.984375 7.800781 C 10.589844 8.117188 10.261719 8.476562 9.816406 8.734375 C 9.800781 8.742188 9.785156 8.753906 9.769531 8.761719 C 9.757812 8.769531 9.75 8.773438 9.746094 8.773438 C 9.738281 8.777344 9.734375 8.78125 9.730469 8.785156 C 9.203125 9.070312 8.636719 9.226562 8.023438 9.230469 C 7.96875 9.230469 7.910156 9.226562 7.855469 9.226562 C 7.023438 9.191406 6.300781 8.914062 5.699219 8.410156 C 5.480469 8.226562 5.261719 8.035156 5.046875 7.847656 C 5.039062 7.839844 5.03125 7.832031 5.023438 7.824219 L 5.023438 7.5625 C 5.03125 7.570312 5.039062 7.578125 5.046875 7.585938 C 5.261719 7.773438 5.480469 7.964844 5.699219 8.148438 C 6.300781 8.652344 7.023438 8.929688 7.855469 8.964844 C 7.90625 8.964844 7.957031 8.964844 8.007812 8.964844 C 8.011719 8.964844 8.015625 8.964844 8.023438 8.964844 C 8.636719 8.964844 9.203125 8.808594 9.730469 8.523438 C 9.734375 8.519531 9.738281 8.515625 9.746094 8.511719 C 9.75 8.507812 9.757812 8.507812 9.769531 8.5 C 9.785156 8.488281 9.800781 8.480469 9.816406 8.472656 C 10.261719 8.214844 10.589844 7.851562 10.984375 7.539062 Z M 10.984375 7.539062 "/>
<path style=" stroke:none;fill-rule:nonzero;fill:rgb(53.333336%,72.941178%,76.47059%);fill-opacity:1;" d="M 10.984375 7.539062 L 10.984375 7.800781 C 10.621094 8.089844 10.308594 8.421875 9.917969 8.671875 L 9.917969 8.410156 C 10.308594 8.160156 10.621094 7.828125 10.984375 7.539062 M 9.917969 8.410156 L 9.917969 8.671875 C 9.882812 8.695312 9.851562 8.714844 9.816406 8.734375 C 9.800781 8.742188 9.785156 8.753906 9.769531 8.761719 C 9.757812 8.769531 9.75 8.773438 9.746094 8.773438 C 9.738281 8.777344 9.734375 8.78125 9.730469 8.785156 C 9.566406 8.875 9.398438 8.949219 9.226562 9.011719 L 9.226562 8.75 C 9.398438 8.6875 9.566406 8.609375 9.730469 8.523438 C 9.734375 8.519531 9.738281 8.515625 9.746094 8.511719 C 9.75 8.507812 9.757812 8.507812 9.769531 8.5 C 9.785156 8.488281 9.800781 8.480469 9.816406 8.472656 C 9.851562 8.453125 9.882812 8.433594 9.917969 8.410156 "/>
<path style=" stroke:none;fill-rule:nonzero;fill:rgb(53.333336%,72.941178%,76.47059%);fill-opacity:1;" d="M 9.226562 8.75 L 9.226562 9.011719 C 8.988281 9.101562 8.742188 9.160156 8.492188 9.195312 L 8.492188 8.933594 C 8.742188 8.898438 8.988281 8.839844 9.226562 8.75 M 8.492188 8.933594 L 8.492188 9.195312 C 8.335938 9.21875 8.179688 9.226562 8.023438 9.230469 L 8.007812 9.230469 C 7.957031 9.230469 7.90625 9.226562 7.855469 9.226562 C 7.023438 9.191406 6.300781 8.914062 5.699219 8.410156 C 5.480469 8.226562 5.261719 8.035156 5.046875 7.847656 C 5.039062 7.839844 5.03125 7.832031 5.023438 7.824219 L 5.023438 7.5625 C 5.03125 7.570312 5.039062 7.578125 5.046875 7.585938 C 5.261719 7.773438 5.480469 7.964844 5.699219 8.148438 C 6.300781 8.652344 7.023438 8.929688 7.855469 8.964844 C 7.90625 8.964844 7.957031 8.964844 8.007812 8.964844 C 8.011719 8.964844 8.015625 8.964844 8.023438 8.964844 C 8.179688 8.964844 8.335938 8.953125 8.492188 8.933594 "/>
<path style=" stroke:none;fill-rule:nonzero;fill:rgb(38.82353%,77.254903%,90.980393%);fill-opacity:1;" d="M 11.472656 7.453125 C 11.539062 7.511719 11.539062 7.558594 11.472656 7.617188 C 11.15625 7.890625 10.839844 8.167969 10.519531 8.4375 C 9.9375 8.929688 9.238281 9.21875 8.429688 9.296875 C 8.269531 9.3125 8.113281 9.320312 7.960938 9.320312 C 7.261719 9.320312 6.601562 9.160156 6 8.816406 C 5.789062 8.695312 5.59375 8.550781 5.410156 8.398438 C 5.105469 8.152344 4.820312 7.894531 4.523438 7.640625 C 4.460938 7.585938 4.460938 7.535156 4.523438 7.480469 C 4.863281 7.1875 5.195312 6.886719 5.542969 6.605469 C 6.105469 6.148438 6.773438 5.882812 7.539062 5.800781 C 7.695312 5.785156 7.855469 5.78125 7.945312 5.773438 C 9.023438 5.78125 9.890625 6.085938 10.605469 6.703125 C 10.894531 6.953125 11.183594 7.203125 11.472656 7.453125 Z M 9.816406 8.472656 C 10.261719 8.214844 10.589844 7.851562 10.984375 7.539062 C 10.96875 7.523438 10.957031 7.515625 10.949219 7.507812 C 10.738281 7.324219 10.53125 7.144531 10.320312 6.960938 C 10.09375 6.769531 9.84375 6.609375 9.566406 6.472656 C 9.558594 6.472656 9.554688 6.46875 9.550781 6.464844 C 9.078125 6.242188 8.550781 6.132812 8.023438 6.128906 C 7.347656 6.132812 6.6875 6.304688 6.136719 6.648438 C 6.113281 6.660156 6.089844 6.675781 6.066406 6.691406 C 6.058594 6.699219 6.046875 6.707031 6.039062 6.710938 C 5.671875 6.960938 5.363281 7.269531 5.027344 7.550781 C 5.027344 7.550781 5.027344 7.554688 5.023438 7.5625 C 5.03125 7.570312 5.039062 7.578125 5.046875 7.585938 C 5.261719 7.773438 5.480469 7.964844 5.699219 8.148438 C 6.300781 8.652344 7.023438 8.929688 7.855469 8.964844 C 7.90625 8.964844 7.957031 8.964844 8.003906 8.964844 C 8.011719 8.964844 8.015625 8.964844 8.023438 8.964844 C 8.636719 8.964844 9.203125 8.808594 9.726562 8.523438 C 9.734375 8.519531 9.738281 8.515625 9.746094 8.511719 C 9.75 8.507812 9.757812 8.507812 9.761719 8.503906 C 9.785156 8.488281 9.800781 8.480469 9.816406 8.472656 "/>
<path style=" stroke:none;fill-rule:nonzero;fill:rgb(65.098041%,84.705883%,90.196079%);fill-opacity:1;" d="M 10.949219 7.507812 C 10.957031 7.515625 10.96875 7.523438 10.984375 7.539062 C 10.589844 7.851562 10.261719 8.214844 9.816406 8.472656 C 9.800781 8.480469 9.785156 8.488281 9.769531 8.5 C 9.757812 8.507812 9.75 8.507812 9.746094 8.511719 C 9.738281 8.515625 9.734375 8.519531 9.730469 8.523438 C 9.203125 8.808594 8.636719 8.964844 8.023438 8.964844 C 7.96875 8.964844 7.910156 8.964844 7.855469 8.964844 C 7.023438 8.929688 6.300781 8.652344 5.699219 8.148438 C 5.480469 7.964844 5.261719 7.773438 5.046875 7.585938 C 5.039062 7.578125 5.03125 7.570312 5.023438 7.5625 C 5.027344 7.558594 5.027344 7.550781 5.027344 7.550781 C 5.363281 7.269531 5.671875 6.960938 6.039062 6.710938 C 6.066406 6.691406 6.09375 6.675781 6.125 6.65625 C 6.128906 6.652344 6.132812 6.648438 6.140625 6.648438 C 6.6875 6.304688 7.347656 6.132812 8.011719 6.128906 C 8.550781 6.132812 9.078125 6.242188 9.550781 6.464844 C 9.554688 6.46875 9.558594 6.472656 9.566406 6.472656 C 9.84375 6.609375 10.09375 6.769531 10.320312 6.960938 C 10.53125 7.144531 10.738281 7.324219 10.949219 7.507812 Z M 7.960938 8.925781 C 8.800781 8.925781 9.542969 8.320312 9.546875 7.589844 C 9.546875 7.578125 9.546875 7.5625 9.546875 7.546875 C 9.546875 7.535156 9.546875 7.523438 9.546875 7.511719 C 9.546875 6.78125 8.804688 6.179688 7.972656 6.175781 C 7.105469 6.175781 6.371094 6.800781 6.371094 7.550781 L 6.371094 7.5625 C 6.378906 8.285156 7.085938 8.921875 7.953125 8.925781 C 7.957031 8.925781 7.960938 8.925781 7.960938 8.925781 "/>
<path style=" stroke:none;fill-rule:nonzero;fill:rgb(53.333336%,72.941178%,76.47059%);fill-opacity:1;" d="M 11.523438 7.535156 L 11.523438 7.796875 C 11.523438 7.824219 11.503906 7.851562 11.472656 7.878906 C 11.15625 8.152344 10.839844 8.429688 10.519531 8.703125 C 9.9375 9.191406 9.238281 9.480469 8.429688 9.558594 C 8.269531 9.574219 8.113281 9.582031 7.960938 9.582031 C 7.261719 9.582031 6.601562 9.425781 6 9.078125 C 5.789062 8.957031 5.59375 8.8125 5.410156 8.660156 C 5.105469 8.414062 4.820312 8.15625 4.523438 7.902344 C 4.492188 7.875 4.476562 7.847656 4.476562 7.820312 L 4.476562 7.558594 C 4.476562 7.585938 4.492188 7.613281 4.523438 7.640625 C 4.820312 7.894531 5.105469 8.152344 5.410156 8.398438 C 5.59375 8.550781 5.789062 8.695312 6 8.816406 C 6.601562 9.160156 7.261719 9.320312 7.960938 9.320312 C 8.113281 9.320312 8.269531 9.3125 8.429688 9.296875 C 9.238281 9.21875 9.9375 8.929688 10.519531 8.4375 C 10.839844 8.167969 11.15625 7.890625 11.472656 7.617188 C 11.503906 7.589844 11.523438 7.5625 11.523438 7.535156 Z M 11.523438 7.535156 "/>
<path style=" stroke:none;fill-rule:nonzero;fill:rgb(53.333336%,72.941178%,76.47059%);fill-opacity:1;" d="M 11.523438 7.539062 L 11.523438 7.800781 C 11.519531 7.820312 11.511719 7.835938 11.496094 7.855469 L 11.496094 7.59375 C 11.511719 7.574219 11.519531 7.558594 11.523438 7.539062 M 11.496094 7.59375 L 11.496094 7.855469 C 11.492188 7.863281 11.480469 7.871094 11.472656 7.878906 C 11.15625 8.152344 10.839844 8.429688 10.519531 8.703125 C 10.394531 8.804688 10.265625 8.902344 10.128906 8.988281 L 10.128906 8.726562 C 10.265625 8.640625 10.394531 8.542969 10.519531 8.4375 C 10.839844 8.167969 11.15625 7.890625 11.472656 7.617188 C 11.480469 7.609375 11.488281 7.601562 11.496094 7.59375 "/>
<path style=" stroke:none;fill-rule:nonzero;fill:rgb(53.333336%,72.941178%,76.47059%);fill-opacity:1;" d="M 10.128906 8.726562 L 10.128906 8.988281 C 9.910156 9.128906 9.675781 9.246094 9.429688 9.335938 L 9.429688 9.074219 C 9.675781 8.984375 9.910156 8.867188 10.128906 8.726562 M 9.429688 9.074219 L 9.429688 9.335938 C 9.171875 9.429688 8.894531 9.5 8.605469 9.539062 L 8.605469 9.277344 C 8.894531 9.234375 9.171875 9.167969 9.429688 9.074219 M 8.605469 9.277344 L 8.605469 9.539062 C 8.546875 9.546875 8.488281 9.554688 8.429688 9.558594 C 8.269531 9.574219 8.113281 9.582031 7.960938 9.582031 C 7.261719 9.582031 6.601562 9.425781 6 9.078125 C 5.789062 8.957031 5.59375 8.8125 5.410156 8.660156 C 5.105469 8.414062 4.820312 8.15625 4.523438 7.902344 C 4.492188 7.875 4.476562 7.847656 4.476562 7.820312 L 4.476562 7.558594 C 4.476562 7.585938 4.492188 7.613281 4.523438 7.640625 C 4.820312 7.894531 5.105469 8.152344 5.410156 8.398438 C 5.59375 8.550781 5.789062 8.695312 6 8.816406 C 6.601562 9.160156 7.261719 9.320312 7.960938 9.320312 C 8.113281 9.320312 8.269531 9.3125 8.429688 9.296875 C 8.488281 9.289062 8.546875 9.285156 8.605469 9.277344 "/>
</g>
</svg>
