<?xml version="1.0" encoding="UTF-8"?>
<svg xmlns="http://www.w3.org/2000/svg" xmlns:xlink="http://www.w3.org/1999/xlink" width="16px" height="16px" viewBox="0 0 16 16" version="1.1">
<g id="surface1">
<path style=" stroke:none;fill-rule:nonzero;fill:rgb(93.725491%,76.862746%,32.941177%);fill-opacity:1;" d="M 15.527344 7.726562 L 15.527344 8.273438 C 15.527344 8.480469 15.433594 8.691406 15.246094 8.855469 C 13.054688 10.75 10.863281 12.648438 8.675781 14.546875 C 8.488281 14.707031 8.269531 14.789062 8.011719 14.789062 L 8.011719 14.242188 C 8.269531 14.242188 8.488281 14.160156 8.675781 14 C 10.863281 12.101562 13.054688 10.203125 15.246094 8.308594 C 15.433594 8.144531 15.527344 7.933594 15.527344 7.726562 Z M 15.527344 7.726562 "/>
<path style=" stroke:none;fill-rule:nonzero;fill:rgb(93.725491%,76.862746%,32.941177%);fill-opacity:1;" d="M 0.472656 8.269531 L 0.472656 7.722656 C 0.472656 7.953125 0.578125 8.183594 0.769531 8.351562 C 2.933594 10.226562 5.097656 12.101562 7.261719 13.976562 C 7.464844 14.152344 7.710938 14.230469 8.011719 14.242188 L 8.011719 14.789062 C 7.710938 14.777344 7.464844 14.699219 7.261719 14.523438 C 5.097656 12.648438 2.933594 10.773438 0.769531 8.898438 C 0.578125 8.730469 0.472656 8.5 0.472656 8.269531 Z M 0.472656 8.269531 "/>
<path style=" stroke:none;fill-rule:nonzero;fill:rgb(96.470588%,85.09804%,50.196081%);fill-opacity:1;" d="M 7.980469 1.210938 C 8.234375 1.210938 8.488281 1.296875 8.683594 1.464844 C 10.871094 3.359375 13.058594 5.25 15.242188 7.144531 C 15.621094 7.472656 15.621094 7.980469 15.246094 8.308594 C 13.054688 10.203125 10.863281 12.101562 8.675781 14 C 8.488281 14.160156 8.269531 14.242188 8.011719 14.242188 C 7.710938 14.230469 7.464844 14.152344 7.261719 13.976562 C 5.097656 12.101562 2.933594 10.226562 0.769531 8.351562 C 0.464844 8.085938 0.378906 7.664062 0.585938 7.332031 C 0.644531 7.230469 0.71875 7.144531 0.808594 7.066406 C 2.96875 5.199219 5.125 3.332031 7.28125 1.460938 C 7.476562 1.296875 7.726562 1.210938 7.980469 1.210938 Z M 7.980469 1.210938 "/>
<path style=" stroke:none;fill-rule:nonzero;fill:rgb(47.450981%,16.862746%,11.372549%);fill-opacity:1;" d="M 10.8125 5.703125 L 10.8125 5.96875 C 10.8125 6.050781 10.777344 6.136719 10.707031 6.222656 C 10.628906 6.320312 10.542969 6.417969 10.464844 6.519531 C 10.457031 6.53125 10.453125 6.546875 10.453125 6.566406 L 10.453125 6.300781 C 10.453125 6.285156 10.457031 6.265625 10.464844 6.253906 C 10.542969 6.15625 10.628906 6.058594 10.707031 5.957031 C 10.777344 5.875 10.8125 5.789062 10.8125 5.703125 Z M 10.8125 5.703125 "/>
<path style=" stroke:none;fill-rule:nonzero;fill:rgb(47.450981%,16.862746%,11.372549%);fill-opacity:1;" d="M 10.8125 5.703125 L 10.8125 5.96875 C 10.8125 5.972656 10.8125 5.980469 10.8125 5.984375 L 10.8125 5.722656 C 10.8125 5.71875 10.8125 5.710938 10.8125 5.703125 M 10.8125 5.722656 L 10.8125 5.984375 C 10.808594 6.0625 10.773438 6.140625 10.707031 6.222656 C 10.628906 6.320312 10.542969 6.417969 10.464844 6.519531 C 10.457031 6.527344 10.453125 6.542969 10.453125 6.558594 L 10.453125 6.296875 C 10.453125 6.28125 10.457031 6.265625 10.464844 6.253906 C 10.542969 6.15625 10.628906 6.058594 10.707031 5.957031 C 10.773438 5.878906 10.808594 5.800781 10.8125 5.722656 M 10.453125 6.296875 L 10.453125 6.558594 C 10.453125 6.5625 10.453125 6.5625 10.453125 6.566406 L 10.453125 6.300781 C 10.453125 6.300781 10.453125 6.296875 10.453125 6.296875 "/>
<path style=" stroke:none;fill-rule:nonzero;fill:rgb(47.450981%,16.862746%,11.372549%);fill-opacity:1;" d="M 5.386719 6.316406 L 5.386719 6.578125 C 5.386719 6.5625 5.382812 6.546875 5.375 6.535156 C 5.292969 6.425781 5.203125 6.324219 5.117188 6.21875 C 5.054688 6.136719 5.023438 6.054688 5.023438 5.976562 L 5.023438 5.714844 C 5.023438 5.792969 5.054688 5.875 5.117188 5.957031 C 5.203125 6.0625 5.292969 6.164062 5.375 6.273438 C 5.382812 6.28125 5.386719 6.300781 5.386719 6.316406 Z M 5.386719 6.316406 "/>
<path style=" stroke:none;fill-rule:nonzero;fill:rgb(47.450981%,16.862746%,11.372549%);fill-opacity:1;" d="M 5.386719 6.316406 L 5.386719 6.578125 C 5.386719 6.5625 5.382812 6.546875 5.375 6.535156 C 5.292969 6.425781 5.203125 6.324219 5.117188 6.21875 C 5.054688 6.136719 5.023438 6.054688 5.023438 5.976562 L 5.023438 5.714844 C 5.023438 5.792969 5.054688 5.875 5.117188 5.957031 C 5.203125 6.0625 5.292969 6.164062 5.375 6.273438 C 5.382812 6.28125 5.386719 6.300781 5.386719 6.316406 "/>
<path style=" stroke:none;fill-rule:nonzero;fill:rgb(47.450981%,16.862746%,11.372549%);fill-opacity:1;" d="M 7.886719 6.710938 L 7.886719 6.449219 C 7.894531 6.449219 7.898438 6.449219 7.90625 6.449219 C 7.914062 6.449219 7.917969 6.449219 7.925781 6.449219 C 8.554688 6.453125 9.066406 6.894531 9.066406 7.4375 L 9.066406 7.699219 C 9.066406 7.15625 8.554688 6.714844 7.925781 6.710938 L 7.917969 6.710938 C 7.914062 6.710938 7.910156 6.710938 7.90625 6.710938 C 7.898438 6.710938 7.894531 6.710938 7.886719 6.710938 Z M 7.886719 6.710938 "/>
<path style=" stroke:none;fill-rule:nonzero;fill:rgb(47.450981%,16.862746%,11.372549%);fill-opacity:1;" d="M 9.066406 7.4375 L 9.066406 7.699219 C 9.066406 7.15625 8.554688 6.714844 7.925781 6.710938 L 7.917969 6.710938 C 7.859375 6.710938 7.800781 6.714844 7.746094 6.722656 L 7.746094 6.460938 C 7.804688 6.453125 7.863281 6.449219 7.925781 6.449219 C 8.554688 6.453125 9.066406 6.894531 9.066406 7.4375 "/>
<path style=" stroke:none;fill-rule:nonzero;fill:rgb(47.450981%,16.862746%,11.372549%);fill-opacity:1;" d="M 7.886719 6.710938 C 7.277344 6.726562 6.78125 7.167969 6.78125 7.703125 L 6.78125 7.441406 C 6.78125 6.90625 7.277344 6.464844 7.886719 6.449219 Z M 7.886719 6.710938 "/>
<path style=" stroke:none;fill-rule:nonzero;fill:rgb(47.450981%,16.862746%,11.372549%);fill-opacity:1;" d="M 9.066406 7.4375 L 9.066406 7.699219 C 9.066406 7.15625 8.554688 6.714844 7.925781 6.710938 L 7.917969 6.710938 C 7.859375 6.710938 7.800781 6.714844 7.746094 6.722656 L 7.746094 6.460938 C 7.804688 6.453125 7.863281 6.449219 7.925781 6.449219 C 8.554688 6.453125 9.066406 6.894531 9.066406 7.4375 "/>
<path style=" stroke:none;fill-rule:nonzero;fill:rgb(47.450981%,16.862746%,11.372549%);fill-opacity:1;" d="M 7.746094 6.460938 L 7.746094 6.722656 C 7.65625 6.734375 7.566406 6.757812 7.480469 6.789062 L 7.480469 6.527344 C 7.566406 6.496094 7.65625 6.472656 7.746094 6.460938 "/>
<path style=" stroke:none;fill-rule:nonzero;fill:rgb(47.450981%,16.862746%,11.372549%);fill-opacity:1;" d="M 7.480469 6.527344 L 7.480469 6.789062 C 7.398438 6.816406 7.320312 6.855469 7.25 6.902344 L 7.25 6.640625 C 7.320312 6.59375 7.398438 6.554688 7.480469 6.527344 M 7.25 6.640625 L 7.25 6.902344 C 7.15625 6.964844 7.070312 7.035156 7.003906 7.117188 L 7.003906 6.855469 C 7.070312 6.773438 7.15625 6.703125 7.25 6.640625 "/>
<path style=" stroke:none;fill-rule:nonzero;fill:rgb(47.450981%,16.862746%,11.372549%);fill-opacity:1;" d="M 7.003906 6.855469 L 7.003906 7.117188 C 6.875 7.269531 6.792969 7.449219 6.78125 7.648438 L 6.78125 7.386719 C 6.792969 7.1875 6.875 7.007812 7.003906 6.855469 M 6.78125 7.386719 L 6.78125 7.648438 C 6.78125 7.664062 6.78125 7.683594 6.78125 7.703125 L 6.78125 7.441406 C 6.78125 7.421875 6.78125 7.402344 6.78125 7.386719 "/>
<path style=" stroke:none;fill-rule:nonzero;fill:rgb(84.705883%,76.862746%,55.686277%);fill-opacity:1;" d="M 7.914062 6.101562 C 8.777344 6.101562 9.46875 6.699219 9.46875 7.4375 C 9.46875 8.171875 8.777344 8.773438 7.9375 8.777344 C 7.925781 8.777344 7.921875 8.777344 7.917969 8.777344 C 7.0625 8.769531 6.378906 8.175781 6.378906 7.445312 L 6.378906 7.4375 C 6.378906 7.433594 6.378906 7.429688 6.378906 7.425781 C 6.386719 6.695312 7.070312 6.101562 7.914062 6.101562 Z M 7.9375 8.429688 C 8.554688 8.425781 9.066406 7.976562 9.066406 7.4375 C 9.066406 6.894531 8.554688 6.453125 7.925781 6.449219 L 7.917969 6.449219 C 7.914062 6.449219 7.910156 6.449219 7.90625 6.449219 C 7.289062 6.453125 6.78125 6.902344 6.78125 7.441406 C 6.78125 7.984375 7.289062 8.425781 7.917969 8.429688 C 7.921875 8.429688 7.925781 8.429688 7.929688 8.429688 L 7.9375 8.429688 "/>
<path style=" stroke:none;fill-rule:nonzero;fill:rgb(47.450981%,16.862746%,11.372549%);fill-opacity:1;" d="M 10.441406 8.84375 L 10.441406 8.582031 C 10.441406 8.570312 10.445312 8.558594 10.453125 8.546875 C 10.507812 8.433594 10.558594 8.316406 10.617188 8.207031 C 10.628906 8.183594 10.664062 8.160156 10.691406 8.15625 C 10.832031 8.132812 10.976562 8.117188 11.117188 8.09375 C 11.308594 8.0625 11.4375 7.96875 11.492188 7.804688 C 11.496094 7.796875 11.5 7.789062 11.507812 7.777344 L 11.507812 8.042969 C 11.5 8.050781 11.496094 8.058594 11.492188 8.066406 C 11.4375 8.234375 11.308594 8.328125 11.117188 8.355469 C 10.976562 8.378906 10.832031 8.394531 10.691406 8.417969 C 10.664062 8.425781 10.628906 8.445312 10.617188 8.46875 C 10.558594 8.582031 10.507812 8.695312 10.453125 8.808594 C 10.445312 8.820312 10.441406 8.832031 10.441406 8.84375 Z M 10.441406 8.84375 "/>
<path style=" stroke:none;fill-rule:nonzero;fill:rgb(47.450981%,16.862746%,11.372549%);fill-opacity:1;" d="M 11.507812 7.777344 L 11.507812 8.042969 C 11.5 8.050781 11.496094 8.058594 11.492188 8.070312 C 11.472656 8.121094 11.449219 8.167969 11.417969 8.207031 L 11.417969 7.945312 C 11.449219 7.90625 11.472656 7.859375 11.492188 7.804688 C 11.496094 7.796875 11.5 7.789062 11.507812 7.777344 M 11.417969 7.945312 L 11.417969 8.207031 C 11.390625 8.234375 11.363281 8.261719 11.328125 8.28125 L 11.328125 8.019531 C 11.363281 8 11.390625 7.972656 11.417969 7.945312 "/>
<path style=" stroke:none;fill-rule:nonzero;fill:rgb(47.450981%,16.862746%,11.372549%);fill-opacity:1;" d="M 11.328125 8.019531 L 11.328125 8.28125 C 11.300781 8.300781 11.273438 8.3125 11.238281 8.324219 L 11.238281 8.0625 C 11.273438 8.050781 11.300781 8.035156 11.328125 8.019531 "/>
<path style=" stroke:none;fill-rule:nonzero;fill:rgb(47.450981%,16.862746%,11.372549%);fill-opacity:1;" d="M 11.238281 8.0625 L 11.238281 8.324219 C 11.203125 8.339844 11.160156 8.351562 11.117188 8.355469 C 10.976562 8.378906 10.832031 8.394531 10.691406 8.417969 C 10.6875 8.421875 10.679688 8.421875 10.675781 8.425781 L 10.675781 8.160156 C 10.679688 8.160156 10.683594 8.15625 10.691406 8.15625 C 10.832031 8.132812 10.976562 8.117188 11.117188 8.09375 C 11.160156 8.085938 11.203125 8.078125 11.238281 8.0625 M 10.675781 8.160156 L 10.675781 8.425781 C 10.667969 8.425781 10.65625 8.429688 10.652344 8.4375 L 10.652344 8.171875 C 10.65625 8.167969 10.667969 8.164062 10.675781 8.160156 M 10.652344 8.171875 L 10.652344 8.4375 C 10.640625 8.441406 10.632812 8.449219 10.625 8.457031 L 10.625 8.195312 C 10.632812 8.1875 10.640625 8.179688 10.652344 8.171875 "/>
<path style=" stroke:none;fill-rule:nonzero;fill:rgb(47.450981%,16.862746%,11.372549%);fill-opacity:1;" d="M 10.625 8.195312 L 10.625 8.457031 C 10.621094 8.460938 10.621094 8.464844 10.617188 8.46875 C 10.558594 8.582031 10.507812 8.695312 10.453125 8.808594 C 10.445312 8.820312 10.441406 8.832031 10.441406 8.839844 L 10.441406 8.578125 C 10.441406 8.566406 10.445312 8.558594 10.453125 8.546875 C 10.507812 8.433594 10.558594 8.316406 10.617188 8.207031 C 10.621094 8.203125 10.621094 8.199219 10.625 8.195312 M 10.441406 8.578125 L 10.441406 8.839844 C 10.441406 8.839844 10.441406 8.84375 10.441406 8.84375 L 10.441406 8.582031 C 10.441406 8.578125 10.441406 8.578125 10.441406 8.578125 "/>
<path style=" stroke:none;fill-rule:nonzero;fill:rgb(47.450981%,16.862746%,11.372549%);fill-opacity:1;" d="M 5.410156 8.59375 L 5.410156 8.859375 C 5.410156 8.84375 5.402344 8.828125 5.394531 8.8125 C 5.339844 8.707031 5.285156 8.601562 5.238281 8.492188 C 5.222656 8.453125 5.199219 8.4375 5.152344 8.429688 C 5.007812 8.410156 4.867188 8.390625 4.726562 8.371094 C 4.585938 8.347656 4.476562 8.292969 4.402344 8.1875 C 4.375 8.144531 4.359375 8.097656 4.335938 8.054688 L 4.335938 7.792969 C 4.359375 7.835938 4.375 7.882812 4.402344 7.921875 C 4.476562 8.027344 4.585938 8.085938 4.726562 8.105469 C 4.867188 8.128906 5.007812 8.148438 5.152344 8.167969 C 5.199219 8.175781 5.222656 8.191406 5.238281 8.230469 C 5.285156 8.339844 5.339844 8.445312 5.394531 8.550781 C 5.402344 8.566406 5.410156 8.582031 5.410156 8.59375 Z M 5.410156 8.59375 "/>
<path style=" stroke:none;fill-rule:nonzero;fill:rgb(47.450981%,16.862746%,11.372549%);fill-opacity:1;" d="M 5.410156 8.59375 L 5.410156 8.859375 C 5.410156 8.84375 5.402344 8.828125 5.394531 8.8125 C 5.339844 8.707031 5.285156 8.601562 5.238281 8.492188 C 5.222656 8.453125 5.199219 8.4375 5.152344 8.429688 C 5.007812 8.410156 4.867188 8.390625 4.726562 8.371094 C 4.585938 8.347656 4.476562 8.292969 4.402344 8.1875 C 4.375 8.144531 4.359375 8.097656 4.335938 8.054688 L 4.335938 7.792969 C 4.359375 7.835938 4.375 7.882812 4.402344 7.921875 C 4.476562 8.027344 4.585938 8.085938 4.726562 8.105469 C 4.867188 8.128906 5.007812 8.148438 5.152344 8.167969 C 5.199219 8.175781 5.222656 8.191406 5.238281 8.230469 C 5.285156 8.339844 5.339844 8.445312 5.394531 8.550781 C 5.402344 8.566406 5.410156 8.582031 5.410156 8.59375 "/>
<path style=" stroke:none;fill-rule:nonzero;fill:rgb(84.705883%,76.862746%,55.686277%);fill-opacity:1;" d="M 11.355469 6.878906 C 11.441406 6.929688 11.476562 7.015625 11.507812 7.101562 L 11.507812 7.777344 C 11.5 7.789062 11.496094 7.796875 11.492188 7.804688 C 11.4375 7.96875 11.308594 8.0625 11.117188 8.09375 C 10.976562 8.117188 10.832031 8.132812 10.691406 8.15625 C 10.664062 8.160156 10.628906 8.183594 10.617188 8.207031 C 10.558594 8.316406 10.507812 8.433594 10.453125 8.546875 C 10.433594 8.578125 10.441406 8.601562 10.464844 8.628906 C 10.546875 8.726562 10.628906 8.828125 10.710938 8.929688 C 10.855469 9.109375 10.839844 9.296875 10.664062 9.457031 C 10.527344 9.578125 10.386719 9.695312 10.246094 9.816406 C 10.148438 9.898438 10.039062 9.941406 9.925781 9.941406 C 9.828125 9.941406 9.734375 9.910156 9.640625 9.855469 C 9.523438 9.785156 9.40625 9.710938 9.292969 9.640625 C 9.273438 9.628906 9.257812 9.621094 9.242188 9.621094 C 9.230469 9.621094 9.214844 9.625 9.199219 9.632812 C 9.070312 9.679688 8.945312 9.726562 8.816406 9.769531 C 8.773438 9.78125 8.753906 9.800781 8.75 9.839844 C 8.726562 9.964844 8.703125 10.085938 8.675781 10.210938 C 8.636719 10.402344 8.472656 10.535156 8.257812 10.542969 C 8.03125 10.546875 7.804688 10.546875 7.578125 10.542969 C 7.382812 10.535156 7.222656 10.417969 7.179688 10.253906 C 7.144531 10.117188 7.121094 9.980469 7.097656 9.84375 C 7.089844 9.804688 7.074219 9.78125 7.027344 9.769531 C 6.90625 9.726562 6.78125 9.683594 6.660156 9.636719 C 6.644531 9.632812 6.628906 9.628906 6.617188 9.628906 C 6.601562 9.628906 6.585938 9.632812 6.566406 9.644531 C 6.449219 9.71875 6.332031 9.792969 6.214844 9.863281 C 6.117188 9.921875 6.023438 9.949219 5.929688 9.949219 C 5.816406 9.949219 5.703125 9.90625 5.601562 9.820312 C 5.464844 9.703125 5.328125 9.585938 5.195312 9.46875 C 5.011719 9.304688 4.996094 9.117188 5.148438 8.929688 C 5.226562 8.835938 5.304688 8.738281 5.386719 8.648438 C 5.414062 8.613281 5.414062 8.585938 5.394531 8.550781 C 5.339844 8.445312 5.285156 8.339844 5.238281 8.230469 C 5.222656 8.191406 5.199219 8.175781 5.152344 8.167969 C 5.007812 8.148438 4.867188 8.128906 4.726562 8.105469 C 4.585938 8.085938 4.476562 8.027344 4.402344 7.921875 C 4.375 7.882812 4.359375 7.835938 4.335938 7.792969 L 4.335938 7.113281 C 4.34375 7.105469 4.347656 7.09375 4.351562 7.085938 C 4.40625 6.921875 4.535156 6.828125 4.726562 6.796875 C 4.867188 6.777344 5.011719 6.757812 5.152344 6.734375 C 5.179688 6.730469 5.207031 6.707031 5.21875 6.6875 C 5.277344 6.574219 5.332031 6.457031 5.382812 6.339844 C 5.390625 6.320312 5.386719 6.289062 5.375 6.273438 C 5.292969 6.164062 5.203125 6.0625 5.117188 5.957031 C 4.976562 5.777344 4.992188 5.585938 5.167969 5.433594 C 5.304688 5.3125 5.441406 5.191406 5.582031 5.074219 C 5.683594 4.988281 5.792969 4.945312 5.910156 4.945312 C 6.003906 4.945312 6.101562 4.976562 6.195312 5.035156 C 6.308594 5.101562 6.421875 5.171875 6.53125 5.242188 C 6.550781 5.257812 6.570312 5.265625 6.589844 5.265625 C 6.605469 5.265625 6.617188 5.261719 6.636719 5.253906 C 6.761719 5.203125 6.886719 5.15625 7.015625 5.113281 C 7.054688 5.101562 7.074219 5.082031 7.082031 5.046875 C 7.101562 4.925781 7.121094 4.800781 7.15625 4.679688 C 7.175781 4.601562 7.21875 4.527344 7.269531 4.460938 C 7.324219 4.390625 7.421875 4.363281 7.515625 4.335938 L 8.300781 4.335938 C 8.308594 4.339844 8.320312 4.34375 8.332031 4.347656 C 8.519531 4.394531 8.625 4.503906 8.664062 4.664062 C 8.6875 4.789062 8.710938 4.910156 8.734375 5.035156 C 8.738281 5.070312 8.757812 5.089844 8.796875 5.105469 C 8.933594 5.148438 9.070312 5.199219 9.207031 5.246094 C 9.214844 5.25 9.226562 5.25 9.238281 5.25 C 9.257812 5.25 9.277344 5.246094 9.289062 5.238281 C 9.410156 5.171875 9.523438 5.097656 9.640625 5.027344 C 9.734375 4.96875 9.832031 4.9375 9.929688 4.9375 C 10.042969 4.9375 10.15625 4.984375 10.257812 5.070312 C 10.394531 5.183594 10.527344 5.300781 10.660156 5.417969 C 10.847656 5.582031 10.863281 5.769531 10.707031 5.957031 C 10.628906 6.058594 10.542969 6.15625 10.464844 6.253906 C 10.453125 6.273438 10.449219 6.308594 10.457031 6.328125 C 10.507812 6.445312 10.566406 6.558594 10.617188 6.671875 C 10.632812 6.707031 10.652344 6.71875 10.691406 6.722656 C 10.835938 6.742188 10.976562 6.757812 11.117188 6.789062 C 11.203125 6.804688 11.285156 6.839844 11.355469 6.878906 Z M 11.105469 7.210938 C 11.105469 7.152344 11.082031 7.132812 11.019531 7.125 C 10.839844 7.101562 10.65625 7.070312 10.476562 7.046875 C 10.367188 7.03125 10.308594 6.976562 10.273438 6.886719 C 10.203125 6.722656 10.125 6.558594 10.035156 6.398438 C 10.011719 6.355469 10 6.316406 10 6.277344 C 10 6.234375 10.015625 6.191406 10.054688 6.148438 C 10.164062 6.019531 10.265625 5.886719 10.375 5.761719 C 10.390625 5.742188 10.398438 5.726562 10.398438 5.710938 C 10.398438 5.691406 10.386719 5.675781 10.367188 5.65625 C 10.238281 5.546875 10.109375 5.4375 9.984375 5.328125 C 9.960938 5.304688 9.941406 5.296875 9.921875 5.296875 C 9.898438 5.296875 9.882812 5.300781 9.863281 5.3125 C 9.710938 5.414062 9.558594 5.503906 9.40625 5.601562 C 9.363281 5.628906 9.316406 5.644531 9.269531 5.644531 C 9.226562 5.644531 9.1875 5.636719 9.152344 5.617188 C 8.953125 5.519531 8.746094 5.449219 8.53125 5.398438 C 8.4375 5.375 8.382812 5.324219 8.367188 5.238281 C 8.335938 5.074219 8.300781 4.914062 8.273438 4.753906 C 8.265625 4.703125 8.242188 4.683594 8.1875 4.683594 C 8.132812 4.683594 8.085938 4.6875 8.042969 4.6875 C 8 4.6875 7.957031 4.6875 7.914062 4.6875 C 7.824219 4.6875 7.734375 4.6875 7.644531 4.683594 C 7.585938 4.683594 7.5625 4.699219 7.550781 4.738281 C 7.519531 4.910156 7.484375 5.058594 7.460938 5.210938 C 7.441406 5.316406 7.382812 5.378906 7.265625 5.414062 C 7.074219 5.472656 6.886719 5.542969 6.707031 5.617188 C 6.660156 5.636719 6.613281 5.648438 6.574219 5.648438 C 6.519531 5.648438 6.476562 5.636719 6.429688 5.609375 C 6.269531 5.507812 6.117188 5.417969 5.96875 5.324219 C 5.9375 5.304688 5.925781 5.304688 5.917969 5.304688 C 5.894531 5.304688 5.878906 5.3125 5.863281 5.324219 C 5.730469 5.445312 5.601562 5.554688 5.472656 5.664062 C 5.449219 5.683594 5.4375 5.703125 5.4375 5.71875 C 5.4375 5.734375 5.445312 5.753906 5.460938 5.773438 C 5.570312 5.902344 5.675781 6.035156 5.785156 6.160156 C 5.820312 6.203125 5.839844 6.246094 5.839844 6.289062 C 5.839844 6.328125 5.828125 6.367188 5.804688 6.410156 C 5.71875 6.566406 5.640625 6.726562 5.578125 6.890625 C 5.535156 6.992188 5.472656 7.046875 5.347656 7.0625 C 5.171875 7.085938 4.992188 7.113281 4.816406 7.136719 C 4.761719 7.144531 4.742188 7.167969 4.742188 7.214844 C 4.742188 7.296875 4.742188 7.375 4.742188 7.453125 C 4.742188 7.53125 4.742188 7.609375 4.742188 7.6875 C 4.742188 7.742188 4.765625 7.761719 4.824219 7.769531 C 5.007812 7.792969 5.191406 7.824219 5.375 7.847656 C 5.488281 7.863281 5.550781 7.914062 5.578125 8.007812 C 5.632812 8.179688 5.714844 8.34375 5.820312 8.5 C 5.847656 8.539062 5.859375 8.578125 5.859375 8.613281 C 5.859375 8.65625 5.839844 8.699219 5.800781 8.742188 C 5.695312 8.871094 5.59375 9 5.484375 9.128906 C 5.46875 9.148438 5.457031 9.164062 5.457031 9.179688 C 5.457031 9.199219 5.46875 9.214844 5.492188 9.234375 C 5.621094 9.34375 5.75 9.453125 5.875 9.566406 C 5.894531 9.585938 5.910156 9.59375 5.929688 9.59375 C 5.953125 9.59375 5.964844 9.589844 5.976562 9.585938 C 5.984375 9.582031 5.988281 9.578125 5.996094 9.574219 C 6.148438 9.476562 6.300781 9.382812 6.453125 9.292969 C 6.496094 9.265625 6.546875 9.253906 6.597656 9.234375 C 6.648438 9.25 6.691406 9.265625 6.734375 9.28125 C 6.914062 9.34375 7.089844 9.417969 7.277344 9.46875 C 7.394531 9.507812 7.457031 9.566406 7.472656 9.671875 C 7.5 9.824219 7.53125 9.976562 7.558594 10.132812 C 7.5625 10.140625 7.5625 10.144531 7.566406 10.152344 C 7.574219 10.179688 7.59375 10.195312 7.632812 10.195312 C 7.691406 10.195312 7.738281 10.195312 7.785156 10.195312 C 7.875 10.195312 7.960938 10.195312 8.050781 10.195312 C 8.097656 10.195312 8.144531 10.195312 8.191406 10.195312 C 8.257812 10.195312 8.277344 10.171875 8.285156 10.125 C 8.3125 9.964844 8.347656 9.804688 8.378906 9.644531 C 8.394531 9.554688 8.457031 9.507812 8.558594 9.472656 C 8.75 9.410156 8.941406 9.34375 9.128906 9.269531 C 9.183594 9.246094 9.222656 9.238281 9.257812 9.238281 C 9.3125 9.238281 9.351562 9.25 9.390625 9.273438 C 9.558594 9.378906 9.714844 9.46875 9.863281 9.566406 C 9.894531 9.582031 9.90625 9.585938 9.914062 9.585938 C 9.9375 9.585938 9.953125 9.578125 9.972656 9.5625 C 10.101562 9.445312 10.230469 9.335938 10.363281 9.222656 C 10.386719 9.203125 10.398438 9.1875 10.398438 9.167969 C 10.398438 9.152344 10.390625 9.136719 10.375 9.117188 C 10.265625 8.992188 10.160156 8.859375 10.054688 8.730469 C 10.015625 8.6875 10 8.644531 10 8.601562 C 10 8.5625 10.011719 8.523438 10.035156 8.480469 C 10.121094 8.320312 10.199219 8.15625 10.269531 7.992188 C 10.308594 7.894531 10.375 7.84375 10.488281 7.828125 C 10.667969 7.804688 10.847656 7.777344 11.027344 7.753906 C 11.085938 7.746094 11.105469 7.722656 11.105469 7.671875 C 11.105469 7.59375 11.105469 7.519531 11.105469 7.441406 C 11.105469 7.363281 11.105469 7.285156 11.105469 7.210938 "/>
<path style=" stroke:none;fill-rule:nonzero;fill:rgb(96.470588%,94.509804%,86.666667%);fill-opacity:1;" d="M 11.105469 7.203125 C 11.105469 7.28125 11.105469 7.363281 11.105469 7.441406 C 11.105469 7.515625 11.105469 7.59375 11.105469 7.671875 C 11.105469 7.722656 11.085938 7.746094 11.027344 7.753906 C 10.847656 7.777344 10.667969 7.804688 10.488281 7.828125 C 10.375 7.84375 10.308594 7.894531 10.269531 7.992188 C 10.199219 8.15625 10.121094 8.320312 10.035156 8.480469 C 10.011719 8.523438 10 8.5625 10 8.601562 C 10 8.644531 10.015625 8.6875 10.054688 8.730469 C 10.164062 8.859375 10.265625 8.992188 10.375 9.117188 C 10.390625 9.136719 10.398438 9.152344 10.398438 9.167969 C 10.398438 9.1875 10.386719 9.203125 10.363281 9.222656 C 10.234375 9.332031 10.105469 9.445312 9.976562 9.558594 C 9.953125 9.578125 9.9375 9.585938 9.921875 9.585938 C 9.90625 9.585938 9.894531 9.582031 9.886719 9.578125 C 9.714844 9.46875 9.558594 9.378906 9.410156 9.285156 C 9.351562 9.25 9.3125 9.238281 9.273438 9.238281 C 9.222656 9.238281 9.183594 9.246094 9.148438 9.261719 C 8.941406 9.34375 8.75 9.410156 8.558594 9.472656 C 8.457031 9.507812 8.394531 9.554688 8.378906 9.648438 C 8.347656 9.804688 8.3125 9.964844 8.285156 10.125 C 8.277344 10.171875 8.257812 10.195312 8.199219 10.195312 C 8.144531 10.195312 8.097656 10.195312 8.050781 10.195312 C 8.011719 10.195312 7.972656 10.195312 7.933594 10.195312 C 7.839844 10.195312 7.742188 10.195312 7.644531 10.195312 C 7.59375 10.195312 7.574219 10.179688 7.566406 10.152344 C 7.5625 10.144531 7.5625 10.136719 7.558594 10.132812 C 7.53125 9.976562 7.5 9.824219 7.472656 9.671875 C 7.457031 9.566406 7.394531 9.507812 7.277344 9.46875 C 7.089844 9.417969 6.914062 9.34375 6.734375 9.28125 C 6.691406 9.265625 6.648438 9.25 6.597656 9.234375 C 6.546875 9.253906 6.496094 9.265625 6.453125 9.292969 C 6.300781 9.382812 6.148438 9.476562 6 9.574219 C 5.988281 9.578125 5.984375 9.582031 5.976562 9.585938 C 5.964844 9.589844 5.953125 9.59375 5.945312 9.59375 C 5.910156 9.59375 5.894531 9.585938 5.875 9.566406 C 5.75 9.453125 5.621094 9.34375 5.492188 9.234375 C 5.46875 9.214844 5.457031 9.199219 5.457031 9.179688 C 5.457031 9.164062 5.46875 9.148438 5.484375 9.128906 C 5.59375 9 5.695312 8.871094 5.800781 8.742188 C 5.839844 8.699219 5.859375 8.65625 5.859375 8.613281 C 5.859375 8.578125 5.847656 8.539062 5.820312 8.5 C 5.714844 8.34375 5.632812 8.179688 5.578125 8.007812 C 5.550781 7.914062 5.488281 7.863281 5.375 7.847656 C 5.191406 7.824219 5.007812 7.792969 4.824219 7.769531 C 4.765625 7.761719 4.742188 7.742188 4.742188 7.691406 C 4.742188 7.609375 4.742188 7.53125 4.742188 7.453125 C 4.742188 7.375 4.742188 7.296875 4.742188 7.21875 C 4.742188 7.167969 4.761719 7.144531 4.816406 7.136719 C 4.992188 7.113281 5.171875 7.085938 5.347656 7.0625 C 5.472656 7.046875 5.535156 6.992188 5.578125 6.890625 C 5.640625 6.726562 5.71875 6.566406 5.804688 6.410156 C 5.828125 6.367188 5.839844 6.328125 5.839844 6.289062 C 5.839844 6.246094 5.820312 6.207031 5.785156 6.160156 C 5.675781 6.035156 5.570312 5.902344 5.460938 5.773438 C 5.445312 5.753906 5.4375 5.734375 5.4375 5.71875 C 5.4375 5.703125 5.449219 5.683594 5.46875 5.664062 C 5.601562 5.554688 5.730469 5.445312 5.855469 5.332031 C 5.878906 5.3125 5.894531 5.304688 5.910156 5.304688 C 5.925781 5.304688 5.9375 5.304688 5.945312 5.308594 C 6.117188 5.417969 6.269531 5.507812 6.417969 5.601562 C 6.476562 5.636719 6.519531 5.648438 6.5625 5.648438 C 6.613281 5.648438 6.660156 5.636719 6.707031 5.617188 C 6.886719 5.542969 7.074219 5.472656 7.261719 5.414062 C 7.382812 5.378906 7.441406 5.316406 7.460938 5.210938 C 7.484375 5.058594 7.519531 4.910156 7.546875 4.757812 C 7.5625 4.699219 7.585938 4.683594 7.636719 4.683594 C 7.730469 4.6875 7.8125 4.6875 7.898438 4.6875 C 7.992188 4.6875 8.085938 4.6875 8.179688 4.683594 C 8.242188 4.683594 8.265625 4.703125 8.273438 4.753906 C 8.300781 4.914062 8.335938 5.074219 8.367188 5.238281 C 8.382812 5.324219 8.4375 5.375 8.53125 5.398438 C 8.746094 5.449219 8.953125 5.519531 9.152344 5.617188 C 9.1875 5.636719 9.226562 5.644531 9.261719 5.644531 C 9.316406 5.644531 9.363281 5.628906 9.40625 5.601562 C 9.558594 5.507812 9.710938 5.414062 9.859375 5.316406 C 9.882812 5.300781 9.898438 5.296875 9.914062 5.296875 C 9.941406 5.296875 9.960938 5.304688 9.980469 5.324219 C 10.109375 5.4375 10.238281 5.546875 10.367188 5.65625 C 10.386719 5.675781 10.398438 5.691406 10.398438 5.710938 C 10.398438 5.726562 10.390625 5.742188 10.375 5.761719 C 10.265625 5.890625 10.164062 6.019531 10.054688 6.148438 C 10.015625 6.191406 10 6.234375 10 6.277344 C 10 6.316406 10.011719 6.355469 10.035156 6.398438 C 10.125 6.558594 10.203125 6.722656 10.273438 6.886719 C 10.308594 6.976562 10.367188 7.03125 10.476562 7.046875 C 10.65625 7.070312 10.839844 7.101562 11.019531 7.125 C 11.082031 7.132812 11.105469 7.152344 11.105469 7.203125 Z M 7.929688 8.777344 C 8.777344 8.773438 9.46875 8.171875 9.46875 7.4375 C 9.46875 6.699219 8.777344 6.101562 7.925781 6.101562 C 7.070312 6.101562 6.386719 6.695312 6.378906 7.429688 C 6.378906 7.429688 6.378906 7.433594 6.378906 7.4375 L 6.378906 7.445312 C 6.378906 8.175781 7.0625 8.769531 7.917969 8.777344 L 7.929688 8.777344 "/>
<path style=" stroke:none;fill-rule:nonzero;fill:rgb(47.450981%,16.862746%,11.372549%);fill-opacity:1;" d="M 10.808594 9.171875 L 10.808594 9.4375 C 10.808594 9.535156 10.761719 9.632812 10.664062 9.71875 C 10.527344 9.839844 10.386719 9.960938 10.246094 10.078125 C 10.148438 10.160156 10.039062 10.203125 9.925781 10.203125 C 9.828125 10.203125 9.734375 10.175781 9.640625 10.117188 C 9.523438 10.046875 9.40625 9.976562 9.292969 9.902344 C 9.273438 9.890625 9.257812 9.886719 9.242188 9.886719 C 9.230469 9.886719 9.214844 9.886719 9.199219 9.894531 C 9.070312 9.941406 8.945312 9.988281 8.816406 10.03125 C 8.773438 10.042969 8.753906 10.0625 8.75 10.101562 C 8.726562 10.226562 8.703125 10.351562 8.675781 10.472656 C 8.636719 10.664062 8.472656 10.796875 8.257812 10.804688 C 8.03125 10.808594 7.804688 10.808594 7.578125 10.804688 C 7.382812 10.796875 7.222656 10.683594 7.179688 10.515625 C 7.144531 10.378906 7.121094 10.242188 7.097656 10.105469 C 7.089844 10.066406 7.074219 10.046875 7.027344 10.03125 C 6.90625 9.992188 6.78125 9.945312 6.660156 9.902344 C 6.644531 9.894531 6.628906 9.890625 6.617188 9.890625 C 6.601562 9.890625 6.585938 9.894531 6.566406 9.90625 C 6.449219 9.980469 6.332031 10.054688 6.214844 10.125 C 6.117188 10.183594 6.023438 10.210938 5.929688 10.210938 C 5.816406 10.210938 5.703125 10.167969 5.601562 10.082031 C 5.464844 9.964844 5.328125 9.847656 5.195312 9.730469 C 5.09375 9.640625 5.042969 9.546875 5.042969 9.445312 L 5.042969 9.183594 C 5.042969 9.28125 5.09375 9.378906 5.195312 9.46875 C 5.328125 9.585938 5.464844 9.703125 5.601562 9.820312 C 5.703125 9.90625 5.816406 9.949219 5.929688 9.949219 C 6.023438 9.949219 6.117188 9.921875 6.214844 9.863281 C 6.332031 9.792969 6.449219 9.71875 6.566406 9.644531 C 6.585938 9.632812 6.601562 9.628906 6.617188 9.628906 C 6.628906 9.628906 6.644531 9.632812 6.660156 9.636719 C 6.78125 9.683594 6.90625 9.726562 7.027344 9.769531 C 7.074219 9.78125 7.089844 9.804688 7.097656 9.84375 C 7.121094 9.980469 7.144531 10.117188 7.179688 10.253906 C 7.222656 10.417969 7.382812 10.535156 7.578125 10.542969 C 7.804688 10.546875 8.03125 10.546875 8.257812 10.542969 C 8.472656 10.535156 8.636719 10.402344 8.675781 10.210938 C 8.703125 10.085938 8.726562 9.964844 8.75 9.839844 C 8.753906 9.800781 8.773438 9.78125 8.816406 9.769531 C 8.945312 9.726562 9.070312 9.679688 9.199219 9.632812 C 9.214844 9.625 9.230469 9.621094 9.242188 9.621094 C 9.257812 9.621094 9.273438 9.628906 9.292969 9.640625 C 9.40625 9.710938 9.523438 9.785156 9.640625 9.855469 C 9.734375 9.910156 9.828125 9.941406 9.925781 9.941406 C 10.039062 9.941406 10.148438 9.898438 10.246094 9.816406 C 10.386719 9.695312 10.527344 9.578125 10.664062 9.457031 C 10.761719 9.367188 10.808594 9.273438 10.808594 9.171875 Z M 10.808594 9.171875 "/>
<path style=" stroke:none;fill-rule:nonzero;fill:rgb(47.450981%,16.862746%,11.372549%);fill-opacity:1;" d="M 10.808594 9.171875 L 10.808594 9.4375 C 10.808594 9.441406 10.808594 9.449219 10.808594 9.453125 L 10.808594 9.191406 C 10.808594 9.1875 10.808594 9.179688 10.808594 9.171875 M 10.808594 9.191406 L 10.808594 9.453125 C 10.804688 9.527344 10.773438 9.59375 10.71875 9.660156 L 10.71875 9.398438 C 10.773438 9.332031 10.804688 9.261719 10.808594 9.191406 "/>
<path style=" stroke:none;fill-rule:nonzero;fill:rgb(47.450981%,16.862746%,11.372549%);fill-opacity:1;" d="M 10.71875 9.398438 L 10.71875 9.660156 C 10.703125 9.679688 10.683594 9.699219 10.664062 9.71875 C 10.527344 9.839844 10.386719 9.960938 10.246094 10.078125 C 10.226562 10.09375 10.207031 10.109375 10.183594 10.125 L 10.183594 9.863281 C 10.207031 9.847656 10.226562 9.832031 10.246094 9.816406 C 10.386719 9.695312 10.527344 9.578125 10.664062 9.457031 C 10.683594 9.4375 10.703125 9.417969 10.71875 9.398438 M 10.183594 9.863281 L 10.183594 10.125 C 10.152344 10.144531 10.117188 10.160156 10.082031 10.175781 L 10.082031 9.914062 C 10.117188 9.898438 10.152344 9.882812 10.183594 9.863281 M 10.082031 9.914062 L 10.082031 10.175781 C 10.050781 10.1875 10.019531 10.195312 9.984375 10.199219 L 9.984375 9.9375 C 10.019531 9.933594 10.050781 9.925781 10.082031 9.914062 M 9.984375 9.9375 L 9.984375 10.199219 C 9.964844 10.203125 9.945312 10.203125 9.925781 10.203125 C 9.828125 10.203125 9.734375 10.175781 9.640625 10.117188 C 9.523438 10.046875 9.40625 9.976562 9.292969 9.902344 C 9.273438 9.890625 9.257812 9.886719 9.242188 9.886719 C 9.238281 9.886719 9.234375 9.886719 9.230469 9.886719 L 9.230469 9.625 C 9.234375 9.621094 9.238281 9.621094 9.242188 9.621094 C 9.257812 9.621094 9.273438 9.628906 9.292969 9.640625 C 9.40625 9.710938 9.523438 9.785156 9.640625 9.855469 C 9.734375 9.910156 9.828125 9.941406 9.925781 9.941406 C 9.945312 9.941406 9.964844 9.941406 9.984375 9.9375 M 9.230469 9.625 L 9.230469 9.886719 C 9.222656 9.886719 9.210938 9.890625 9.199219 9.894531 L 9.199219 9.632812 C 9.210938 9.628906 9.222656 9.625 9.230469 9.625 M 9.199219 9.632812 L 9.199219 9.894531 C 9.160156 9.910156 9.121094 9.925781 9.082031 9.9375 L 9.082031 9.675781 C 9.121094 9.660156 9.160156 9.648438 9.199219 9.632812 M 9.082031 9.675781 L 9.082031 9.9375 C 8.992188 9.96875 8.90625 10 8.816406 10.03125 C 8.816406 10.03125 8.8125 10.03125 8.808594 10.035156 L 8.808594 9.769531 C 8.8125 9.769531 8.816406 9.769531 8.816406 9.769531 C 8.90625 9.738281 8.992188 9.707031 9.082031 9.675781 M 8.808594 9.769531 L 8.808594 10.035156 C 8.800781 10.035156 8.792969 10.042969 8.785156 10.046875 L 8.785156 9.785156 C 8.792969 9.777344 8.800781 9.773438 8.808594 9.769531 M 8.785156 9.785156 L 8.785156 10.046875 C 8.777344 10.050781 8.769531 10.054688 8.765625 10.0625 L 8.765625 9.796875 C 8.769531 9.792969 8.777344 9.789062 8.785156 9.785156 M 8.765625 9.796875 L 8.765625 10.0625 C 8.757812 10.070312 8.75 10.085938 8.746094 10.101562 C 8.726562 10.226562 8.703125 10.351562 8.675781 10.472656 C 8.664062 10.542969 8.632812 10.601562 8.589844 10.652344 L 8.589844 10.390625 C 8.632812 10.339844 8.664062 10.277344 8.675781 10.210938 C 8.703125 10.085938 8.726562 9.964844 8.746094 9.839844 C 8.75 9.824219 8.757812 9.808594 8.765625 9.796875 M 8.589844 10.390625 L 8.589844 10.652344 C 8.5625 10.683594 8.53125 10.710938 8.5 10.734375 L 8.5 10.472656 C 8.53125 10.449219 8.5625 10.421875 8.589844 10.390625 M 8.5 10.472656 L 8.5 10.734375 C 8.472656 10.75 8.445312 10.765625 8.414062 10.773438 L 8.414062 10.511719 C 8.445312 10.5 8.472656 10.488281 8.5 10.472656 M 8.414062 10.511719 L 8.414062 10.773438 C 8.382812 10.785156 8.347656 10.796875 8.316406 10.800781 L 8.316406 10.535156 C 8.347656 10.53125 8.382812 10.523438 8.414062 10.511719 M 8.316406 10.535156 L 8.316406 10.800781 C 8.296875 10.800781 8.277344 10.804688 8.257812 10.804688 C 8.03125 10.808594 7.804688 10.808594 7.578125 10.804688 C 7.382812 10.800781 7.222656 10.683594 7.179688 10.515625 C 7.144531 10.378906 7.121094 10.242188 7.097656 10.105469 C 7.089844 10.066406 7.074219 10.046875 7.027344 10.03125 C 6.90625 9.992188 6.78125 9.945312 6.660156 9.902344 C 6.644531 9.894531 6.628906 9.890625 6.617188 9.890625 C 6.613281 9.890625 6.609375 9.890625 6.605469 9.890625 L 6.605469 9.628906 C 6.609375 9.628906 6.613281 9.628906 6.617188 9.628906 C 6.628906 9.628906 6.644531 9.632812 6.660156 9.636719 C 6.78125 9.683594 6.90625 9.726562 7.027344 9.769531 C 7.074219 9.78125 7.089844 9.804688 7.097656 9.84375 C 7.121094 9.980469 7.144531 10.117188 7.179688 10.253906 C 7.222656 10.417969 7.382812 10.535156 7.578125 10.542969 C 7.804688 10.546875 8.03125 10.546875 8.257812 10.542969 C 8.277344 10.542969 8.296875 10.539062 8.316406 10.535156 M 6.605469 9.628906 L 6.605469 9.890625 C 6.601562 9.890625 6.59375 9.894531 6.589844 9.894531 L 6.589844 9.632812 C 6.59375 9.632812 6.601562 9.628906 6.605469 9.628906 M 6.589844 9.632812 L 6.589844 9.894531 C 6.582031 9.898438 6.574219 9.902344 6.566406 9.90625 L 6.566406 9.644531 C 6.574219 9.640625 6.582031 9.636719 6.589844 9.632812 "/>
<path style=" stroke:none;fill-rule:nonzero;fill:rgb(47.450981%,16.862746%,11.372549%);fill-opacity:1;" d="M 6.566406 9.644531 L 6.566406 9.90625 C 6.5625 9.910156 6.558594 9.914062 6.554688 9.914062 L 6.554688 9.652344 C 6.558594 9.652344 6.5625 9.648438 6.566406 9.644531 "/>
<path style=" stroke:none;fill-rule:nonzero;fill:rgb(47.450981%,16.862746%,11.372549%);fill-opacity:1;" d="M 6.554688 9.652344 L 6.554688 9.914062 C 6.441406 9.988281 6.328125 10.058594 6.214844 10.125 C 6.175781 10.148438 6.140625 10.167969 6.101562 10.179688 L 6.101562 9.917969 C 6.140625 9.90625 6.175781 9.886719 6.214844 9.863281 C 6.328125 9.792969 6.441406 9.726562 6.554688 9.652344 M 6.101562 9.917969 L 6.101562 10.179688 C 6.066406 10.195312 6.03125 10.203125 5.992188 10.207031 L 5.992188 9.945312 C 6.03125 9.941406 6.066406 9.929688 6.101562 9.917969 "/>
<path style=" stroke:none;fill-rule:nonzero;fill:rgb(47.450981%,16.862746%,11.372549%);fill-opacity:1;" d="M 5.992188 9.945312 L 5.992188 10.207031 C 5.972656 10.210938 5.949219 10.210938 5.929688 10.210938 C 5.8125 10.210938 5.703125 10.167969 5.601562 10.082031 C 5.464844 9.964844 5.328125 9.847656 5.195312 9.730469 C 5.09375 9.640625 5.042969 9.546875 5.042969 9.445312 L 5.042969 9.183594 C 5.042969 9.28125 5.09375 9.378906 5.195312 9.46875 C 5.328125 9.585938 5.464844 9.703125 5.601562 9.820312 C 5.703125 9.90625 5.8125 9.949219 5.929688 9.949219 C 5.949219 9.949219 5.972656 9.949219 5.992188 9.945312 "/>
</g>
</svg>
