<?xml version="1.0" encoding="UTF-8"?>
<svg xmlns="http://www.w3.org/2000/svg" xmlns:xlink="http://www.w3.org/1999/xlink" width="64px" height="64px" viewBox="0 0 64 64" version="1.1">
<defs>
<linearGradient id="linear0" gradientUnits="userSpaceOnUse" x1="8" y1="26.5" x2="32" y2="26.5" gradientTransform="matrix(2,0,0,2,0,0)">
<stop offset="0" style="stop-color:rgb(8.627451%,23.529412%,15.294118%);stop-opacity:1;"/>
<stop offset="1" style="stop-color:rgb(16.470588%,37.647059%,26.27451%);stop-opacity:1;"/>
</linearGradient>
<linearGradient id="linear1" gradientUnits="userSpaceOnUse" x1="0" y1="16" x2="18" y2="16" gradientTransform="matrix(2,0,0,2,0,0)">
<stop offset="0" style="stop-color:rgb(9.411765%,35.294118%,18.823529%);stop-opacity:1;"/>
<stop offset="1" style="stop-color:rgb(9.019608%,43.529412%,23.921569%);stop-opacity:1;"/>
</linearGradient>
</defs>
<g id="surface1">
<path style=" stroke:none;fill-rule:nonzero;fill:rgb(18.431373%,71.764708%,46.27451%);fill-opacity:1;" d="M 20 4 L 60 4 C 62.210938 4 64 5.789062 64 8 L 64 56 C 64 58.210938 62.210938 60 60 60 L 20 60 C 17.789062 60 16 58.210938 16 56 L 16 8 C 16 5.789062 17.789062 4 20 4 Z M 20 4 "/>
<path style=" stroke:none;fill-rule:nonzero;fill:url(#linear0);" d="M 16 46 L 64 46 L 64 56 C 64 58.210938 62.210938 60 60 60 L 20 60 C 17.789062 60 16 58.210938 16 56 Z M 16 46 "/>
<path style=" stroke:none;fill-rule:nonzero;fill:rgb(13.333334%,61.176473%,35.686275%);fill-opacity:1;" d="M 40 32 L 64 32 L 64 46 L 40 46 Z M 40 32 "/>
<path style=" stroke:none;fill-rule:nonzero;fill:rgb(15.294118%,68.235296%,40.784314%);fill-opacity:1;" d="M 40 18 L 64 18 L 64 32 L 40 32 Z M 40 18 "/>
<path style=" stroke:none;fill-rule:nonzero;fill:rgb(11.372549%,52.156866%,30.980393%);fill-opacity:1;" d="M 16 8 C 16 5.789062 17.789062 4 20 4 L 40 4 L 40 18 L 16 18 Z M 16 8 "/>
<path style=" stroke:none;fill-rule:nonzero;fill:rgb(9.803922%,48.235294%,26.274511%);fill-opacity:1;" d="M 16 18 L 40 18 L 40 32 L 16 32 Z M 16 18 "/>
<path style=" stroke:none;fill-rule:nonzero;fill:rgb(10.588235%,35.686275%,21.960784%);fill-opacity:1;" d="M 16 32 L 40 32 L 40 46 L 16 46 Z M 16 32 "/>
<path style=" stroke:none;fill-rule:nonzero;fill:rgb(0%,0%,0%);fill-opacity:0.301961;" d="M 16 24 C 16 20.6875 18.6875 18 22 18 L 34 18 C 37.3125 18 40 20.6875 40 24 L 40 48 C 40 51.3125 37.3125 54 34 54 L 16 54 Z M 16 24 "/>
<path style=" stroke:none;fill-rule:nonzero;fill:url(#linear1);" d="M 4 14 L 32 14 C 34.210938 14 36 15.789062 36 18 L 36 46 C 36 48.210938 34.210938 50 32 50 L 4 50 C 1.789062 50 0 48.210938 0 46 L 0 18 C 0 15.789062 1.789062 14 4 14 Z M 4 14 "/>
<path style=" stroke:none;fill-rule:nonzero;fill:rgb(100%,100%,100%);fill-opacity:1;" d="M 26 42 L 20.363281 31.800781 L 25.753906 22 L 21.355469 22 L 18.027344 28.257812 L 14.757812 22 L 10.21875 22 L 15.636719 31.800781 L 10 42 L 14.398438 42 L 17.945312 35.371094 L 21.464844 42 Z M 26 42 "/>
</g>
</svg>
