<?xml version="1.0" encoding="UTF-8"?>
<svg xmlns="http://www.w3.org/2000/svg" xmlns:xlink="http://www.w3.org/1999/xlink" width="81px" height="81px" viewBox="0 0 81 81" version="1.1">
<g id="surface1">
<path style=" stroke:none;fill-rule:nonzero;fill:rgb(89.019608%,85.09804%,91.764706%);fill-opacity:1;" d="M 25.273438 46.75 L 59.632812 21.753906 L 59.632812 44.347656 C 59.632812 44.347656 59.015625 47.632812 55.617188 47.632812 C 52.203125 47.632812 27.351562 48.292969 25.273438 46.75 Z M 25.273438 46.75 "/>
<path style=" stroke:none;fill-rule:nonzero;fill:rgb(100%,52.156866%,59.607846%);fill-opacity:1;" d="M 62.664062 10.691406 L 21.636719 10.691406 C 19.757812 10.691406 18.226562 12.417969 18.226562 14.539062 L 18.226562 66.589844 C 18.226562 68.695312 19.757812 70.4375 21.636719 70.4375 L 62.664062 70.4375 C 64.546875 70.4375 66.078125 68.707031 66.078125 66.589844 L 66.078125 14.539062 C 66.089844 12.433594 64.546875 10.691406 62.664062 10.691406 Z M 59.632812 43.785156 C 59.632812 45.890625 58.101562 47.632812 56.222656 47.632812 L 27.4375 47.632812 C 25.554688 47.632812 24.023438 45.90625 24.023438 43.785156 L 24.023438 21.742188 C 24.023438 19.636719 25.554688 17.894531 27.4375 17.894531 L 56.207031 17.894531 C 58.089844 17.894531 59.617188 19.621094 59.617188 21.742188 L 59.617188 43.785156 Z M 59.632812 43.785156 "/>
<path style=" stroke:none;fill-rule:nonzero;fill:rgb(28.627452%,23.137255%,30.588236%);fill-opacity:1;" d="M 62.679688 71.390625 L 21.636719 71.390625 C 19.222656 71.390625 17.269531 69.242188 17.269531 66.589844 L 17.269531 14.539062 C 17.269531 11.882812 19.238281 9.734375 21.636719 9.734375 L 62.664062 9.734375 C 65.082031 9.734375 67.03125 11.882812 67.03125 14.539062 L 67.03125 66.589844 C 67.046875 69.242188 65.082031 71.390625 62.679688 71.390625 Z M 21.636719 11.660156 C 20.289062 11.660156 19.179688 12.953125 19.179688 14.539062 L 19.179688 66.589844 C 19.179688 68.175781 20.277344 69.46875 21.636719 69.46875 L 62.664062 69.46875 C 64.015625 69.46875 65.121094 68.175781 65.121094 66.589844 L 65.121094 14.539062 C 65.121094 12.953125 64.027344 11.660156 62.664062 11.660156 Z M 56.207031 48.585938 L 27.4375 48.585938 C 25.019531 48.585938 23.070312 46.4375 23.070312 43.785156 L 23.070312 21.742188 C 23.070312 19.085938 25.035156 16.9375 27.4375 16.9375 L 56.207031 16.9375 C 58.621094 16.9375 60.574219 19.085938 60.574219 21.742188 L 60.574219 43.785156 C 60.585938 46.4375 58.621094 48.585938 56.207031 48.585938 Z M 27.4375 18.875 C 26.089844 18.875 24.980469 20.167969 24.980469 21.753906 L 24.980469 43.800781 C 24.980469 45.386719 26.074219 46.679688 27.4375 46.679688 L 56.207031 46.679688 C 57.554688 46.679688 58.664062 45.386719 58.664062 43.800781 L 58.664062 21.753906 C 58.664062 20.167969 57.570312 18.875 56.207031 18.875 Z M 27.4375 18.875 "/>
<path style=" stroke:none;fill-rule:nonzero;fill:rgb(28.627452%,23.137255%,30.588236%);fill-opacity:1;" d="M 49.496094 60.914062 L 34.960938 60.914062 C 34.441406 60.914062 34.007812 60.496094 34.007812 59.960938 L 34.007812 57.53125 C 34.007812 57.011719 34.429688 56.578125 34.960938 56.578125 L 49.496094 56.578125 C 50.015625 56.578125 50.449219 57 50.449219 57.53125 L 50.449219 59.960938 C 50.449219 60.496094 50.015625 60.914062 49.496094 60.914062 Z M 49.496094 60.914062 "/>
<path style=" stroke:none;fill-rule:nonzero;fill:rgb(28.627452%,23.137255%,30.588236%);fill-opacity:1;" d="M 48.273438 61.5625 L 36.183594 61.5625 C 34.640625 61.5625 33.375 60.296875 33.375 58.753906 C 33.375 57.210938 34.640625 55.945312 36.183594 55.945312 L 48.273438 55.945312 C 49.816406 55.945312 51.082031 57.210938 51.082031 58.753906 C 51.082031 60.296875 49.816406 61.5625 48.273438 61.5625 Z M 36.183594 57.222656 C 35.339844 57.222656 34.652344 57.910156 34.652344 58.753906 C 34.652344 59.597656 35.339844 60.285156 36.183594 60.285156 L 48.273438 60.285156 C 49.117188 60.285156 49.804688 59.597656 49.804688 58.753906 C 49.804688 57.910156 49.117188 57.222656 48.273438 57.222656 Z M 36.183594 57.222656 "/>
</g>
</svg>
