<?xml version="1.0" encoding="UTF-8"?>
<svg xmlns="http://www.w3.org/2000/svg" xmlns:xlink="http://www.w3.org/1999/xlink" width="100px" height="80px" viewBox="0 0 100 80" version="1.1">
<g id="surface1">
<path style=" stroke:none;fill-rule:nonzero;fill:rgb(25.882354%,58.823532%,100%);fill-opacity:1;" d="M 29.167969 10 C 17.660156 10 8.332031 17.460938 8.332031 26.667969 L 8.332031 53.332031 C 8.332031 62.539062 17.660156 70 29.167969 70 L 70.832031 70 C 82.339844 70 91.667969 62.539062 91.667969 53.332031 L 91.667969 26.667969 C 91.667969 17.460938 82.339844 10 70.832031 10 Z M 29.167969 10 "/>
<path style=" stroke:none;fill-rule:nonzero;fill:rgb(8.235294%,17.254902%,43.921569%);fill-opacity:1;" d="M 82.882812 56.003906 L 74.558594 47.601562 C 70.605469 43.613281 63.535156 42.632812 58.136719 45.332031 L 54.652344 47.074219 C 52.742188 48.03125 50.226562 47.597656 48.976562 46.097656 L 42.992188 38.914062 C 38.355469 33.351562 28.335938 32.921875 22.988281 38.058594 L 16.667969 44.125 L 16.667969 53.332031 C 16.667969 58.855469 22.261719 63.332031 29.167969 63.332031 L 70.832031 63.332031 C 76.582031 63.332031 81.421875 60.230469 82.882812 56.003906 Z M 82.882812 56.003906 "/>
<path style=" stroke:none;fill-rule:nonzero;fill:rgb(8.235294%,17.254902%,43.921569%);fill-opacity:1;" d="M 66.667969 36.667969 C 71.269531 36.667969 75 33.683594 75 30 C 75 26.316406 71.269531 23.332031 66.667969 23.332031 C 62.0625 23.332031 58.332031 26.316406 58.332031 30 C 58.332031 33.683594 62.0625 36.667969 66.667969 36.667969 Z M 66.667969 36.667969 "/>
</g>
</svg>
