<?xml version="1.0" encoding="UTF-8"?>
<svg xmlns="http://www.w3.org/2000/svg" xmlns:xlink="http://www.w3.org/1999/xlink" width="32px" height="800px" viewBox="0 0 32 32" version="1.1">
<g id="surface1">
<path style=" stroke:none;fill-rule:nonzero;fill:rgb(96.862745%,42.352942%,36.862746%);fill-opacity:1;" d="M 24 19 L 24 11 L 22 11 L 22 19 L 21 19 L 23 22 L 25 19 Z M 24 19 "/>
<path style=" stroke:none;fill-rule:nonzero;fill:rgb(73.725492%,42.352942%,14.509805%);fill-opacity:1;" d="M 17 2 L 29 2 L 29 11 L 17 11 Z M 17 2 "/>
<path style=" stroke:none;fill-rule:nonzero;fill:rgb(15.294118%,29.803923%,46.666667%);fill-opacity:1;" d="M 25 2 L 25 6 L 23 4 L 21 6 L 21 2 "/>
<path style=" stroke:none;fill-rule:nonzero;fill:rgb(86.666667%,63.137257%,36.862746%);fill-opacity:1;" d="M 14.289062 19.519531 L 12.789062 20.164062 C 12.285156 20.378906 11.714844 20.378906 11.214844 20.164062 L 9.714844 19.519531 C 8.980469 19.203125 8.503906 18.480469 8.503906 17.679688 L 8.503906 15 C 8.503906 13.34375 9.851562 12 11.503906 12 L 12.503906 12 C 14.160156 12 15.503906 13.34375 15.503906 15 L 15.503906 17.679688 C 15.503906 18.480469 15.03125 19.203125 14.296875 19.519531 Z M 14.289062 19.519531 "/>
<path style=" stroke:none;fill-rule:nonzero;fill:rgb(15.294118%,29.803923%,46.666667%);fill-opacity:1;" d="M 18.570312 22.5 C 17.660156 21.574219 16.394531 21 15 21 L 13.5 21 C 13.5 21.828125 12.828125 22.5 12 22.5 C 11.171875 22.5 10.5 21.828125 10.5 21 L 9 21 C 6.238281 21 4 23.238281 4 26 L 4 29.5 L 15 29.5 L 17 22.5 Z M 18.570312 22.5 "/>
<path style=" stroke:none;fill-rule:nonzero;fill:rgb(86.666667%,63.137257%,36.862746%);fill-opacity:1;" d="M 9.5 27.5 L 10.5 27.5 C 11.050781 27.5 11.5 27.949219 11.5 28.5 L 11.5 29.5 L 9.5 29.5 Z M 9.5 27.5 "/>
<path style=" stroke:none;fill-rule:nonzero;fill:rgb(15.294118%,29.803923%,46.666667%);fill-opacity:1;" d="M 7 15.863281 C 6.855469 15.949219 6.679688 16 6.5 16 C 5.949219 16 5.5 15.550781 5.5 15 C 5.5 14.449219 5.949219 14 6.5 14 C 6.710938 14 6.90625 14.066406 7.070312 14.179688 "/>
<path style=" stroke:none;fill-rule:nonzero;fill:rgb(15.294118%,29.803923%,46.666667%);fill-opacity:1;" d="M 17 15.863281 C 17.144531 15.949219 17.320312 16 17.5 16 C 18.050781 16 18.5 15.550781 18.5 15 C 18.5 14.449219 18.050781 14 17.5 14 C 17.289062 14 17.09375 14.066406 16.929688 14.179688 "/>
<path style=" stroke:none;fill-rule:nonzero;fill:rgb(73.725492%,42.352942%,14.509805%);fill-opacity:1;" d="M 10.5 19.855469 L 11.210938 20.160156 C 11.714844 20.378906 12.285156 20.378906 12.789062 20.160156 L 13.5 19.855469 L 13.5 21 C 13.5 21.828125 12.828125 22.5 12 22.5 C 11.171875 22.5 10.5 21.828125 10.5 21 Z M 10.5 19.855469 "/>
<path style=" stroke:none;fill-rule:nonzero;fill:rgb(54.509807%,54.901963%,53.725493%);fill-opacity:1;" d="M 15 29.5 L 17 22.5 L 28 22.5 L 26 29.5 "/>
<path style=" stroke:none;fill-rule:nonzero;fill:rgb(15.294118%,29.803923%,46.666667%);fill-opacity:1;" d="M 15.199219 13.691406 L 15.195312 13.691406 C 14.910156 13.574219 14.578125 13.5 14.164062 13.5 C 12 13.5 12 15.5 9.828125 15.5 C 9.265625 15.5 8.84375 15.363281 8.5 15.164062 L 8.5 15 C 8.5 13.34375 9.84375 12 11.5 12 L 12.5 12 C 13.683594 12 14.710938 12.691406 15.195312 13.691406 Z M 15.199219 13.691406 "/>
<path style=" stroke:none;fill-rule:nonzero;fill:rgb(90.588236%,92.54902%,93.725491%);fill-opacity:1;" d="M 15.5 17.300781 L 15.5 15 C 15.5 13.34375 14.15625 12 12.5 12 L 11.5 12 C 9.84375 12 8.5 13.34375 8.5 15 L 8.5 17 L 7.5 17 C 7.226562 17 7 16.773438 7 16.5 L 7 15 C 7 12.238281 9.238281 10 12 10 C 13.378906 10 14.628906 10.558594 15.535156 11.464844 C 16.441406 12.371094 17 13.621094 17 15 L 17 16.589844 C 17 16.828125 16.828125 17.035156 16.601562 17.078125 Z M 15.5 17.300781 "/>
<path style=" stroke:none;fill-rule:nonzero;fill:rgb(63.921571%,80.784315%,94.509804%);fill-opacity:1;" d="M 21.5 25.5 C 21.773438 25.5 22 25.726562 22 26 C 22 26.273438 21.773438 26.5 21.5 26.5 Z M 21.5 25.5 "/>
<path style=" stroke:none;fill-rule:nonzero;fill:rgb(37.64706%,58.823532%,72.941178%);fill-opacity:1;" d="M 12 18 C 11.945312 17.730469 12.121094 17.464844 12.390625 17.410156 L 16.5 16.589844 L 16.5 15.160156 C 16.5 12.765625 14.695312 10.671875 12.308594 10.511719 C 9.691406 10.335938 7.5 12.414062 7.5 15 L 7.5 16.5 L 8.5 16.5 L 8.5 17.5 L 7.5 17.5 C 6.949219 17.5 6.5 17.050781 6.5 16.5 L 6.5 15.160156 C 6.5 12.300781 8.621094 9.789062 11.46875 9.523438 C 14.738281 9.214844 17.5 11.789062 17.5 15 L 17.5 16.589844 C 17.5 17.066406 17.164062 17.476562 16.695312 17.570312 L 12.585938 18.390625 C 12.316406 18.445312 12.050781 18.269531 11.996094 18 Z M 12 18 "/>
<path style=" stroke:none;fill-rule:nonzero;fill:rgb(37.64706%,58.823532%,72.941178%);fill-opacity:1;" d="M 12 29.5 L 11 29.5 L 11 28.5 C 11 28.226562 10.773438 28 10.5 28 L 7 28 C 6.726562 28 6.5 27.773438 6.5 27.5 L 6.5 25.5 C 6.5 25.363281 6.554688 25.238281 6.644531 25.144531 L 7.289062 24.5 C 7.484375 24.304688 7.800781 24.304688 7.996094 24.5 C 8.191406 24.695312 8.191406 25.011719 7.996094 25.203125 L 7.496094 25.703125 L 7.496094 27 L 10.496094 27 C 11.324219 27 11.996094 27.671875 11.996094 28.5 L 11.996094 29.5 Z M 12 29.5 "/>
<path style=" stroke:none;fill-rule:nonzero;fill:rgb(63.921571%,80.784315%,94.509804%);fill-opacity:1;" d="M 3 29 L 28 29 L 28 30 L 3 30 Z M 3 29 "/>
<path style=" stroke:none;fill-rule:nonzero;fill:rgb(90.588236%,92.54902%,93.725491%);fill-opacity:1;" d="M 22 16 L 23 16 L 23 17 L 22 17 Z M 22 16 "/>
<path style=" stroke:none;fill-rule:nonzero;fill:rgb(90.588236%,92.54902%,93.725491%);fill-opacity:1;" d="M 22 14 L 23 14 L 23 15 L 22 15 Z M 22 14 "/>
<path style=" stroke:none;fill-rule:nonzero;fill:rgb(90.588236%,92.54902%,93.725491%);fill-opacity:1;" d="M 22 12 L 23 12 L 23 13 L 22 13 Z M 22 12 "/>
</g>
</svg>
