<?xml version="1.0" encoding="UTF-8"?>
<svg xmlns="http://www.w3.org/2000/svg" xmlns:xlink="http://www.w3.org/1999/xlink" width="61px" height="61px" viewBox="0 0 61 61" version="1.1">
<g id="surface1">
<path style=" stroke:none;fill-rule:nonzero;fill:rgb(69.01961%,74.509805%,77.254903%);fill-opacity:1;" d="M 30.5 0 C 13.65625 0 0 13.65625 0 30.5 C 0 47.34375 13.65625 61 30.5 61 C 47.34375 61 61 47.34375 61 30.5 C 61 13.65625 47.34375 0 30.5 0 Z M 30.5 57.1875 C 15.785156 57.1875 3.8125 45.214844 3.8125 30.5 C 3.8125 15.785156 15.785156 3.8125 30.5 3.8125 C 45.214844 3.8125 57.1875 15.785156 57.1875 30.5 C 57.1875 45.214844 45.214844 57.1875 30.5 57.1875 Z M 30.5 57.1875 "/>
<path style=" stroke:none;fill-rule:nonzero;fill:rgb(1.176471%,66.274512%,95.686275%);fill-opacity:1;" d="M 30.5 22.875 C 28.394531 22.875 26.6875 24.582031 26.6875 26.6875 L 26.6875 45.75 C 26.6875 47.855469 28.394531 49.5625 30.5 49.5625 C 32.605469 49.5625 34.3125 47.855469 34.3125 45.75 L 34.3125 26.6875 C 34.3125 24.582031 32.605469 22.875 30.5 22.875 Z M 30.5 19.0625 C 32.605469 19.0625 34.3125 17.355469 34.3125 15.25 C 34.3125 13.144531 32.605469 11.4375 30.5 11.4375 C 28.394531 11.4375 26.6875 13.144531 26.6875 15.25 C 26.6875 17.355469 28.394531 19.0625 30.5 19.0625 Z M 30.5 19.0625 "/>
</g>
</svg>
