<?xml version="1.0" encoding="UTF-8"?>
<svg xmlns="http://www.w3.org/2000/svg" xmlns:xlink="http://www.w3.org/1999/xlink" width="20px" height="20px" viewBox="0 0 20 20" version="1.1">
<g id="surface1">
<path style=" stroke:none;fill-rule:nonzero;fill:rgb(41.176471%,78.823531%,78.823531%);fill-opacity:1;" d="M 11.757812 7.554688 L 11.757812 7.164062 L 9.414062 7.164062 L 9.414062 7.554688 L 3.890625 7.554688 L 3.890625 14.839844 C 3.890625 17.039062 5.679688 18.828125 7.878906 18.828125 L 9.609375 18.828125 L 9.609375 19.21875 L 10.390625 19.21875 L 10.390625 18.828125 L 12.121094 18.828125 C 14.320312 18.828125 16.109375 17.039062 16.109375 14.839844 L 16.109375 7.554688 Z M 11.09375 15.554688 L 8.90625 15.554688 L 9.636719 13.300781 L 9.371094 13.140625 C 8.992188 12.914062 8.761719 12.515625 8.761719 12.074219 C 8.761719 11.390625 9.320312 10.832031 10.003906 10.832031 C 10.6875 10.832031 11.246094 11.390625 11.246094 12.074219 C 11.246094 12.515625 11.019531 12.914062 10.636719 13.140625 L 10.371094 13.300781 Z M 11.09375 15.554688 "/>
<path style=" stroke:none;fill-rule:nonzero;fill:rgb(90.196079%,90.196079%,90.196079%);fill-opacity:1;" d="M 10 1.996094 C 8.597656 1.996094 7.460938 3.136719 7.460938 4.535156 L 7.460938 6.773438 L 6.636719 6.773438 L 6.636719 4.535156 C 6.636719 2.679688 8.144531 1.171875 10 1.171875 C 11.855469 1.171875 13.363281 2.679688 13.363281 4.535156 L 13.363281 6.773438 L 12.539062 6.773438 L 12.539062 4.535156 C 12.539062 3.132812 11.402344 1.996094 10 1.996094 Z M 10 1.996094 "/>
<path style=" stroke:none;fill-rule:nonzero;fill:rgb(30.19608%,31.764707%,32.156864%);fill-opacity:1;" d="M 12.167969 16.335938 L 11.292969 13.628906 C 11.75 13.246094 12.023438 12.675781 12.023438 12.074219 C 12.023438 10.957031 11.117188 10.050781 10 10.050781 C 8.882812 10.050781 7.976562 10.957031 7.976562 12.074219 C 7.976562 12.675781 8.25 13.246094 8.707031 13.628906 L 7.832031 16.335938 Z M 10 10.828125 C 10.683594 10.828125 11.242188 11.386719 11.242188 12.070312 C 11.242188 12.511719 11.015625 12.910156 10.632812 13.136719 L 10.367188 13.296875 L 11.097656 15.550781 L 8.90625 15.550781 L 9.636719 13.296875 L 9.371094 13.136719 C 8.992188 12.910156 8.761719 12.511719 8.761719 12.070312 C 8.757812 11.386719 9.316406 10.828125 10 10.828125 Z M 10 10.828125 "/>
<path style=" stroke:none;fill-rule:nonzero;fill:rgb(30.19608%,31.764707%,32.156864%);fill-opacity:1;" d="M 14.144531 6.773438 L 14.144531 4.535156 C 14.144531 2.25 12.285156 0.390625 10 0.390625 C 7.714844 0.390625 5.855469 2.25 5.855469 4.535156 L 5.855469 6.773438 L 3.109375 6.773438 L 3.109375 14.839844 C 3.109375 17.46875 5.25 19.609375 7.878906 19.609375 L 9.609375 19.609375 L 9.609375 18.828125 L 7.878906 18.828125 C 5.679688 18.828125 3.890625 17.039062 3.890625 14.839844 L 3.890625 7.554688 L 9.414062 7.554688 L 9.414062 6.773438 L 8.242188 6.773438 L 8.242188 4.535156 C 8.242188 3.566406 9.03125 2.777344 10 2.777344 C 10.96875 2.777344 11.757812 3.566406 11.757812 4.535156 L 11.757812 7.554688 L 16.105469 7.554688 L 16.105469 14.839844 C 16.105469 17.039062 14.316406 18.828125 12.117188 18.828125 L 10.390625 18.828125 L 10.390625 19.609375 L 12.121094 19.609375 C 14.75 19.609375 16.890625 17.46875 16.890625 14.839844 L 16.890625 6.773438 Z M 13.363281 6.773438 L 12.539062 6.773438 L 12.539062 4.535156 C 12.539062 3.132812 11.398438 1.996094 10 1.996094 C 8.597656 1.996094 7.460938 3.136719 7.460938 4.535156 L 7.460938 6.773438 L 6.636719 6.773438 L 6.636719 4.535156 C 6.636719 2.679688 8.144531 1.171875 10 1.171875 C 11.855469 1.171875 13.363281 2.679688 13.363281 4.535156 Z M 13.363281 6.773438 "/>
<path style=" stroke:none;fill-rule:nonzero;fill:rgb(30.19608%,31.764707%,32.156864%);fill-opacity:1;" d="M 10.195312 6.773438 L 10.976562 6.773438 L 10.976562 7.554688 L 10.195312 7.554688 Z M 10.195312 6.773438 "/>
</g>
</svg>
