<?xml version="1.0" encoding="UTF-8"?>
<svg xmlns="http://www.w3.org/2000/svg" xmlns:xlink="http://www.w3.org/1999/xlink" width="16px" height="16px" viewBox="0 0 16 16" version="1.1">
<g id="surface1">
<path style=" stroke:none;fill-rule:nonzero;fill:rgb(90.980393%,75.686276%,25.882354%);fill-opacity:1;" d="M 15.527344 7.710938 L 15.527344 8.257812 C 15.527344 8.464844 15.433594 8.675781 15.246094 8.839844 C 13.054688 10.734375 10.863281 12.632812 8.675781 14.53125 C 8.488281 14.691406 8.269531 14.773438 8.011719 14.773438 L 8.011719 14.226562 C 8.269531 14.226562 8.488281 14.144531 8.675781 13.984375 C 10.863281 12.085938 13.054688 10.1875 15.246094 8.292969 C 15.433594 8.128906 15.527344 7.917969 15.527344 7.710938 Z M 15.527344 7.710938 "/>
<path style=" stroke:none;fill-rule:nonzero;fill:rgb(90.980393%,75.686276%,25.882354%);fill-opacity:1;" d="M 0.472656 8.253906 L 0.472656 7.707031 C 0.472656 7.9375 0.578125 8.167969 0.769531 8.335938 C 2.933594 10.210938 5.097656 12.085938 7.261719 13.960938 C 7.464844 14.136719 7.710938 14.214844 8.011719 14.226562 L 8.011719 14.773438 C 7.710938 14.761719 7.464844 14.683594 7.261719 14.507812 C 5.097656 12.632812 2.933594 10.757812 0.769531 8.882812 C 0.578125 8.714844 0.472656 8.484375 0.472656 8.253906 Z M 0.472656 8.253906 "/>
<path style=" stroke:none;fill-rule:nonzero;fill:rgb(96.470588%,85.882354%,50.980395%);fill-opacity:1;" d="M 7.980469 1.195312 C 8.234375 1.195312 8.488281 1.28125 8.683594 1.449219 C 10.871094 3.34375 13.058594 5.234375 15.242188 7.128906 C 15.621094 7.457031 15.621094 7.964844 15.246094 8.292969 C 13.054688 10.1875 10.863281 12.085938 8.675781 13.984375 C 8.488281 14.144531 8.269531 14.226562 8.011719 14.226562 C 7.710938 14.214844 7.464844 14.136719 7.261719 13.960938 C 5.097656 12.085938 2.933594 10.210938 0.769531 8.335938 C 0.464844 8.070312 0.378906 7.648438 0.585938 7.316406 C 0.644531 7.214844 0.71875 7.128906 0.808594 7.050781 C 2.96875 5.183594 5.125 3.316406 7.28125 1.445312 C 7.476562 1.28125 7.726562 1.195312 7.980469 1.195312 Z M 7.980469 1.195312 "/>
<path style=" stroke:none;fill-rule:nonzero;fill:rgb(91.764706%,77.254903%,29.803923%);fill-opacity:1;" d="M 11.621094 7.707031 L 11.621094 7.96875 C 11.621094 8.050781 11.570312 8.136719 11.484375 8.171875 C 11.40625 8.203125 11.3125 8.226562 11.226562 8.226562 C 10.84375 8.226562 10.460938 8.230469 10.078125 8.230469 C 9.746094 8.230469 9.414062 8.226562 9.082031 8.226562 C 8.78125 8.226562 8.476562 8.226562 8.171875 8.226562 C 7.765625 8.226562 7.363281 8.226562 6.957031 8.226562 C 6.886719 8.226562 6.8125 8.214844 6.742188 8.195312 C 6.617188 8.164062 6.570312 8.074219 6.554688 7.972656 C 6.554688 7.964844 6.554688 7.960938 6.554688 7.953125 L 6.554688 7.691406 C 6.554688 7.699219 6.554688 7.703125 6.554688 7.710938 C 6.570312 7.8125 6.617188 7.902344 6.742188 7.933594 C 6.8125 7.953125 6.886719 7.964844 6.957031 7.964844 C 7.363281 7.964844 7.765625 7.964844 8.171875 7.964844 C 8.476562 7.964844 8.78125 7.964844 9.082031 7.964844 C 9.414062 7.964844 9.746094 7.964844 10.078125 7.964844 C 10.460938 7.964844 10.84375 7.964844 11.226562 7.964844 C 11.3125 7.964844 11.40625 7.941406 11.484375 7.910156 C 11.570312 7.875 11.621094 7.789062 11.621094 7.707031 Z M 11.621094 7.707031 "/>
<path style=" stroke:none;fill-rule:nonzero;fill:rgb(91.764706%,77.254903%,29.803923%);fill-opacity:1;" d="M 11.621094 7.707031 L 11.621094 7.96875 C 11.621094 7.972656 11.621094 7.976562 11.621094 7.980469 L 11.621094 7.71875 C 11.621094 7.714844 11.621094 7.710938 11.621094 7.707031 M 11.621094 7.71875 L 11.621094 7.980469 C 11.617188 8.03125 11.601562 8.074219 11.570312 8.113281 L 11.570312 7.851562 C 11.601562 7.8125 11.617188 7.765625 11.621094 7.71875 M 11.570312 7.851562 L 11.570312 8.113281 C 11.554688 8.128906 11.539062 8.140625 11.523438 8.152344 L 11.523438 7.890625 C 11.539062 7.878906 11.554688 7.867188 11.570312 7.851562 "/>
<path style=" stroke:none;fill-rule:nonzero;fill:rgb(91.764706%,77.254903%,29.803923%);fill-opacity:1;" d="M 11.523438 7.890625 L 11.523438 8.152344 C 11.511719 8.160156 11.5 8.167969 11.484375 8.171875 C 11.480469 8.175781 11.472656 8.175781 11.46875 8.179688 L 11.46875 7.917969 C 11.472656 7.914062 11.480469 7.910156 11.484375 7.910156 C 11.5 7.90625 11.511719 7.898438 11.523438 7.890625 "/>
<path style=" stroke:none;fill-rule:nonzero;fill:rgb(91.764706%,77.254903%,29.803923%);fill-opacity:1;" d="M 11.46875 7.917969 L 11.46875 8.179688 C 11.417969 8.199219 11.359375 8.210938 11.304688 8.21875 L 11.304688 7.957031 C 11.359375 7.949219 11.417969 7.933594 11.46875 7.917969 M 11.304688 7.957031 L 11.304688 8.21875 C 11.277344 8.222656 11.253906 8.226562 11.226562 8.226562 C 10.84375 8.226562 10.460938 8.230469 10.078125 8.230469 C 9.746094 8.230469 9.414062 8.226562 9.082031 8.226562 C 8.78125 8.226562 8.476562 8.226562 8.171875 8.226562 C 7.765625 8.226562 7.363281 8.226562 6.957031 8.226562 C 6.886719 8.226562 6.8125 8.214844 6.742188 8.195312 C 6.617188 8.164062 6.570312 8.074219 6.554688 7.972656 C 6.554688 7.964844 6.554688 7.960938 6.554688 7.953125 L 6.554688 7.691406 C 6.554688 7.699219 6.554688 7.703125 6.554688 7.710938 C 6.570312 7.8125 6.617188 7.902344 6.742188 7.933594 C 6.8125 7.953125 6.886719 7.964844 6.957031 7.964844 C 7.363281 7.964844 7.765625 7.964844 8.171875 7.964844 C 8.476562 7.964844 8.78125 7.964844 9.082031 7.964844 C 9.414062 7.964844 9.746094 7.964844 10.078125 7.964844 C 10.460938 7.964844 10.84375 7.964844 11.226562 7.964844 C 11.253906 7.964844 11.277344 7.960938 11.304688 7.957031 "/>
<path style=" stroke:none;fill-rule:nonzero;fill:rgb(98.431373%,93.333334%,77.254903%);fill-opacity:1;" d="M 9.5625 7.4375 C 10.121094 7.4375 10.679688 7.4375 11.238281 7.4375 C 11.429688 7.4375 11.546875 7.5 11.605469 7.625 C 11.652344 7.726562 11.601562 7.863281 11.484375 7.910156 C 11.40625 7.941406 11.3125 7.964844 11.226562 7.964844 C 10.84375 7.964844 10.460938 7.964844 10.078125 7.964844 C 9.746094 7.964844 9.414062 7.964844 9.082031 7.964844 C 8.78125 7.964844 8.476562 7.964844 8.171875 7.964844 C 7.765625 7.964844 7.363281 7.964844 6.957031 7.964844 C 6.886719 7.964844 6.8125 7.953125 6.742188 7.933594 C 6.617188 7.902344 6.570312 7.8125 6.554688 7.710938 C 6.542969 7.621094 6.628906 7.511719 6.734375 7.480469 C 6.800781 7.457031 6.875 7.441406 6.945312 7.441406 C 7.816406 7.4375 8.691406 7.4375 9.5625 7.4375 Z M 9.5625 7.4375 "/>
<path style=" stroke:none;fill-rule:nonzero;fill:rgb(91.764706%,77.254903%,29.803923%);fill-opacity:1;" d="M 11.621094 9.628906 L 11.621094 9.894531 C 11.621094 9.972656 11.574219 10.058594 11.496094 10.089844 C 11.410156 10.125 11.3125 10.148438 11.222656 10.152344 C 10.84375 10.152344 10.460938 10.152344 10.082031 10.152344 C 9.929688 10.152344 9.773438 10.152344 9.621094 10.152344 C 9.441406 10.152344 9.265625 10.152344 9.085938 10.152344 L 8.484375 10.152344 C 7.976562 10.152344 7.472656 10.152344 6.96875 10.152344 C 6.917969 10.152344 6.863281 10.148438 6.8125 10.140625 C 6.660156 10.113281 6.554688 10.011719 6.554688 9.890625 L 6.554688 9.628906 C 6.554688 9.75 6.660156 9.851562 6.8125 9.878906 C 6.863281 9.886719 6.917969 9.890625 6.96875 9.890625 C 7.472656 9.890625 7.976562 9.890625 8.484375 9.890625 L 9.085938 9.890625 C 9.265625 9.890625 9.441406 9.890625 9.621094 9.890625 C 9.773438 9.890625 9.929688 9.890625 10.082031 9.890625 C 10.460938 9.890625 10.84375 9.890625 11.222656 9.886719 C 11.3125 9.886719 11.410156 9.863281 11.496094 9.828125 C 11.574219 9.796875 11.621094 9.710938 11.621094 9.628906 Z M 11.621094 9.628906 "/>
<path style=" stroke:none;fill-rule:nonzero;fill:rgb(91.764706%,77.254903%,29.803923%);fill-opacity:1;" d="M 11.621094 9.628906 L 11.621094 9.894531 C 11.621094 9.898438 11.621094 9.902344 11.621094 9.90625 L 11.621094 9.644531 C 11.621094 9.640625 11.621094 9.632812 11.621094 9.628906 M 11.621094 9.644531 L 11.621094 9.90625 C 11.617188 9.953125 11.601562 10 11.570312 10.039062 L 11.570312 9.773438 C 11.601562 9.738281 11.617188 9.691406 11.621094 9.644531 "/>
<path style=" stroke:none;fill-rule:nonzero;fill:rgb(91.764706%,77.254903%,29.803923%);fill-opacity:1;" d="M 11.570312 9.773438 L 11.570312 10.039062 C 11.558594 10.050781 11.542969 10.066406 11.527344 10.074219 L 11.527344 9.8125 C 11.542969 9.800781 11.558594 9.789062 11.570312 9.773438 M 11.527344 9.8125 L 11.527344 10.074219 C 11.515625 10.082031 11.507812 10.085938 11.496094 10.089844 C 11.488281 10.09375 11.480469 10.097656 11.46875 10.101562 L 11.46875 9.839844 C 11.480469 9.835938 11.488281 9.832031 11.496094 9.828125 C 11.507812 9.824219 11.515625 9.820312 11.527344 9.8125 "/>
<path style=" stroke:none;fill-rule:nonzero;fill:rgb(91.764706%,77.254903%,29.803923%);fill-opacity:1;" d="M 11.46875 9.839844 L 11.46875 10.101562 C 11.414062 10.121094 11.355469 10.136719 11.296875 10.144531 L 11.296875 9.882812 C 11.355469 9.875 11.414062 9.859375 11.46875 9.839844 M 11.296875 9.882812 L 11.296875 10.144531 C 11.273438 10.148438 11.246094 10.148438 11.222656 10.152344 C 10.84375 10.152344 10.460938 10.152344 10.082031 10.152344 C 9.929688 10.152344 9.773438 10.152344 9.621094 10.152344 C 9.441406 10.152344 9.265625 10.152344 9.085938 10.152344 L 8.484375 10.152344 C 7.976562 10.152344 7.472656 10.152344 6.96875 10.152344 C 6.917969 10.152344 6.863281 10.148438 6.8125 10.140625 C 6.660156 10.113281 6.554688 10.011719 6.554688 9.890625 L 6.554688 9.628906 C 6.554688 9.75 6.660156 9.851562 6.8125 9.878906 C 6.863281 9.886719 6.917969 9.890625 6.96875 9.890625 C 7.472656 9.890625 7.976562 9.890625 8.484375 9.890625 L 9.085938 9.890625 C 9.265625 9.890625 9.441406 9.890625 9.621094 9.890625 C 9.773438 9.890625 9.929688 9.890625 10.082031 9.890625 C 10.460938 9.890625 10.84375 9.890625 11.222656 9.886719 C 11.246094 9.886719 11.273438 9.886719 11.296875 9.882812 "/>
<path style=" stroke:none;fill-rule:nonzero;fill:rgb(98.431373%,93.333334%,77.254903%);fill-opacity:1;" d="M 9.804688 9.363281 C 10.277344 9.363281 10.753906 9.363281 11.226562 9.363281 C 11.433594 9.363281 11.546875 9.421875 11.605469 9.550781 C 11.648438 9.648438 11.601562 9.785156 11.496094 9.828125 C 11.410156 9.863281 11.3125 9.886719 11.222656 9.886719 C 10.84375 9.890625 10.460938 9.890625 10.082031 9.890625 C 9.929688 9.890625 9.773438 9.890625 9.621094 9.890625 C 9.441406 9.890625 9.265625 9.890625 9.085938 9.890625 L 8.484375 9.890625 C 7.976562 9.890625 7.472656 9.890625 6.96875 9.890625 C 6.917969 9.890625 6.863281 9.886719 6.8125 9.878906 C 6.660156 9.851562 6.554688 9.75 6.554688 9.628906 C 6.554688 9.511719 6.667969 9.402344 6.820312 9.375 C 6.863281 9.367188 6.910156 9.363281 6.957031 9.363281 C 7.90625 9.363281 8.855469 9.363281 9.804688 9.363281 Z M 9.804688 9.363281 "/>
<path style=" stroke:none;fill-rule:nonzero;fill:rgb(91.764706%,77.254903%,29.803923%);fill-opacity:1;" d="M 11.625 5.761719 L 11.625 6.027344 C 11.625 6.101562 11.582031 6.179688 11.5 6.21875 C 11.425781 6.257812 11.332031 6.28125 11.246094 6.28125 C 10.382812 6.285156 9.519531 6.285156 8.660156 6.285156 C 8.085938 6.285156 7.507812 6.285156 6.933594 6.285156 C 6.734375 6.285156 6.617188 6.222656 6.570312 6.09375 C 6.5625 6.074219 6.558594 6.054688 6.558594 6.03125 L 6.558594 5.769531 C 6.558594 5.789062 6.5625 5.8125 6.570312 5.832031 C 6.617188 5.960938 6.734375 6.023438 6.933594 6.023438 C 7.507812 6.023438 8.085938 6.023438 8.660156 6.023438 C 9.519531 6.023438 10.382812 6.023438 11.246094 6.019531 C 11.332031 6.019531 11.425781 5.996094 11.5 5.957031 C 11.582031 5.917969 11.625 5.839844 11.625 5.761719 Z M 11.625 5.761719 "/>
<path style=" stroke:none;fill-rule:nonzero;fill:rgb(91.764706%,77.254903%,29.803923%);fill-opacity:1;" d="M 11.625 5.777344 L 11.625 6.039062 C 11.621094 6.085938 11.601562 6.128906 11.574219 6.164062 L 11.574219 5.902344 C 11.601562 5.867188 11.621094 5.824219 11.625 5.777344 M 11.574219 5.902344 L 11.574219 6.164062 C 11.558594 6.179688 11.542969 6.195312 11.523438 6.207031 L 11.523438 5.945312 C 11.542969 5.933594 11.558594 5.917969 11.574219 5.902344 M 11.523438 5.945312 L 11.523438 6.207031 C 11.515625 6.210938 11.507812 6.214844 11.5 6.21875 C 11.480469 6.230469 11.460938 6.238281 11.441406 6.246094 L 11.441406 5.984375 C 11.460938 5.976562 11.480469 5.96875 11.5 5.957031 C 11.507812 5.953125 11.515625 5.949219 11.523438 5.945312 M 11.441406 5.984375 L 11.441406 6.246094 C 11.402344 6.261719 11.359375 6.273438 11.3125 6.277344 L 11.3125 6.015625 C 11.359375 6.007812 11.402344 6 11.441406 5.984375 M 11.3125 6.015625 L 11.3125 6.277344 C 11.289062 6.28125 11.269531 6.28125 11.246094 6.28125 C 10.382812 6.285156 9.519531 6.285156 8.660156 6.285156 C 8.085938 6.285156 7.507812 6.285156 6.933594 6.285156 C 6.734375 6.285156 6.617188 6.222656 6.570312 6.09375 C 6.5625 6.074219 6.558594 6.054688 6.558594 6.03125 L 6.558594 5.769531 C 6.558594 5.789062 6.5625 5.8125 6.570312 5.832031 C 6.617188 5.960938 6.734375 6.023438 6.933594 6.023438 C 7.507812 6.023438 8.085938 6.023438 8.660156 6.023438 C 9.519531 6.023438 10.382812 6.023438 11.246094 6.019531 C 11.269531 6.019531 11.292969 6.019531 11.3125 6.015625 "/>
<path style=" stroke:none;fill-rule:nonzero;fill:rgb(98.431373%,93.333334%,77.254903%);fill-opacity:1;" d="M 8.09375 5.503906 C 8.429688 5.503906 8.765625 5.507812 9.097656 5.507812 C 9.425781 5.507812 9.753906 5.503906 10.082031 5.503906 C 10.464844 5.503906 10.847656 5.507812 11.230469 5.507812 C 11.316406 5.507812 11.40625 5.527344 11.484375 5.558594 C 11.660156 5.632812 11.671875 5.871094 11.5 5.957031 C 11.425781 5.996094 11.332031 6.019531 11.246094 6.019531 C 10.382812 6.023438 9.519531 6.023438 8.660156 6.023438 C 8.085938 6.023438 7.507812 6.023438 6.933594 6.023438 C 6.734375 6.023438 6.617188 5.960938 6.570312 5.832031 C 6.535156 5.738281 6.585938 5.601562 6.691406 5.5625 C 6.769531 5.53125 6.859375 5.507812 6.949219 5.507812 C 7.328125 5.507812 7.710938 5.503906 8.09375 5.503906 Z M 8.09375 5.503906 "/>
<path style=" stroke:none;fill-rule:nonzero;fill:rgb(84.705883%,55.686277%,25.098041%);fill-opacity:1;" d="M 5.074219 5.769531 L 5.074219 6.03125 C 5.074219 6.179688 4.898438 6.332031 4.726562 6.332031 C 4.550781 6.332031 4.375 6.183594 4.375 6.03125 L 4.375 5.769531 C 4.375 5.917969 4.550781 6.070312 4.726562 6.070312 C 4.898438 6.070312 5.074219 5.917969 5.074219 5.769531 Z M 5.074219 5.769531 "/>
<path style=" stroke:none;fill-rule:nonzero;fill:rgb(84.705883%,55.686277%,25.098041%);fill-opacity:1;" d="M 5.074219 5.769531 L 5.074219 6.03125 C 5.074219 6.035156 5.074219 6.039062 5.074219 6.046875 L 5.074219 5.78125 C 5.074219 5.777344 5.074219 5.773438 5.074219 5.769531 M 5.074219 5.78125 L 5.074219 6.046875 C 5.070312 6.097656 5.046875 6.148438 5.007812 6.195312 L 5.007812 5.933594 C 5.046875 5.886719 5.070312 5.835938 5.074219 5.78125 "/>
<path style=" stroke:none;fill-rule:nonzero;fill:rgb(84.705883%,55.686277%,25.098041%);fill-opacity:1;" d="M 5.007812 5.933594 L 5.007812 6.195312 C 4.980469 6.226562 4.953125 6.25 4.917969 6.273438 L 4.917969 6.011719 C 4.953125 5.988281 4.980469 5.960938 5.007812 5.933594 M 4.917969 6.011719 L 4.917969 6.273438 C 4.894531 6.289062 4.867188 6.300781 4.839844 6.3125 L 4.839844 6.050781 C 4.867188 6.039062 4.894531 6.027344 4.917969 6.011719 "/>
<path style=" stroke:none;fill-rule:nonzero;fill:rgb(84.705883%,55.686277%,25.098041%);fill-opacity:1;" d="M 4.839844 6.050781 L 4.839844 6.3125 C 4.816406 6.320312 4.792969 6.328125 4.765625 6.332031 L 4.765625 6.066406 C 4.792969 6.0625 4.816406 6.058594 4.839844 6.050781 M 4.765625 6.066406 L 4.765625 6.332031 C 4.753906 6.332031 4.738281 6.332031 4.726562 6.332031 C 4.550781 6.332031 4.375 6.183594 4.375 6.03125 L 4.375 5.769531 C 4.375 5.921875 4.550781 6.070312 4.726562 6.070312 C 4.738281 6.070312 4.753906 6.070312 4.765625 6.066406 "/>
<path style=" stroke:none;fill-rule:nonzero;fill:rgb(96.862745%,71.764708%,44.705883%);fill-opacity:1;" d="M 4.722656 5.46875 C 4.898438 5.46875 5.074219 5.617188 5.074219 5.769531 C 5.074219 5.917969 4.898438 6.070312 4.726562 6.070312 C 4.550781 6.070312 4.375 5.917969 4.375 5.769531 C 4.378906 5.613281 4.546875 5.46875 4.722656 5.46875 Z M 4.722656 5.46875 "/>
<path style=" stroke:none;fill-rule:nonzero;fill:rgb(84.705883%,55.686277%,25.098041%);fill-opacity:1;" d="M 5.074219 7.695312 L 5.074219 7.957031 C 5.074219 8.105469 4.894531 8.257812 4.726562 8.257812 C 4.722656 8.257812 4.722656 8.257812 4.722656 8.257812 C 4.546875 8.257812 4.375 8.105469 4.375 7.953125 L 4.375 7.691406 C 4.375 7.839844 4.546875 7.992188 4.722656 7.996094 C 4.722656 7.996094 4.722656 7.996094 4.726562 7.996094 C 4.894531 7.996094 5.074219 7.84375 5.074219 7.695312 Z M 5.074219 7.695312 "/>
<path style=" stroke:none;fill-rule:nonzero;fill:rgb(84.705883%,55.686277%,25.098041%);fill-opacity:1;" d="M 5.074219 7.695312 L 5.074219 7.957031 C 5.074219 7.960938 5.074219 7.964844 5.074219 7.96875 L 5.074219 7.707031 C 5.074219 7.703125 5.074219 7.699219 5.074219 7.695312 M 5.074219 7.707031 L 5.074219 7.96875 C 5.070312 8.023438 5.046875 8.074219 5.007812 8.121094 L 5.007812 7.859375 C 5.046875 7.8125 5.070312 7.757812 5.074219 7.707031 M 5.007812 7.859375 L 5.007812 8.121094 C 4.980469 8.148438 4.949219 8.175781 4.917969 8.199219 L 4.917969 7.9375 C 4.949219 7.914062 4.980469 7.886719 5.007812 7.859375 M 4.917969 7.9375 L 4.917969 8.199219 C 4.890625 8.214844 4.867188 8.226562 4.839844 8.238281 L 4.839844 7.972656 C 4.867188 7.964844 4.890625 7.953125 4.917969 7.9375 "/>
<path style=" stroke:none;fill-rule:nonzero;fill:rgb(84.705883%,55.686277%,25.098041%);fill-opacity:1;" d="M 4.839844 7.972656 L 4.839844 8.238281 C 4.816406 8.246094 4.789062 8.253906 4.765625 8.253906 L 4.765625 7.992188 C 4.789062 7.988281 4.816406 7.984375 4.839844 7.972656 M 4.765625 7.992188 L 4.765625 8.253906 C 4.753906 8.257812 4.738281 8.257812 4.726562 8.257812 L 4.722656 8.257812 C 4.546875 8.257812 4.375 8.105469 4.375 7.953125 L 4.375 7.691406 C 4.375 7.839844 4.546875 7.992188 4.722656 7.996094 L 4.726562 7.996094 C 4.738281 7.996094 4.753906 7.996094 4.765625 7.992188 "/>
<path style=" stroke:none;fill-rule:nonzero;fill:rgb(96.862745%,71.764708%,44.705883%);fill-opacity:1;" d="M 4.722656 7.390625 L 4.726562 7.390625 C 4.90625 7.394531 5.074219 7.542969 5.074219 7.695312 C 5.074219 7.84375 4.894531 7.996094 4.726562 7.996094 C 4.722656 7.996094 4.722656 7.996094 4.722656 7.996094 C 4.546875 7.992188 4.375 7.839844 4.375 7.691406 C 4.378906 7.535156 4.542969 7.390625 4.722656 7.390625 Z M 4.722656 7.390625 "/>
<path style=" stroke:none;fill-rule:nonzero;fill:rgb(84.705883%,55.686277%,25.098041%);fill-opacity:1;" d="M 5.074219 9.628906 L 5.074219 9.890625 C 5.074219 10.035156 4.898438 10.191406 4.726562 10.195312 C 4.726562 10.195312 4.726562 10.195312 4.722656 10.195312 C 4.558594 10.195312 4.378906 10.039062 4.375 9.894531 L 4.375 9.632812 C 4.378906 9.777344 4.558594 9.933594 4.722656 9.933594 C 4.726562 9.933594 4.726562 9.933594 4.726562 9.933594 C 4.898438 9.929688 5.074219 9.773438 5.074219 9.628906 Z M 5.074219 9.628906 "/>
<path style=" stroke:none;fill-rule:nonzero;fill:rgb(84.705883%,55.686277%,25.098041%);fill-opacity:1;" d="M 5.074219 9.628906 L 5.074219 9.890625 C 5.074219 9.894531 5.074219 9.898438 5.074219 9.902344 L 5.074219 9.640625 C 5.074219 9.636719 5.074219 9.632812 5.074219 9.628906 M 5.074219 9.640625 L 5.074219 9.902344 C 5.070312 9.957031 5.046875 10.007812 5.007812 10.054688 L 5.007812 9.792969 C 5.046875 9.746094 5.070312 9.691406 5.074219 9.640625 M 5.007812 9.792969 L 5.007812 10.054688 C 4.980469 10.085938 4.949219 10.113281 4.914062 10.136719 L 4.914062 9.871094 C 4.949219 9.851562 4.980469 9.824219 5.007812 9.792969 M 4.914062 9.871094 L 4.914062 10.136719 C 4.886719 10.152344 4.863281 10.164062 4.835938 10.175781 L 4.835938 9.910156 C 4.863281 9.902344 4.886719 9.886719 4.914062 9.871094 M 4.835938 9.910156 L 4.835938 10.175781 C 4.8125 10.183594 4.785156 10.1875 4.761719 10.191406 L 4.761719 9.929688 C 4.789062 9.925781 4.8125 9.921875 4.835938 9.910156 M 4.761719 9.929688 L 4.761719 10.191406 C 4.75 10.195312 4.734375 10.195312 4.722656 10.195312 C 4.558594 10.195312 4.378906 10.039062 4.375 9.894531 L 4.375 9.632812 C 4.378906 9.777344 4.558594 9.933594 4.722656 9.933594 C 4.726562 9.933594 4.726562 9.933594 4.726562 9.933594 C 4.738281 9.933594 4.75 9.933594 4.761719 9.929688 "/>
<path style=" stroke:none;fill-rule:nonzero;fill:rgb(96.862745%,71.764708%,44.705883%);fill-opacity:1;" d="M 4.726562 9.324219 C 4.898438 9.324219 5.070312 9.472656 5.074219 9.625 C 5.078125 9.769531 4.898438 9.929688 4.726562 9.933594 C 4.726562 9.933594 4.726562 9.933594 4.722656 9.933594 C 4.558594 9.933594 4.378906 9.777344 4.375 9.632812 C 4.375 9.476562 4.539062 9.328125 4.71875 9.324219 Z M 4.726562 9.324219 "/>
</g>
</svg>
