<?xml version="1.0" encoding="UTF-8"?>
<svg xmlns="http://www.w3.org/2000/svg" xmlns:xlink="http://www.w3.org/1999/xlink" width="62px" height="62px" viewBox="0 0 62 62" version="1.1">
<g id="surface1">
<path style=" stroke:none;fill-rule:nonzero;fill:rgb(92.941177%,78.823531%,17.254902%);fill-opacity:1;" d="M 62 31 C 62 13.878906 48.121094 0 31 0 C 13.878906 0 0 13.878906 0 31 C 0 48.121094 13.878906 62 31 62 C 48.121094 62 62 48.121094 62 31 Z M 62 31 "/>
<path style=" stroke:none;fill-rule:nonzero;fill:rgb(48.627451%,48.235294%,48.235294%);fill-opacity:1;" d="M 28.039062 13.828125 L 23.96875 10.976562 L 21.902344 12.011719 L 24.003906 16.203125 L 21.59375 17.410156 L 19.492188 13.21875 L 17.632812 14.152344 L 17.484375 19.121094 L 22.289062 21.261719 L 35.277344 50.179688 C 35.46875 50.558594 35.945312 50.707031 36.34375 50.507812 L 41.804688 47.769531 C 42.203125 47.570312 42.371094 47.097656 42.183594 46.71875 L 26.84375 19.234375 Z M 28.039062 13.828125 "/>
<path style=" stroke:none;fill-rule:nonzero;fill:rgb(52.549022%,52.941179%,52.941179%);fill-opacity:1;" d="M 28 13.753906 L 24.066406 10.886719 L 22.113281 11.867188 L 24.191406 16.011719 L 21.910156 17.15625 L 19.832031 13.011719 L 18.074219 13.890625 L 18.015625 18.757812 L 22.640625 20.941406 L 35.570312 49.574219 C 35.757812 49.953125 36.214844 50.101562 36.59375 49.914062 L 41.761719 47.324219 C 42.136719 47.136719 42.289062 46.675781 42.097656 46.300781 L 26.953125 19.03125 Z M 28 13.753906 "/>
<path style=" stroke:none;fill-rule:nonzero;fill:rgb(64.313728%,39.215687%,20.392157%);fill-opacity:1;" d="M 39.699219 14.988281 C 41.167969 17.488281 39.828125 18.828125 39.828125 18.828125 L 19.683594 47.011719 C 19.4375 47.351562 19.511719 47.828125 19.851562 48.074219 L 24.511719 51.492188 C 24.851562 51.738281 25.332031 51.664062 25.578125 51.328125 C 25.578125 51.328125 42.164062 22.492188 42.980469 21.378906 C 44.648438 19.097656 49.355469 22.097656 49.355469 22.097656 C 49.316406 22.289062 49.046875 22.832031 49.140625 22.898438 L 51.089844 24.328125 C 51.296875 24.480469 51.792969 24.15625 52.191406 23.609375 L 53.472656 21.859375 C 53.875 21.3125 54.03125 20.746094 53.824219 20.59375 L 51.875 19.164062 C 51.742188 19.070312 51.5 19.15625 51.242188 19.371094 L 47.511719 16.046875 L 47.5 16.054688 C 47.5 16.054688 44.382812 12.667969 43.710938 12.179688 C 39.023438 8.746094 34.933594 11.710938 33.757812 13.214844 C 33.757812 13.214844 38.5 12.957031 39.699219 14.988281 Z M 39.699219 14.988281 "/>
<path style=" stroke:none;fill-rule:nonzero;fill:rgb(38.431373%,39.215687%,38.82353%);fill-opacity:1;" d="M 39.699219 14.988281 C 41.167969 17.488281 39.828125 18.828125 39.828125 18.828125 L 42.980469 21.378906 C 44.648438 19.097656 49.355469 22.097656 49.355469 22.097656 C 49.3125 22.289062 49.046875 22.832031 49.136719 22.898438 L 51.089844 24.328125 C 51.296875 24.480469 51.792969 24.15625 52.191406 23.609375 L 53.472656 21.859375 C 53.875 21.3125 54.03125 20.746094 53.824219 20.59375 L 51.875 19.164062 C 51.742188 19.070312 51.5 19.15625 51.242188 19.371094 L 47.511719 16.046875 L 47.5 16.054688 C 47.5 16.054688 44.378906 12.667969 43.710938 12.179688 C 39.023438 8.746094 34.933594 11.710938 33.757812 13.214844 C 33.757812 13.214844 38.5 12.957031 39.699219 14.988281 Z M 39.699219 14.988281 "/>
</g>
</svg>
