<?xml version="1.0" encoding="UTF-8"?>
<svg xmlns="http://www.w3.org/2000/svg" xmlns:xlink="http://www.w3.org/1999/xlink" width="32px" height="32px" viewBox="0 0 32 32" version="1.1">
<g id="surface1">
<path style=" stroke:none;fill-rule:nonzero;fill:rgb(17.254902%,66.274512%,73.725492%);fill-opacity:1;" d="M 19.613281 23.054688 L 16.945312 20.386719 C 16.425781 19.863281 15.574219 19.863281 15.054688 20.386719 C 14.53125 20.910156 14.53125 21.757812 15.054688 22.28125 L 15.453125 22.667969 L 12 22.667969 C 9.105469 22.660156 6.546875 20.78125 5.667969 18.023438 C 4.789062 15.265625 5.789062 12.253906 8.148438 10.574219 C 8.613281 10.34375 8.90625 9.863281 8.894531 9.34375 C 8.882812 8.820312 8.566406 8.355469 8.085938 8.148438 C 7.609375 7.945312 7.054688 8.035156 6.667969 8.386719 C 4.175781 10.121094 2.683594 12.960938 2.667969 16 C 2.667969 21.15625 6.84375 25.332031 12 25.332031 L 15.453125 25.332031 L 15.054688 25.71875 C 14.800781 25.96875 14.660156 26.3125 14.660156 26.667969 C 14.660156 27.023438 14.800781 27.363281 15.054688 27.613281 C 15.304688 27.867188 15.644531 28.007812 16 28.007812 C 16.355469 28.007812 16.695312 27.867188 16.945312 27.613281 L 19.613281 24.945312 C 19.867188 24.695312 20.007812 24.355469 20.007812 24 C 20.007812 23.644531 19.867188 23.304688 19.613281 23.054688 Z M 19.613281 23.054688 "/>
<path style=" stroke:none;fill-rule:nonzero;fill:rgb(0%,0%,0%);fill-opacity:1;" d="M 26.667969 9.414062 C 24.910156 7.628906 22.503906 6.636719 20 6.667969 L 16.546875 6.667969 L 16.945312 6.28125 C 17.46875 5.757812 17.46875 4.910156 16.945312 4.386719 C 16.425781 3.863281 15.574219 3.863281 15.054688 4.386719 L 12.386719 7.054688 C 12.132812 7.304688 11.992188 7.644531 11.992188 8 C 11.992188 8.355469 12.132812 8.695312 12.386719 8.945312 L 15.054688 11.613281 C 15.304688 11.867188 15.644531 12.007812 16 12.007812 C 16.355469 12.007812 16.695312 11.867188 16.945312 11.613281 C 17.199219 11.363281 17.339844 11.023438 17.339844 10.667969 C 17.339844 10.3125 17.199219 9.96875 16.945312 9.71875 L 16.546875 9.332031 L 20 9.332031 C 22.894531 9.339844 25.453125 11.21875 26.332031 13.976562 C 27.210938 16.734375 26.210938 19.746094 23.851562 21.425781 C 23.386719 21.65625 23.09375 22.136719 23.105469 22.65625 C 23.117188 23.179688 23.433594 23.644531 23.914062 23.851562 C 24.390625 24.054688 24.945312 23.964844 25.332031 23.613281 C 27.824219 21.878906 29.316406 19.039062 29.332031 16 C 29.363281 13.535156 28.402344 11.164062 26.667969 9.414062 Z M 26.667969 9.414062 "/>
</g>
</svg>
