<?xml version="1.0" encoding="UTF-8"?>
<svg xmlns="http://www.w3.org/2000/svg" xmlns:xlink="http://www.w3.org/1999/xlink" width="80px" height="80px" viewBox="0 0 80 80" version="1.1">
<g id="surface1">
<path style=" stroke:none;fill-rule:nonzero;fill:rgb(81.568629%,90.980393%,100%);fill-opacity:1;" d="M 32.453125 38.164062 C 32.1875 37.902344 31.839844 37.769531 31.492188 37.769531 C 31.148438 37.769531 30.800781 37.902344 30.535156 38.164062 L 29.59375 39.105469 C 29.066406 39.636719 29.066406 40.496094 29.59375 41.023438 L 36.1875 47.613281 C 36.714844 48.140625 37.570312 48.144531 38.101562 47.613281 L 39.042969 46.671875 C 39.300781 46.414062 39.441406 46.074219 39.441406 45.714844 C 39.441406 45.351562 39.300781 45.011719 39.042969 44.757812 Z M 32.453125 38.164062 "/>
<path style=" stroke:none;fill-rule:nonzero;fill:rgb(81.568629%,90.980393%,100%);fill-opacity:1;" d="M 23.878906 46.734375 C 23.625 46.480469 23.285156 46.339844 22.921875 46.339844 C 22.558594 46.339844 22.222656 46.480469 21.964844 46.734375 L 21.019531 47.679688 C 20.492188 48.207031 20.496094 49.066406 21.023438 49.59375 L 27.613281 56.183594 C 28.140625 56.714844 29.003906 56.710938 29.527344 56.183594 L 30.46875 55.242188 C 30.726562 54.984375 30.867188 54.644531 30.867188 54.285156 C 30.867188 53.925781 30.726562 53.585938 30.472656 53.328125 Z M 23.878906 46.734375 "/>
<path style=" stroke:none;fill-rule:nonzero;fill:rgb(81.568629%,90.980393%,100%);fill-opacity:1;" d="M 41.023438 29.59375 C 40.765625 29.335938 40.425781 29.195312 40.066406 29.195312 C 39.703125 29.195312 39.363281 29.335938 39.109375 29.59375 L 38.164062 30.535156 C 37.910156 30.792969 37.765625 31.132812 37.765625 31.492188 C 37.769531 31.855469 37.910156 32.195312 38.164062 32.449219 L 44.757812 39.042969 C 45.015625 39.300781 45.351562 39.441406 45.714844 39.441406 C 46.074219 39.441406 46.414062 39.300781 46.671875 39.042969 L 47.613281 38.097656 C 47.871094 37.84375 48.011719 37.503906 48.011719 37.144531 C 48.011719 36.78125 47.871094 36.441406 47.613281 36.1875 Z M 41.023438 29.59375 "/>
<path style=" stroke:none;fill-rule:nonzero;fill:rgb(81.568629%,90.980393%,100%);fill-opacity:1;" d="M 15.308594 55.308594 C 15.050781 55.050781 14.710938 54.910156 14.351562 54.910156 C 13.988281 54.910156 13.648438 55.050781 13.394531 55.308594 L 12.449219 56.25 C 12.195312 56.507812 12.050781 56.847656 12.050781 57.207031 C 12.050781 57.570312 12.195312 57.90625 12.449219 58.164062 L 19.042969 64.757812 C 19.300781 65.011719 19.640625 65.152344 20 65.152344 C 20.359375 65.152344 20.699219 65.011719 20.957031 64.757812 L 21.898438 63.8125 C 22.15625 63.558594 22.296875 63.214844 22.296875 62.855469 C 22.296875 62.496094 22.15625 62.15625 21.898438 61.898438 Z M 15.308594 55.308594 "/>
<path style=" stroke:none;fill-rule:nonzero;fill:rgb(81.568629%,90.980393%,100%);fill-opacity:1;" d="M 49.59375 21.019531 C 49.335938 20.765625 49 20.625 48.636719 20.625 C 48.273438 20.625 47.933594 20.765625 47.679688 21.019531 L 46.738281 21.964844 C 46.480469 22.222656 46.339844 22.558594 46.339844 22.921875 C 46.339844 23.28125 46.480469 23.621094 46.738281 23.875 L 46.738281 23.878906 L 53.328125 30.46875 C 53.585938 30.726562 53.925781 30.867188 54.285156 30.867188 C 54.648438 30.867188 54.988281 30.726562 55.242188 30.46875 L 56.1875 29.527344 C 56.441406 29.269531 56.582031 28.929688 56.582031 28.570312 C 56.582031 28.210938 56.441406 27.871094 56.1875 27.613281 Z M 49.59375 21.019531 "/>
<path style=" stroke:none;fill-rule:nonzero;fill:rgb(36.078432%,69.01961%,100%);fill-opacity:1;" d="M 72.859375 17.621094 L 59.046875 3.808594 L 3.808594 59.046875 L 18.09375 73.335938 L 42.855469 48.570312 L 73.332031 18.09375 Z M 23.804688 65.71875 L 22.863281 66.660156 C 22.097656 67.425781 21.082031 67.847656 20.003906 67.847656 C 20 67.847656 20 67.847656 20 67.847656 C 18.917969 67.847656 17.902344 67.425781 17.136719 66.660156 L 10.546875 60.070312 C 9.78125 59.304688 9.359375 58.289062 9.359375 57.207031 C 9.359375 56.128906 9.78125 55.109375 10.546875 54.34375 L 11.488281 53.402344 C 12.253906 52.640625 13.269531 52.214844 14.347656 52.214844 L 14.351562 52.214844 C 15.429688 52.214844 16.445312 52.636719 17.210938 53.402344 L 23.804688 59.996094 C 25.382812 61.574219 25.382812 64.140625 23.804688 65.71875 Z M 32.375 57.144531 L 31.433594 58.089844 C 30.644531 58.878906 29.609375 59.273438 28.570312 59.273438 C 27.535156 59.273438 26.496094 58.878906 25.707031 58.089844 L 19.117188 51.5 C 17.539062 49.921875 17.539062 47.351562 19.117188 45.773438 L 20.058594 44.832031 C 21.636719 43.253906 24.207031 43.253906 25.785156 44.832031 L 32.375 51.421875 C 33.140625 52.1875 33.5625 53.203125 33.5625 54.28125 C 33.5625 55.363281 33.140625 56.382812 32.375 57.144531 Z M 40.945312 48.574219 L 40.007812 49.519531 C 39.214844 50.308594 38.179688 50.703125 37.140625 50.703125 C 36.105469 50.703125 35.070312 50.308594 34.28125 49.519531 L 27.6875 42.925781 C 26.113281 41.347656 26.113281 38.78125 27.6875 37.203125 L 28.632812 36.257812 C 30.210938 34.679688 32.777344 34.679688 34.355469 36.257812 L 40.945312 42.851562 C 41.710938 43.617188 42.132812 44.632812 42.132812 45.710938 C 42.132812 46.792969 41.714844 47.808594 40.945312 48.574219 Z M 49.519531 40.003906 L 48.574219 40.945312 C 47.785156 41.734375 46.75 42.128906 45.714844 42.128906 C 44.679688 42.128906 43.640625 41.734375 42.851562 40.945312 L 36.261719 34.355469 C 35.496094 33.589844 35.074219 32.574219 35.074219 31.496094 C 35.074219 30.414062 35.492188 29.398438 36.261719 28.628906 L 37.203125 27.6875 C 38.78125 26.113281 41.347656 26.109375 42.925781 27.6875 L 49.519531 34.28125 C 50.285156 35.046875 50.707031 36.0625 50.707031 37.144531 C 50.707031 38.222656 50.285156 39.238281 49.519531 40.003906 Z M 58.089844 31.433594 L 57.148438 32.375 C 56.382812 33.140625 55.367188 33.5625 54.285156 33.5625 C 53.203125 33.5625 52.1875 33.140625 51.421875 32.375 L 44.832031 25.78125 C 44.066406 25.015625 43.644531 24 43.644531 22.921875 C 43.644531 21.839844 44.066406 20.824219 44.832031 20.058594 L 45.773438 19.117188 C 46.539062 18.351562 47.554688 17.929688 48.636719 17.929688 C 49.71875 17.929688 50.734375 18.351562 51.5 19.117188 L 58.089844 25.710938 C 59.667969 27.289062 59.667969 29.855469 58.089844 31.433594 Z M 66.660156 22.863281 L 65.722656 23.804688 C 64.929688 24.59375 63.894531 24.988281 62.859375 24.988281 C 61.820312 24.988281 60.785156 24.59375 59.992188 23.804688 L 53.402344 17.210938 C 51.824219 15.636719 51.824219 13.066406 53.402344 11.488281 L 54.347656 10.542969 C 55.109375 9.78125 56.128906 9.359375 57.207031 9.359375 C 58.289062 9.359375 59.304688 9.78125 60.070312 10.542969 L 66.660156 17.136719 C 67.425781 17.902344 67.847656 18.917969 67.847656 19.996094 C 67.847656 21.078125 67.429688 22.09375 66.660156 22.863281 Z M 66.660156 22.863281 "/>
<path style=" stroke:none;fill-rule:nonzero;fill:rgb(81.568629%,90.980393%,100%);fill-opacity:1;" d="M 58.164062 12.449219 C 57.910156 12.191406 57.570312 12.050781 57.207031 12.050781 C 56.847656 12.050781 56.507812 12.191406 56.25 12.449219 L 55.308594 13.390625 C 54.78125 13.921875 54.78125 14.78125 55.308594 15.308594 L 61.898438 21.898438 C 62.429688 22.425781 63.289062 22.425781 63.816406 21.898438 L 64.753906 20.957031 C 65.011719 20.699219 65.15625 20.359375 65.15625 20 C 65.152344 19.636719 65.011719 19.296875 64.757812 19.042969 Z M 58.164062 12.449219 "/>
<path style=" stroke:none;fill-rule:nonzero;fill:rgb(10.980392%,44.313726%,85.490197%);fill-opacity:1;" d="M 17.210938 53.402344 C 16.445312 52.636719 15.429688 52.214844 14.351562 52.214844 L 14.347656 52.214844 C 13.269531 52.214844 12.253906 52.640625 11.488281 53.402344 L 10.546875 54.34375 C 9.78125 55.109375 9.359375 56.128906 9.359375 57.207031 C 9.359375 58.289062 9.78125 59.304688 10.546875 60.070312 L 17.136719 66.660156 C 17.902344 67.425781 18.917969 67.847656 20 67.847656 C 20 67.847656 20 67.847656 20.003906 67.847656 C 21.082031 67.847656 22.097656 67.425781 22.863281 66.660156 L 23.804688 65.71875 C 25.382812 64.140625 25.382812 61.574219 23.804688 59.996094 Z M 21.898438 63.8125 L 20.957031 64.757812 C 20.699219 65.011719 20.359375 65.152344 20 65.152344 C 19.640625 65.152344 19.300781 65.011719 19.042969 64.757812 L 12.449219 58.164062 C 12.195312 57.90625 12.050781 57.570312 12.050781 57.207031 C 12.050781 56.847656 12.195312 56.507812 12.449219 56.25 L 13.394531 55.308594 C 13.648438 55.050781 13.988281 54.910156 14.351562 54.910156 C 14.710938 54.910156 15.050781 55.050781 15.308594 55.308594 L 21.898438 61.898438 C 22.15625 62.15625 22.296875 62.496094 22.296875 62.855469 C 22.296875 63.214844 22.15625 63.558594 21.898438 63.8125 Z M 21.898438 63.8125 "/>
<path style=" stroke:none;fill-rule:nonzero;fill:rgb(10.980392%,44.313726%,85.490197%);fill-opacity:1;" d="M 34.355469 36.257812 C 32.777344 34.679688 30.210938 34.679688 28.632812 36.257812 L 27.6875 37.203125 C 26.113281 38.78125 26.113281 41.347656 27.6875 42.925781 L 34.28125 49.519531 C 35.070312 50.308594 36.105469 50.703125 37.140625 50.703125 C 38.179688 50.703125 39.214844 50.308594 40.007812 49.519531 L 40.945312 48.574219 C 41.714844 47.808594 42.132812 46.792969 42.132812 45.710938 C 42.132812 44.632812 41.710938 43.617188 40.945312 42.851562 Z M 39.042969 46.671875 L 38.101562 47.613281 C 37.570312 48.144531 36.714844 48.140625 36.1875 47.613281 L 29.59375 41.023438 C 29.066406 40.496094 29.066406 39.636719 29.59375 39.105469 L 30.535156 38.164062 C 30.800781 37.902344 31.148438 37.769531 31.492188 37.769531 C 31.839844 37.769531 32.1875 37.902344 32.453125 38.164062 L 39.042969 44.757812 C 39.300781 45.011719 39.441406 45.351562 39.441406 45.714844 C 39.441406 46.074219 39.300781 46.414062 39.042969 46.671875 Z M 39.042969 46.671875 "/>
<path style=" stroke:none;fill-rule:nonzero;fill:rgb(10.980392%,44.313726%,85.490197%);fill-opacity:1;" d="M 51.5 19.117188 C 50.734375 18.351562 49.71875 17.929688 48.636719 17.929688 C 47.554688 17.929688 46.539062 18.351562 45.773438 19.117188 L 44.832031 20.058594 C 44.066406 20.824219 43.644531 21.839844 43.644531 22.921875 C 43.644531 24 44.066406 25.015625 44.832031 25.78125 L 51.421875 32.375 C 52.1875 33.140625 53.203125 33.5625 54.285156 33.5625 C 55.367188 33.5625 56.382812 33.140625 57.148438 32.375 L 58.089844 31.433594 C 59.667969 29.855469 59.667969 27.289062 58.089844 25.710938 Z M 56.1875 29.527344 L 55.242188 30.46875 C 54.988281 30.726562 54.648438 30.867188 54.285156 30.867188 C 53.925781 30.867188 53.585938 30.726562 53.328125 30.46875 L 46.738281 23.878906 L 46.738281 23.875 C 46.480469 23.621094 46.339844 23.28125 46.339844 22.921875 C 46.339844 22.558594 46.480469 22.222656 46.738281 21.964844 L 47.679688 21.019531 C 47.933594 20.765625 48.273438 20.625 48.636719 20.625 C 49 20.625 49.335938 20.765625 49.59375 21.019531 L 56.1875 27.613281 C 56.441406 27.871094 56.582031 28.210938 56.582031 28.570312 C 56.582031 28.929688 56.441406 29.269531 56.1875 29.527344 Z M 56.1875 29.527344 "/>
<path style=" stroke:none;fill-rule:nonzero;fill:rgb(10.980392%,44.313726%,85.490197%);fill-opacity:1;" d="M 25.785156 44.832031 C 24.207031 43.253906 21.636719 43.253906 20.058594 44.832031 L 19.117188 45.773438 C 17.539062 47.351562 17.539062 49.921875 19.117188 51.5 L 25.707031 58.089844 C 26.496094 58.878906 27.535156 59.273438 28.570312 59.273438 C 29.609375 59.273438 30.644531 58.878906 31.433594 58.089844 L 32.375 57.144531 C 33.140625 56.382812 33.5625 55.363281 33.5625 54.28125 C 33.5625 53.203125 33.140625 52.1875 32.375 51.421875 Z M 30.46875 55.242188 L 29.527344 56.183594 C 29.003906 56.710938 28.140625 56.714844 27.613281 56.183594 L 21.023438 49.59375 C 20.496094 49.066406 20.492188 48.207031 21.019531 47.679688 L 21.964844 46.734375 C 22.222656 46.480469 22.558594 46.339844 22.921875 46.339844 C 23.285156 46.339844 23.625 46.480469 23.878906 46.734375 L 30.472656 53.328125 C 30.726562 53.585938 30.867188 53.925781 30.867188 54.285156 C 30.867188 54.644531 30.726562 54.984375 30.46875 55.242188 Z M 30.46875 55.242188 "/>
<path style=" stroke:none;fill-rule:nonzero;fill:rgb(10.980392%,44.313726%,85.490197%);fill-opacity:1;" d="M 42.925781 27.6875 C 41.347656 26.109375 38.78125 26.113281 37.203125 27.6875 L 36.261719 28.628906 C 35.492188 29.398438 35.074219 30.414062 35.074219 31.496094 C 35.074219 32.574219 35.496094 33.589844 36.261719 34.355469 L 42.851562 40.945312 C 43.640625 41.734375 44.679688 42.128906 45.714844 42.128906 C 46.75 42.128906 47.785156 41.734375 48.574219 40.945312 L 49.519531 40.003906 C 50.285156 39.238281 50.707031 38.222656 50.707031 37.144531 C 50.707031 36.0625 50.285156 35.046875 49.519531 34.28125 Z M 47.613281 38.097656 L 46.671875 39.042969 C 46.414062 39.300781 46.074219 39.441406 45.714844 39.441406 C 45.351562 39.441406 45.015625 39.300781 44.757812 39.042969 L 38.164062 32.449219 C 37.910156 32.195312 37.769531 31.855469 37.765625 31.492188 C 37.765625 31.132812 37.910156 30.792969 38.164062 30.535156 L 39.109375 29.59375 C 39.363281 29.335938 39.703125 29.195312 40.066406 29.195312 C 40.425781 29.195312 40.765625 29.335938 41.023438 29.59375 L 47.613281 36.1875 C 47.871094 36.441406 48.011719 36.78125 48.011719 37.144531 C 48.011719 37.503906 47.871094 37.84375 47.613281 38.097656 Z M 47.613281 38.097656 "/>
<path style=" stroke:none;fill-rule:nonzero;fill:rgb(10.980392%,44.313726%,85.490197%);fill-opacity:1;" d="M 60.070312 10.542969 C 59.304688 9.78125 58.289062 9.359375 57.207031 9.359375 C 56.128906 9.359375 55.109375 9.78125 54.347656 10.542969 L 53.402344 11.488281 C 51.824219 13.066406 51.824219 15.636719 53.402344 17.210938 L 59.992188 23.804688 C 60.785156 24.59375 61.820312 24.988281 62.859375 24.988281 C 63.894531 24.988281 64.929688 24.59375 65.722656 23.804688 L 66.660156 22.863281 C 67.429688 22.09375 67.847656 21.078125 67.847656 19.996094 C 67.847656 18.917969 67.425781 17.902344 66.660156 17.136719 Z M 64.753906 20.957031 L 63.816406 21.898438 C 63.289062 22.425781 62.429688 22.425781 61.898438 21.898438 L 55.308594 15.308594 C 54.78125 14.78125 54.78125 13.921875 55.308594 13.390625 L 56.25 12.449219 C 56.507812 12.191406 56.847656 12.050781 57.207031 12.050781 C 57.570312 12.050781 57.910156 12.191406 58.164062 12.449219 L 64.757812 19.042969 C 65.011719 19.296875 65.152344 19.636719 65.15625 20 C 65.15625 20.359375 65.011719 20.699219 64.753906 20.957031 Z M 64.753906 20.957031 "/>
<path style=" stroke:none;fill-rule:nonzero;fill:rgb(10.980392%,44.313726%,85.490197%);fill-opacity:1;" d="M 78.09375 22.859375 L 80 20.953125 L 77.140625 18.09375 L 77.144531 18.09375 L 59.046875 0 L 0 59.046875 L 20.953125 80 L 22.855469 78.09375 L 20 75.238281 L 21.90625 73.332031 L 24.761719 76.191406 L 26.667969 74.285156 L 23.808594 71.429688 L 25.714844 69.523438 L 28.570312 72.378906 L 30.476562 70.476562 L 27.617188 67.621094 L 29.523438 65.714844 L 32.378906 68.570312 L 34.285156 66.667969 L 31.429688 63.808594 L 33.332031 61.90625 L 36.191406 64.761719 L 38.09375 62.859375 L 35.238281 60 L 37.140625 58.09375 L 40 60.953125 L 41.90625 59.046875 L 39.046875 56.191406 L 40.953125 54.285156 L 43.808594 57.144531 L 45.714844 55.238281 L 42.855469 52.382812 L 44.761719 50.476562 L 47.621094 53.332031 L 53.332031 47.621094 L 50.476562 44.761719 L 52.382812 42.855469 L 55.238281 45.714844 L 57.140625 43.808594 L 54.285156 40.953125 L 56.191406 39.046875 L 59.046875 41.90625 L 60.953125 40 L 58.09375 37.144531 L 60 35.238281 L 62.855469 38.09375 L 64.761719 36.191406 L 61.90625 33.332031 L 63.808594 31.429688 L 66.667969 34.285156 L 68.570312 32.378906 L 65.714844 29.523438 L 67.617188 27.621094 L 70.476562 30.476562 L 72.378906 28.574219 L 69.523438 25.714844 L 71.429688 23.808594 L 74.285156 26.667969 L 76.191406 24.761719 L 73.332031 21.90625 L 75.238281 20 Z M 49.523438 47.621094 L 47.621094 49.523438 L 46.667969 48.570312 L 48.570312 46.664062 Z M 48.570312 42.855469 L 42.855469 48.570312 L 18.09375 73.335938 L 3.808594 59.046875 L 59.046875 3.808594 L 73.332031 18.09375 Z M 48.570312 42.855469 "/>
<path style=" stroke:none;fill-rule:nonzero;fill:rgb(100%,36.470589%,36.470589%);fill-opacity:1;" d="M 26.617188 15.695312 C 26.269531 15.695312 25.925781 15.566406 25.664062 15.300781 C 25.136719 14.777344 25.136719 13.921875 25.664062 13.398438 L 30.425781 8.636719 C 30.953125 8.109375 31.804688 8.109375 32.332031 8.636719 C 32.855469 9.160156 32.855469 10.015625 32.332031 10.539062 L 27.566406 15.300781 C 27.304688 15.566406 26.960938 15.695312 26.617188 15.695312 Z M 26.617188 15.695312 "/>
<path style=" stroke:none;fill-rule:nonzero;fill:rgb(100%,36.470589%,36.470589%);fill-opacity:1;" d="M 31.378906 15.695312 C 31.035156 15.695312 30.6875 15.566406 30.425781 15.300781 L 25.664062 10.539062 C 25.136719 10.015625 25.136719 9.160156 25.664062 8.636719 C 26.1875 8.109375 27.042969 8.109375 27.566406 8.636719 L 32.332031 13.398438 C 32.855469 13.921875 32.855469 14.777344 32.332031 15.300781 C 32.066406 15.566406 31.722656 15.695312 31.378906 15.695312 Z M 31.378906 15.695312 "/>
<path style=" stroke:none;fill-rule:nonzero;fill:rgb(0%,83.137256%,4.313726%);fill-opacity:1;" d="M 67.695312 72.265625 C 65.097656 72.265625 62.980469 70.152344 62.980469 67.550781 C 62.980469 64.953125 65.097656 62.835938 67.695312 62.835938 C 70.296875 62.835938 72.410156 64.953125 72.410156 67.550781 C 72.410156 70.152344 70.296875 72.265625 67.695312 72.265625 Z M 67.695312 65.53125 C 66.582031 65.53125 65.675781 66.4375 65.675781 67.550781 C 65.675781 68.664062 66.582031 69.570312 67.695312 69.570312 C 68.808594 69.570312 69.714844 68.664062 69.714844 67.550781 C 69.714844 66.4375 68.808594 65.53125 67.695312 65.53125 Z M 67.695312 65.53125 "/>
<path style=" stroke:none;fill-rule:nonzero;fill:rgb(100%,77.254903%,1.568628%);fill-opacity:1;" d="M 7.527344 42.171875 C 7.183594 42.171875 6.839844 42.039062 6.578125 41.777344 L 2.765625 37.96875 C 2.515625 37.714844 2.371094 37.371094 2.371094 37.015625 C 2.371094 36.65625 2.515625 36.316406 2.765625 36.0625 L 6.578125 32.253906 C 7.101562 31.726562 7.953125 31.726562 8.480469 32.253906 L 12.289062 36.0625 C 12.816406 36.589844 12.816406 37.441406 12.289062 37.96875 L 8.480469 41.777344 C 8.21875 42.039062 7.875 42.171875 7.527344 42.171875 Z M 5.625 37.015625 L 7.527344 38.921875 L 9.433594 37.015625 L 7.527344 35.109375 Z M 5.625 37.015625 "/>
</g>
</svg>
