<?xml version="1.0" encoding="UTF-8"?>
<svg xmlns="http://www.w3.org/2000/svg" xmlns:xlink="http://www.w3.org/1999/xlink" width="32px" height="32px" viewBox="0 0 32 32" version="1.1">
<g id="surface1">
<path style=" stroke:none;fill-rule:nonzero;fill:rgb(100%,81.960785%,36.470589%);fill-opacity:1;" d="M 32 16 C 32 7.164062 24.835938 0 16 0 C 7.164062 0 0 7.164062 0 16 C 0 24.835938 7.164062 32 16 32 C 24.835938 32 32 24.835938 32 16 Z M 32 16 "/>
<path style=" stroke:none;fill-rule:nonzero;fill:rgb(97.647059%,70.980394%,29.803923%);fill-opacity:1;" d="M 32 16 C 32 15.265625 31.949219 14.542969 31.851562 13.832031 L 25.589844 7.570312 L 17.363281 15.53125 L 10.46875 8.636719 L 6.410156 9.347656 L 14.941406 17.875 L 12.753906 19.992188 L 7.109375 23.109375 L 16 32 C 24.835938 32 32 24.835938 32 16 Z M 32 16 "/>
<path style=" stroke:none;fill-rule:nonzero;fill:rgb(20%,29.411766%,36.862746%);fill-opacity:1;" d="M 15.570312 21.332031 L 16.429688 21.332031 L 16.429688 26.667969 L 15.570312 26.667969 Z M 15.570312 21.332031 "/>
<path style=" stroke:none;fill-rule:nonzero;fill:rgb(16.862746%,23.137255%,30.588236%);fill-opacity:1;" d="M 15.964844 21.332031 L 16.429688 21.332031 L 16.429688 26.667969 L 15.964844 26.667969 Z M 15.964844 21.332031 "/>
<path style=" stroke:none;fill-rule:nonzero;fill:rgb(100%,100%,100%);fill-opacity:1;" d="M 7.109375 8.890625 L 24.890625 8.890625 L 24.890625 23.109375 L 7.109375 23.109375 Z M 7.109375 8.890625 "/>
<path style=" stroke:none;fill-rule:nonzero;fill:rgb(90.196079%,95.294118%,100%);fill-opacity:1;" d="M 15.964844 8.890625 L 24.890625 8.890625 L 24.890625 23.109375 L 15.964844 23.109375 Z M 15.964844 8.890625 "/>
<path style=" stroke:none;fill-rule:nonzero;fill:rgb(19.607843%,29.019609%,36.862746%);fill-opacity:1;" d="M 6.410156 7.570312 L 25.589844 7.570312 L 25.589844 9.347656 L 6.410156 9.347656 Z M 6.410156 7.570312 "/>
<path style=" stroke:none;fill-rule:nonzero;fill:rgb(16.862746%,23.137255%,30.588236%);fill-opacity:1;" d="M 15.964844 7.570312 L 25.589844 7.570312 L 25.589844 9.347656 L 15.964844 9.347656 Z M 15.964844 7.570312 "/>
<path style=" stroke:none;fill-rule:nonzero;fill:rgb(94.509804%,32.941177%,24.705882%);fill-opacity:1;" d="M 17.777344 14.816406 L 23.109375 14.816406 L 23.109375 15.136719 L 17.777344 15.136719 Z M 17.777344 14.816406 "/>
<path style=" stroke:none;fill-rule:nonzero;fill:rgb(94.509804%,32.941177%,24.705882%);fill-opacity:1;" d="M 17.777344 14.0625 L 23.109375 14.0625 L 23.109375 14.382812 L 17.777344 14.382812 Z M 17.777344 14.0625 "/>
<path style=" stroke:none;fill-rule:nonzero;fill:rgb(94.509804%,32.941177%,24.705882%);fill-opacity:1;" d="M 17.777344 18.53125 L 23.109375 18.53125 L 23.109375 18.855469 L 17.777344 18.855469 Z M 17.777344 18.53125 "/>
<path style=" stroke:none;fill-rule:nonzero;fill:rgb(94.509804%,32.941177%,24.705882%);fill-opacity:1;" d="M 17.777344 17.777344 L 23.109375 17.777344 L 23.109375 18.101562 L 17.777344 18.101562 Z M 17.777344 17.777344 "/>
<path style=" stroke:none;fill-rule:nonzero;fill:rgb(84.705883%,24.313726%,12.54902%);fill-opacity:1;" d="M 14.0625 11.882812 L 16 11.882812 L 16 19.097656 L 14.0625 19.097656 Z M 14.0625 11.882812 "/>
<path style=" stroke:none;fill-rule:nonzero;fill:rgb(95.686275%,63.529414%,0%);fill-opacity:1;" d="M 8 16.210938 L 9.9375 16.210938 L 9.9375 19.097656 L 8 19.097656 Z M 8 16.210938 "/>
<path style=" stroke:none;fill-rule:nonzero;fill:rgb(19.215687%,72.941178%,99.215686%);fill-opacity:1;" d="M 11.03125 14.5 L 12.96875 14.5 L 12.96875 19.097656 L 11.03125 19.097656 Z M 11.03125 14.5 "/>
</g>
</svg>
