<?xml version="1.0" encoding="UTF-8"?>
<svg xmlns="http://www.w3.org/2000/svg" xmlns:xlink="http://www.w3.org/1999/xlink" width="32px" height="150px" viewBox="0 0 32 32" version="1.1">
<g id="surface1">
<path style=" stroke:none;fill-rule:nonzero;fill:rgb(100%,91.37255%,56.078434%);fill-opacity:1;" d="M 32 16 C 32 7.164062 24.835938 0 16 0 C 7.164062 0 0 7.164062 0 16 C 0 24.835938 7.164062 32 16 32 C 24.835938 32 32 24.835938 32 16 Z M 32 16 "/>
<path style=" stroke:none;fill-rule:nonzero;fill:rgb(100%,85.490197%,26.666668%);fill-opacity:1;" d="M 17.316406 31.945312 C 23.820312 31.417969 29.222656 26.996094 31.195312 21.019531 L 24.394531 14.214844 L 24.21875 14.535156 L 19.941406 10.257812 L 17.925781 14.179688 L 14.007812 10.257812 L 12.695312 11.59375 L 17.027344 15.925781 L 16.484375 16.984375 L 14.164062 18.796875 L 9.585938 14.214844 L 8.484375 15.902344 L 12.199219 19.617188 L 7.109375 21.742188 Z M 17.316406 31.945312 "/>
<path style=" stroke:none;fill-rule:nonzero;fill:rgb(0%,42.352942%,43.921569%);fill-opacity:1;" d="M 15.984375 15.804688 L 24.890625 15.804688 L 24.890625 21.742188 L 15.984375 21.742188 Z M 15.984375 15.804688 "/>
<path style=" stroke:none;fill-rule:nonzero;fill:rgb(0.784314%,21.568628%,21.568628%);fill-opacity:1;" d="M 24.394531 15.804688 L 24.394531 14.214844 L 22.414062 14.214844 L 22.414062 15.804688 L 20.488281 15.804688 L 20.488281 21.742188 L 24.890625 21.742188 L 24.890625 15.804688 Z M 24.394531 15.804688 "/>
<path style=" stroke:none;fill-rule:nonzero;fill:rgb(0%,42.352942%,43.921569%);fill-opacity:1;" d="M 9.585938 15.804688 L 9.585938 14.214844 L 7.605469 14.214844 L 7.605469 15.804688 L 7.109375 15.804688 L 7.109375 21.742188 L 16.015625 21.742188 L 16.015625 15.804688 Z M 9.585938 15.804688 "/>
<path style=" stroke:none;fill-rule:nonzero;fill:rgb(0.784314%,21.568628%,21.568628%);fill-opacity:1;" d="M 11.546875 15.804688 L 16.015625 15.804688 L 16.015625 21.742188 L 11.546875 21.742188 Z M 11.546875 15.804688 "/>
<path style=" stroke:none;fill-rule:nonzero;fill:rgb(100%,59.607846%,6.666667%);fill-opacity:1;" d="M 14.007812 11.847656 L 14.007812 10.257812 L 12.027344 10.257812 L 12.027344 11.847656 L 11.53125 11.847656 L 11.53125 15.804688 L 20.4375 15.804688 L 20.4375 11.847656 Z M 14.007812 11.847656 "/>
<path style=" stroke:none;fill-rule:nonzero;fill:rgb(100%,31.37255%,13.725491%);fill-opacity:1;" d="M 19.941406 11.847656 L 19.941406 10.257812 L 17.964844 10.257812 L 17.964844 11.847656 L 15.910156 11.847656 L 15.910156 15.804688 L 20.4375 15.804688 L 20.4375 11.847656 Z M 19.941406 11.847656 "/>
</g>
</svg>
