<?xml version="1.0" encoding="UTF-8"?>
<svg xmlns="http://www.w3.org/2000/svg" xmlns:xlink="http://www.w3.org/1999/xlink" width="32px" height="32px" viewBox="0 0 32 32" version="1.1">
<g id="surface1">
<path style=" stroke:none;fill-rule:nonzero;fill:rgb(10.980392%,84.313726%,34.901962%);fill-opacity:1;" d="M 25.707031 6.933594 L 26.132812 4.425781 L 19.199219 3.308594 L 18.558594 6.933594 Z M 25.707031 6.933594 "/>
<path style=" stroke:none;fill-rule:nonzero;fill:rgb(32.941177%,78.823531%,99.215686%);fill-opacity:1;" d="M 21.332031 0.535156 L 10.613281 1.441406 L 10.933594 4.375 L 14.347656 3.734375 L 14.933594 6.933594 L 18.558594 6.933594 L 19.199219 3.308594 L 21.652344 3.679688 Z M 21.332031 0.535156 "/>
<path style=" stroke:none;fill-rule:nonzero;fill:rgb(99.215686%,59.607846%,3.137255%);fill-opacity:1;" d="M 14.933594 6.933594 L 14.347656 3.734375 L 5.332031 5.492188 L 5.601562 6.933594 Z M 14.933594 6.933594 "/>
<path style=" stroke:none;fill-rule:nonzero;fill:rgb(98.823529%,76.47059%,3.529412%);fill-opacity:1;" d="M 25.601562 11.199219 L 6.398438 11.199219 C 5.8125 11.199219 5.332031 10.71875 5.332031 10.132812 L 5.332031 8 C 5.332031 7.414062 5.8125 6.933594 6.398438 6.933594 L 25.601562 6.933594 C 26.1875 6.933594 26.667969 7.414062 26.667969 8 L 26.667969 10.132812 C 26.667969 10.71875 26.1875 11.199219 25.601562 11.199219 "/>
<path style=" stroke:none;fill-rule:nonzero;fill:rgb(100%,100%,100%);fill-opacity:1;" d="M 5.332031 10.132812 L 5.332031 8 C 5.332031 7.414062 5.8125 6.933594 6.398438 6.933594 L 4.800781 6.933594 C 4.214844 6.933594 3.734375 7.414062 3.734375 8 L 3.734375 10.132812 C 3.734375 10.71875 4.214844 11.199219 4.800781 11.199219 L 6.398438 11.199219 C 5.8125 11.199219 5.332031 10.71875 5.332031 10.132812 "/>
<path style=" stroke:none;fill-rule:nonzero;fill:rgb(99.215686%,59.607846%,3.137255%);fill-opacity:1;" d="M 27.199219 6.933594 L 25.601562 6.933594 C 26.1875 6.933594 26.667969 7.414062 26.667969 8 L 26.667969 10.132812 C 26.667969 10.71875 26.1875 11.199219 25.601562 11.199219 L 27.199219 11.199219 C 27.785156 11.199219 28.265625 10.71875 28.265625 10.132812 L 28.265625 8 C 28.265625 7.414062 27.785156 6.933594 27.199219 6.933594 "/>
<path style=" stroke:none;fill-rule:nonzero;fill:rgb(100%,86.666667%,3.529412%);fill-opacity:1;" d="M 6.773438 11.199219 L 8.746094 30.507812 C 8.800781 31.039062 9.171875 31.464844 9.652344 31.464844 L 22.398438 31.464844 C 22.878906 31.464844 23.253906 31.039062 23.308594 30.507812 L 25.226562 11.199219 Z M 6.773438 11.199219 "/>
<path style=" stroke:none;fill-rule:nonzero;fill:rgb(98.823529%,76.47059%,3.529412%);fill-opacity:1;" d="M 8.535156 31.464844 L 23.464844 31.464844 C 24 31.464844 24.480469 31.039062 24.535156 30.507812 L 24.800781 27.199219 L 7.199219 27.199219 L 7.464844 30.507812 C 7.519531 31.039062 8 31.464844 8.535156 31.464844 "/>
<path style=" stroke:none;fill-rule:nonzero;fill:rgb(100%,100%,100%);fill-opacity:1;" d="M 8.691406 30.507812 L 6.71875 11.199219 L 5.121094 11.199219 L 7.414062 30.507812 C 7.464844 31.039062 7.945312 31.464844 8.480469 31.464844 L 9.601562 31.464844 C 9.121094 31.464844 8.746094 31.039062 8.691406 30.507812 "/>
<path style=" stroke:none;fill-rule:nonzero;fill:rgb(99.215686%,59.607846%,3.137255%);fill-opacity:1;" d="M 25.066406 11.199219 L 23.09375 30.507812 C 23.039062 31.039062 22.667969 31.464844 22.1875 31.464844 L 23.308594 31.464844 C 23.839844 31.464844 24.320312 31.039062 24.375 30.507812 L 26.667969 11.199219 Z M 25.066406 11.199219 "/>
<path style=" stroke:none;fill-rule:nonzero;fill:rgb(0%,0%,0%);fill-opacity:1;" d="M 27.199219 11.734375 L 4.800781 11.734375 C 3.894531 11.734375 3.199219 11.039062 3.199219 10.132812 L 3.199219 8 C 3.199219 7.09375 3.894531 6.398438 4.800781 6.398438 L 27.199219 6.398438 C 28.105469 6.398438 28.800781 7.09375 28.800781 8 L 28.800781 10.132812 C 28.800781 11.039062 28.105469 11.734375 27.199219 11.734375 Z M 4.800781 7.464844 C 4.480469 7.464844 4.265625 7.679688 4.265625 8 L 4.265625 10.132812 C 4.265625 10.453125 4.480469 10.667969 4.800781 10.667969 L 27.199219 10.667969 C 27.519531 10.667969 27.734375 10.453125 27.734375 10.132812 L 27.734375 8 C 27.734375 7.679688 27.519531 7.464844 27.199219 7.464844 Z M 4.800781 7.464844 "/>
<path style=" stroke:none;fill-rule:nonzero;fill:rgb(0%,0%,0%);fill-opacity:1;" d="M 23.464844 32 L 8.535156 32 C 7.679688 32 6.988281 31.359375 6.933594 30.507812 L 4.640625 11.253906 C 4.640625 11.09375 4.691406 10.933594 4.746094 10.828125 C 4.800781 10.71875 5.011719 10.667969 5.171875 10.667969 L 26.878906 10.667969 C 27.039062 10.667969 27.199219 10.71875 27.253906 10.828125 C 27.304688 10.933594 27.414062 11.09375 27.359375 11.253906 L 25.066406 30.558594 C 25.011719 31.359375 24.265625 32 23.464844 32 Z M 5.761719 11.734375 L 8 30.398438 C 8 30.71875 8.265625 30.933594 8.535156 30.933594 L 23.464844 30.933594 C 23.734375 30.933594 24 30.71875 24 30.453125 L 26.238281 11.734375 Z M 5.761719 11.734375 "/>
<path style=" stroke:none;fill-rule:nonzero;fill:rgb(0%,0%,0%);fill-opacity:1;" d="M 14.933594 7.464844 L 5.601562 7.464844 C 5.332031 7.464844 5.121094 7.308594 5.066406 7.039062 L 4.800781 5.546875 C 4.746094 5.28125 4.960938 5.011719 5.226562 4.960938 L 14.238281 3.199219 C 14.398438 3.199219 14.558594 3.199219 14.667969 3.308594 C 14.773438 3.414062 14.878906 3.519531 14.878906 3.625 L 15.464844 6.828125 C 15.519531 6.988281 15.464844 7.148438 15.359375 7.253906 C 15.253906 7.414062 15.09375 7.464844 14.933594 7.464844 Z M 6.027344 6.398438 L 14.238281 6.398438 L 13.867188 4.375 L 5.972656 5.867188 Z M 6.027344 6.398438 "/>
<path style=" stroke:none;fill-rule:nonzero;fill:rgb(0%,0%,0%);fill-opacity:1;" d="M 25.707031 7.464844 L 18.558594 7.464844 C 18.398438 7.464844 18.238281 7.414062 18.132812 7.253906 C 18.027344 7.148438 17.972656 6.988281 18.027344 6.828125 L 18.667969 3.199219 C 18.71875 2.933594 18.988281 2.71875 19.253906 2.773438 L 26.1875 3.894531 C 26.347656 3.894531 26.453125 4 26.558594 4.105469 C 26.667969 4.214844 26.667969 4.375 26.667969 4.480469 L 26.238281 6.988281 C 26.1875 7.308594 25.921875 7.464844 25.707031 7.464844 Z M 19.199219 6.398438 L 25.226562 6.398438 L 25.492188 4.851562 L 19.625 3.894531 Z M 19.199219 6.398438 "/>
<path style=" stroke:none;fill-rule:nonzero;fill:rgb(0%,0%,0%);fill-opacity:1;" d="M 18.558594 7.464844 L 14.933594 7.464844 C 14.667969 7.464844 14.453125 7.308594 14.398438 7.039062 L 13.921875 4.375 L 11.039062 4.90625 C 10.878906 4.960938 10.71875 4.90625 10.613281 4.800781 C 10.507812 4.691406 10.398438 4.585938 10.398438 4.425781 L 10.078125 1.492188 C 10.078125 1.332031 10.132812 1.226562 10.1875 1.121094 C 10.292969 1.011719 10.398438 0.960938 10.558594 0.90625 L 21.28125 0 C 21.546875 0 21.8125 0.214844 21.867188 0.480469 L 22.1875 3.625 C 22.1875 3.785156 22.132812 3.945312 22.027344 4.054688 C 21.921875 4.160156 21.761719 4.214844 21.601562 4.214844 L 19.625 3.894531 L 19.09375 7.039062 C 19.039062 7.308594 18.828125 7.464844 18.558594 7.464844 Z M 15.359375 6.398438 L 18.132812 6.398438 L 18.667969 3.199219 C 18.71875 2.933594 18.988281 2.71875 19.253906 2.773438 L 21.011719 3.039062 L 20.800781 1.121094 L 11.199219 1.921875 L 11.414062 3.734375 L 14.238281 3.199219 C 14.398438 3.199219 14.558594 3.199219 14.667969 3.308594 C 14.773438 3.414062 14.878906 3.519531 14.878906 3.625 Z M 15.359375 6.398438 "/>
<path style=" stroke:none;fill-rule:nonzero;fill:rgb(0%,0%,0%);fill-opacity:1;" d="M 23.464844 32 L 8.535156 32 C 7.734375 32 6.988281 31.359375 6.933594 30.507812 L 6.667969 27.199219 C 6.667969 27.039062 6.71875 26.878906 6.828125 26.773438 C 6.878906 26.71875 7.039062 26.667969 7.199219 26.667969 L 24.851562 26.667969 C 25.011719 26.667969 25.121094 26.71875 25.226562 26.828125 C 25.332031 26.933594 25.386719 27.09375 25.386719 27.253906 L 25.066406 30.558594 C 25.011719 31.359375 24.265625 32 23.464844 32 Z M 7.785156 27.734375 L 8 30.453125 C 8 30.71875 8.265625 30.933594 8.535156 30.933594 L 23.464844 30.933594 C 23.734375 30.933594 24 30.71875 24 30.453125 L 24.214844 27.734375 Z M 7.785156 27.734375 "/>
<path style=" stroke:none;fill-rule:nonzero;fill:rgb(0%,0%,0%);fill-opacity:1;" d="M 16 24.535156 C 15.679688 24.535156 15.464844 24.320312 15.464844 24 L 15.464844 14.398438 C 15.464844 14.078125 15.679688 13.867188 16 13.867188 C 16.320312 13.867188 16.535156 14.078125 16.535156 14.398438 L 16.535156 24 C 16.535156 24.320312 16.320312 24.535156 16 24.535156 Z M 16 24.535156 "/>
<path style=" stroke:none;fill-rule:nonzero;fill:rgb(0%,0%,0%);fill-opacity:1;" d="M 11.09375 24.535156 C 10.828125 24.535156 10.613281 24.320312 10.558594 24.054688 L 9.707031 14.507812 C 9.707031 14.1875 9.921875 13.972656 10.1875 13.921875 C 10.507812 13.867188 10.71875 14.132812 10.773438 14.398438 L 11.625 23.945312 C 11.625 24.214844 11.414062 24.480469 11.09375 24.535156 Z M 11.09375 24.535156 "/>
<path style=" stroke:none;fill-rule:nonzero;fill:rgb(0%,0%,0%);fill-opacity:1;" d="M 20.90625 24.535156 C 20.585938 24.480469 20.375 24.265625 20.375 23.945312 L 21.226562 14.398438 C 21.226562 14.078125 21.492188 13.867188 21.8125 13.921875 C 22.132812 13.921875 22.347656 14.1875 22.292969 14.507812 L 21.441406 24.054688 C 21.441406 24.320312 21.171875 24.535156 20.90625 24.535156 Z M 20.90625 24.535156 "/>
</g>
</svg>
