<?xml version="1.0" encoding="UTF-8"?>
<svg xmlns="http://www.w3.org/2000/svg" xmlns:xlink="http://www.w3.org/1999/xlink" width="64px" height="64px" viewBox="0 0 64 64" version="1.1">
<g id="surface1">
<path style=" stroke:none;fill-rule:nonzero;fill:rgb(3.529412%,14.117648%,29.411766%);fill-opacity:1;" d="M 34.492188 7.675781 L 53.644531 17.796875 C 56.484375 19.300781 56.484375 23.367188 53.644531 24.871094 L 50.246094 26.667969 L 53.644531 28.464844 C 56.484375 29.964844 56.484375 34.035156 53.644531 35.535156 L 50.246094 37.332031 L 53.644531 39.128906 C 56.484375 40.632812 56.484375 44.703125 53.644531 46.203125 L 34.492188 56.328125 C 32.933594 57.152344 31.066406 57.152344 29.507812 56.328125 L 10.355469 46.203125 C 7.515625 44.703125 7.515625 40.632812 10.355469 39.128906 L 13.757812 37.332031 L 10.355469 35.535156 C 7.515625 34.035156 7.515625 29.964844 10.355469 28.464844 L 13.757812 26.667969 L 10.355469 24.871094 C 7.515625 23.367188 7.515625 19.300781 10.355469 17.796875 L 29.507812 7.675781 C 31.066406 6.851562 32.933594 6.851562 34.492188 7.675781 Z M 44.539062 40.351562 L 34.492188 45.660156 C 32.933594 46.484375 31.066406 46.484375 29.507812 45.660156 L 19.460938 40.351562 L 15.078125 42.667969 L 32 51.613281 L 48.921875 42.667969 Z M 44.539062 29.683594 L 34.492188 34.992188 C 33.074219 35.742188 31.402344 35.8125 29.941406 35.199219 L 29.507812 34.992188 L 19.460938 29.683594 L 15.078125 32 L 32 40.945312 L 48.921875 32 Z M 32 12.390625 L 15.078125 21.332031 L 32 30.277344 L 48.921875 21.332031 Z M 32 12.390625 "/>
</g>
</svg>
