<?xml version="1.0" encoding="UTF-8"?>
<svg xmlns="http://www.w3.org/2000/svg" xmlns:xlink="http://www.w3.org/1999/xlink" width="32px" height="32px" viewBox="0 0 32 32" version="1.1">
<g id="surface1">
<path style=" stroke:none;fill-rule:nonzero;fill:rgb(100%,75.686276%,5.098039%);fill-opacity:1;" d="M 3.578125 30.226562 L 5.574219 30.226562 L 5.574219 16.5 C 5.574219 15.03125 6.769531 13.835938 8.238281 13.835938 L 23.78125 13.835938 C 25.25 13.835938 26.445312 15.03125 26.445312 16.5 L 26.445312 30.226562 L 28.398438 30.226562 L 28.398438 11.304688 L 3.578125 11.304688 Z M 3.578125 30.226562 "/>
<path style=" stroke:none;fill-rule:nonzero;fill:rgb(100%,100%,100%);fill-opacity:1;" d="M 23.691406 24.320312 L 23.691406 30.226562 L 24.664062 30.226562 L 24.664062 16.5 C 24.664062 16.011719 24.269531 15.609375 23.777344 15.609375 L 8.238281 15.609375 C 7.75 15.609375 7.347656 16.007812 7.347656 16.5 L 7.347656 30.226562 L 8.371094 30.226562 L 8.371094 24.320312 C 8.371094 23.832031 8.769531 23.429688 9.261719 23.429688 L 22.847656 23.429688 C 23.292969 23.429688 23.691406 23.832031 23.691406 24.320312 Z M 23.691406 24.320312 "/>
<path style=" stroke:none;fill-rule:nonzero;fill:rgb(100%,75.686276%,5.098039%);fill-opacity:1;" d="M 13.523438 25.960938 C 13.523438 26.449219 13.128906 26.851562 12.636719 26.851562 C 12.140625 26.851562 11.746094 26.453125 11.746094 25.960938 L 11.746094 25.203125 L 10.144531 25.203125 L 10.144531 30.21875 L 15.160156 30.21875 L 15.160156 25.203125 L 13.5625 25.203125 L 13.5625 25.960938 Z M 13.523438 25.960938 "/>
<path style=" stroke:none;fill-rule:nonzero;fill:rgb(100%,75.686276%,5.098039%);fill-opacity:1;" d="M 20.273438 25.960938 C 20.273438 26.449219 19.875 26.851562 19.382812 26.851562 C 18.898438 26.851562 18.492188 26.453125 18.492188 25.960938 L 18.492188 25.203125 L 16.894531 25.203125 L 16.894531 30.21875 L 21.910156 30.21875 L 21.910156 25.203125 L 20.3125 25.203125 L 20.3125 25.960938 Z M 20.273438 25.960938 "/>
<path style=" stroke:none;fill-rule:nonzero;fill:rgb(33.725491%,67.450982%,87.843138%);fill-opacity:1;" d="M 1.796875 7.308594 L 1.796875 9.527344 L 30.222656 9.527344 L 30.222656 7.308594 L 16.007812 1.847656 Z M 1.796875 7.308594 "/>
<path style=" stroke:none;fill-rule:nonzero;fill:rgb(9.803922%,30.980393%,50.980395%);fill-opacity:1;" d="M 31.417969 5.890625 L 16.320312 0.0664062 C 16.097656 -0.0234375 15.878906 -0.0234375 15.703125 0.0664062 L 0.605469 5.882812 C 0.25 6.015625 0.0273438 6.328125 0.0273438 6.726562 L 0.0273438 10.414062 C 0.0273438 10.902344 0.425781 11.304688 0.917969 11.304688 L 1.808594 11.304688 L 1.808594 31.109375 C 1.808594 31.597656 2.203125 32 2.699219 32 L 29.300781 32 C 29.789062 32 30.191406 31.601562 30.191406 31.109375 L 30.191406 11.304688 L 31.082031 11.304688 C 31.566406 11.304688 31.972656 10.90625 31.972656 10.414062 L 31.972656 6.726562 C 31.996094 6.328125 31.773438 6.023438 31.417969 5.890625 Z M 30.222656 9.527344 L 1.796875 9.527344 L 1.796875 7.351562 L 16.007812 1.890625 L 30.222656 7.351562 Z M 21.917969 30.226562 L 16.898438 30.226562 L 16.898438 25.207031 L 18.5 25.207031 L 18.5 25.964844 C 18.5 26.453125 18.898438 26.855469 19.390625 26.855469 C 19.875 26.855469 20.277344 26.457031 20.277344 25.964844 L 20.277344 25.207031 L 21.878906 25.207031 L 21.878906 30.226562 Z M 15.121094 30.226562 L 10.101562 30.226562 L 10.101562 25.207031 L 11.703125 25.207031 L 11.703125 25.964844 C 11.703125 26.453125 12.101562 26.855469 12.59375 26.855469 C 13.085938 26.855469 13.484375 26.457031 13.484375 25.964844 L 13.484375 25.207031 L 15.082031 25.207031 L 15.082031 30.226562 Z M 8.328125 24.320312 L 8.328125 30.226562 L 7.355469 30.226562 L 7.355469 16.5 C 7.355469 16.011719 7.75 15.609375 8.242188 15.609375 L 23.785156 15.609375 C 24.273438 15.609375 24.675781 16.007812 24.675781 16.5 L 24.675781 30.226562 L 23.652344 30.226562 L 23.652344 24.320312 C 23.652344 23.832031 23.257812 23.429688 22.765625 23.429688 L 9.214844 23.429688 C 8.726562 23.429688 8.328125 23.832031 8.328125 24.320312 Z M 28.441406 30.226562 L 26.445312 30.226562 L 26.445312 16.5 C 26.445312 15.03125 25.25 13.835938 23.78125 13.835938 L 8.238281 13.835938 C 6.769531 13.835938 5.574219 15.03125 5.574219 16.5 L 5.574219 30.226562 L 3.578125 30.226562 L 3.578125 11.304688 L 28.398438 11.304688 L 28.398438 30.21875 L 28.441406 30.21875 Z M 28.441406 30.226562 "/>
</g>
</svg>
